<svg xmlns="http://www.w3.org/2000/svg" width="24" height="24" viewBox="0 0 24 24">
    <defs>
        <filter id="8ld7mtjkta">
            <feColorMatrix in="SourceGraphic" values="0 0 0 0 1.000000 0 0 0 0 1.000000 0 0 0 0 1.000000 0 0 0 1.000000 0"/>
        </filter>
    </defs>
    <g fill="currentColor" fill-rule="evenodd">
        <g>
            <g>
                <g>
                    <g filter="url(#8ld7mtjkta)" transform="translate(-5 -607) translate(0 591) translate(0 12) translate(5 4)">
                        <g fill="#FFF" fill-rule="nonzero">
                            <path d="M18.13 19.49H1.86c-.5 0-.9-.4-.9-.9V1.87c0-.5.4-.9.9-.9h16.27c.5 0 .9.4.9.9v16.72c0 .5-.4.9-.9.9zm-15.37-1.8h14.47V2.77H2.76v14.92z" transform="translate(2 2)"/>
                            <path d="M12.15 9.56H5.16c-.5 0-.9-.4-.9-.9s.4-.9.9-.9h6.99c.5 0 .9.4.9.9s-.41.9-.9.9zM13.69 6.33H6.71c-.5 0-.9-.4-.9-.9s.4-.9.9-.9h6.99c.5 0 .9.4.9.9s-.41.9-.91.9zM14.89 9.68c-.27 0-.52-.11-.71-.3-.09-.09-.17-.2-.22-.32-.05-.12-.07-.25-.07-.38 0-.27.1-.52.29-.71.05-.05.1-.09.15-.12.06-.04.12-.07.18-.1.06-.02.12-.04.18-.05.33-.07.67.04.9.27.19.19.3.44.3.71 0 .13-.03.26-.08.38s-.12.23-.22.32c-.18.19-.43.3-.7.3zM15.01 12.8H9.29c-.5 0-.9-.4-.9-.9s.4-.9.9-.9h5.72c.5 0 .9.4.9.9s-.4.9-.9.9zM14.89 16.03H5.51c-.5 0-.9-.4-.9-.9s.4-.9.9-.9h9.38c.5 0 .9.4.9.9s-.41.9-.9.9z" transform="translate(2 2)"/>
                        </g>
                    </g>
                </g>
            </g>
        </g>
    </g>
</svg>
