<svg xmlns="http://www.w3.org/2000/svg" width="24" height="24" viewBox="0 0 24 24">
    <g fill="none" fill-rule="evenodd">
        <g fill="currentColor" fill-rule="nonzero" filter="url(#520x9zsw1a)" transform="translate(-448 -2217) translate(100 2041) translate(32 176) translate(316) translate(3 5)">
            <path d="M6.55 11.76c-.26 0-.51-.1-.71-.29L1.18 6.81C1 6.62.9 6.37.9 6.1c0-.27.1-.52.29-.7L5.85.74c.39-.39 1.02-.39 1.41 0 .39.39.39 1.02 0 1.41L3.31 6.1l3.95 3.95c.39.39.39 1.02 0 1.41-.2.2-.45.3-.71.3z"/>
            <path d="M16.1 13.55c-.54 0-.99-.44-1-.98v-.8c.01-1.63-.03-2.59-.93-3.46-.8-.77-1.89-1.21-3-1.21H1.9c-.55 0-1-.45-1-1s.45-1 1-1h9.28c1.62 0 3.22.65 4.39 1.77 1.56 1.5 1.55 3.31 1.54 4.91v.75c.01.55-.43 1.01-.98 1.02h-.03z"/>
        </g>
    </g>
</svg>
