<svg xmlns="http://www.w3.org/2000/svg" width="24" height="24" viewBox="0 0 24 24">
    <g fill="none" fill-rule="evenodd">
        <g>
            <g>
                <g>
                    <path fill="#00CD7E" d="M19 2c1.657 0 3 1.343 3 3v14c0 1.657-1.343 3-3 3H5c-1.657 0-3-1.343-3-3V5c0-1.657 1.343-3 3-3h14z" transform="translate(-16 -1947) translate(0 1935) translate(16 12)"/>
                    <path fill="#FFF" d="M10 14.586l-3.293-3.293c-.39-.39-1.024-.39-1.414 0-.39.39-.39 1.024 0 1.414l4 4c.39.39 1.024.39 1.414 0l8-8c.39-.39.39-1.024 0-1.414-.39-.39-1.024-.39-1.414 0L10 14.586z" transform="translate(-16 -1947) translate(0 1935) translate(16 12)"/>
                </g>
            </g>
        </g>
    </g>
</svg>
