<svg xmlns="http://www.w3.org/2000/svg" width="24" height="25" viewBox="0 0 24 25">
    <g fill="none" fill-rule="evenodd">
        <g transform="translate(-280 -2216) translate(100 2041) translate(32 176) translate(148)">
            <g fill="currentColor" fill-rule="nonzero" transform="translate(2 1)">
                <path d="M9.53 19.6C4.4 19.6.22 15.42.22 10.29.22 5.16 4.4.98 9.53.98c5.13 0 9.31 4.18 9.31 9.31 0 5.13-4.18 9.31-9.31 9.31zm0-16.62c-4.03 0-7.31 3.28-7.31 7.31 0 4.03 3.28 7.31 7.31 7.31 4.03 0 7.31-3.28 7.31-7.31 0-4.03-3.28-7.31-7.31-7.31z"/>
                <path d="M5.17 11.29c-.55 0-1-.45-1-1 0-2.37 1.59-4.48 3.86-5.14.54-.15 1.09.15 1.24.68.15.53-.15 1.08-.68 1.24-1.42.41-2.42 1.74-2.42 3.22 0 .55-.44 1-1 1zM18.78 21.02c-.26 0-.53-.1-.72-.31L14.53 17c-.38-.4-.37-1.03.03-1.41.4-.38 1.03-.36 1.41.04l3.53 3.71c.38.4.37 1.03-.03 1.41-.19.17-.44.27-.69.27z"/>
                <circle cx="11.4" cy="6.01" r="1"/>
            </g>
        </g>
    </g>
</svg>
