<svg xmlns="http://www.w3.org/2000/svg" width="24" height="24" viewBox="0 0 24 24">
    <g fill="none" fill-rule="evenodd">
        <g filter="currentColor" transform="translate(-504 -619) translate(100 555) translate(32 64) translate(372)">
            <g fill="currentColor" fill-rule="nonzero" transform="translate(1 1)">
                <path d="M8.46 22.38c-.17 0-.35-.05-.49-.15-.25-.17-.41-.45-.41-.75v-6.79l-6.4-6.33c-.26-.25-.34-.64-.2-.98.14-.34.47-.56.83-.56h18.42c.36 0 .68.21.82.54.14.33.08.71-.16.97l-5.79 6.33v4.35c0 .36-.21.68-.54.83L8.82 22.3c-.11.05-.23.08-.36.08zM3.98 8.62l5.11 5.05c.17.17.27.4.27.64v5.8l3.92-1.69v-4.11c0-.22.08-.44.24-.61l4.65-5.08H3.98z"/>
                <path d="M12.44 11.9H5.67c-.5 0-.9-.4-.9-.9s.4-.9.9-.9h6.77c.5 0 .9.4.9.9s-.4.9-.9.9z"/>
                <circle cx="7.33" cy="4.3" r="1.71"/>
                <path d="M11.6 7.72c0-1.23 1-2.23 2.23-2.23s2.23 1 2.23 2.23"/>
                <circle cx="11.6" cy="1.33" r="1.23"/>
            </g>
        </g>
    </g>
</svg>
