<svg xmlns="http://www.w3.org/2000/svg" width="24" height="24" viewBox="0 0 24 24">
    <g fill="none" fill-rule="evenodd">
        <g transform="translate(-672.000000, -2105.000000) translate(100.000000, 2041.000000) translate(32.000000, 64.000000) translate(540.000000, 0.000000)">
            <path transform="translate(12.000000, 12.000000) rotate(-180.000000) translate(-12.000000, -12.000000)"/>
            <path fill="currentColor" fill-rule="nonzero" d="M3.25 11.24c-.495-.005-.895-.405-.9-.9v-2c.027-1.667 1.383-3.005 3.05-3.01h13.2l-1.87-1.45c-.394-.301-.47-.865-.17-1.26.31-.387.873-.458 1.27-.16l3.94 3.05.11.08c.068.071.125.152.17.24.004.037.004.073 0 .11.053.183.053.377 0 .56.004.037.004.073 0 .11-.044.085-.102.163-.17.23-.026.038-.06.069-.1.09l-4 3.12c-.392.303-.956.231-1.26-.16-.15-.186-.217-.425-.189-.661.028-.237.15-.453.339-.599l1.95-1.52H5.4c-.335 0-.656.134-.891.373s-.364.562-.359.897v2c-.021.481-.418.86-.9.86zM6.72 21.73c-.2 0-.393-.068-.55-.19l-3.94-3.05-.11-.08c-.05-.074-.091-.155-.12-.24-.004-.037-.004-.073 0-.11-.053-.183-.053-.377 0-.56-.004-.037-.004-.073 0-.11.044-.085.102-.163.17-.23.028-.035.062-.066.1-.09l4-3.12c.392-.303.956-.231 1.26.16.15.186.217.425.189.661-.028.237-.15.453-.339.599l-2.01 1.5H18.6c.69 0 1.25-.56 1.25-1.25v-2c0-.497.403-.9.9-.9s.9.403.9.9v2c-.005 1.663-1.337 3.017-3 3.05H5.4l1.87 1.45c.394.301.47.865.17 1.26-.173.222-.439.35-.72.35z"/>
        </g>
    </g>
</svg>
