<svg xmlns="http://www.w3.org/2000/svg" width="24" height="24" viewBox="0 0 24 24">
    <g fill="none" fill-rule="evenodd">
        <g transform="translate(-44 -814) translate(0 806) translate(16) translate(28 8)">
            <g fill="currentColor" fill-rule="nonzero">
                <path d="M6.64 8.9c-.46 0-.85-.35-.9-.82-.29-3.29 1.66-6.22 4.66-6.96 1.76-.44 3.66-.11 5.08.87 1.95 1.35 3 3.76 2.67 6.13-.07.49-.52.84-1.01.77-.49-.07-.84-.52-.77-1.01.23-1.68-.54-3.46-1.92-4.41-1-.69-2.36-.92-3.62-.6-2.16.53-3.51 2.61-3.29 5.05.04.49-.32.93-.82.98h-.08z" transform="translate(0 1)"/>
                <path d="M14.91 8.19c-.48 0-.87-.37-.9-.85-.11-2.11-1.6-2.19-1.88-2.18-.48.02-.91-.38-.92-.87-.02-.49.36-.91.85-.93.98-.06 3.57.57 3.74 3.88.03.5-.35.92-.85.95h-.04z" transform="translate(0 1)"/>
                <path d="M12.47 14.68c-.18 0-.36 0-.55-.01C6.6 14.48 1.01 12.96.49 9.97.36 9.22.53 8.54.97 8c.94-1.13 2.81-1.19 3.02-1.19.51.05.91.41.91.91.01.5-.39.9-.89.91-.4.01-1.33.15-1.66.54-.07.08-.14.22-.09.5.24 1.39 4.2 3.01 9.71 3.21 5.5.15 9.64-2.09 9.79-3.37.03-.22-.95-.72-2.1-.89-.49-.07-.83-.53-.76-1.02.07-.49.52-.83 1.02-.76 1.8.26 3.83 1.17 3.63 2.89-.31 2.66-5.52 4.95-11.08 4.95z" transform="translate(0 1)"/>
                <path d="M11.75 21.07C1.25 21.07.48 9.99.48 9.88c-.03-.5.35-.92.85-.95.49-.05.92.35.95.84.02.39.68 9.5 9.47 9.5 9.11 0 9.98-9.33 10.01-9.73.04-.49.48-.87.97-.82.5.04.86.47.83.97-.01.11-1.02 11.38-11.81 11.38z" transform="translate(0 1)"/>
            </g>
        </g>
    </g>
</svg>
