<?xml version="1.0" encoding="utf-8"?>
<!-- Generator: Adobe Illustrator 25.4.1, SVG Export Plug-In . SVG Version: 6.00 Build 0)  -->
<svg version="1.1" id="圖層_1" xmlns="http://www.w3.org/2000/svg" xmlns:xlink="http://www.w3.org/1999/xlink" x="0px" y="0px"
	 viewBox="0 0 24 24" style="enable-background:new 0 0 24 24;" xml:space="preserve">
<style type="text/css">
	.st0{fill:#AEAEAE;}
</style>
<g>
	<path class="st0" d="M12,13.2c-0.2-0.5-0.7-0.7-1.2-0.5C9,13.5,7.2,13,7.2,13c-0.5-0.2-1,0.1-1.1,0.5c-0.2,0.5,0.1,1,0.5,1.1
		c0.1,0,0.9,0.3,2.1,0.3c0.8,0,1.8-0.1,2.9-0.6C12,14.2,12.2,13.6,12,13.2z"/>
	<path class="st0" d="M17.7,7.3L17.7,7.3c0-0.6-0.4-1.1-1-1.2L13.8,6c-0.6,0-1,0.4-1.1,1V7c0,0.6,0.4,1,1,1.1l2.9,0.2
		C17.1,8.3,17.6,7.9,17.7,7.3z"/>
	<circle class="st0" cx="15.2" cy="10" r="1"/>
	<path class="st0" d="M21.5,4.3c-0.2-0.2-0.5-0.8-1-1c-0.2-0.1-0.5-0.1-0.7-0.1c-1.4-1.1-3.1-1.8-5.1-1.7C9.7,1.6,8,4.1,6.5,7.2
		C4.9,7.5,2.9,7.9,2.2,8.1C1,8.5,0.5,10.4,0.7,12c0.2,1.3,1,4,4.8,5.3l-0.4,4.8c0,0.5,0.3,0.9,0.8,1c0,0,0,0,0.1,0
		c0.5,0,0.8-0.4,0.9-0.8l0.4-4.6c0.3,0.1,0.7,0.1,1.1,0.1c0,0,0.1,0,0.1,0c0.5,0,0.8-0.3,0.9-0.8c0-0.5-0.3-0.9-0.8-1
		c-4-0.4-5.3-2.1-5.8-3.4c-0.1-0.2-0.1-0.4-0.2-0.6c1,0.8,2.8,0.5,3-0.8C5.7,10.5,4.8,9.9,4,9.5c1.5-0.3,3.9-0.7,4.9-0.9
		c0.5-0.1,0.8-0.5,0.7-1c-0.1-0.5-0.5-0.8-1-0.7c1.2-2.1,2.6-3.4,6-3.5c1.5,0,2.8,0.4,3.8,1.2c-0.4,1-0.4,2.7-0.4,4.8
		c0,0.3,0,0.6,0,0.7c-0.2,1.9-1.5,2.8-3.1,3.8c-1.5,0.9-3.1,2-3.7,4c-0.5,1.8,0.5,3.8,2.1,4.4c0.8,0.3,1.5,0.4,2.2,0.4
		c3,0,5.2-2.2,6.2-4.5C23.9,14.1,23.7,8.2,21.5,4.3z"/>
</g>
</svg>
