<svg xmlns="http://www.w3.org/2000/svg" width="24" height="24" viewBox="0 0 24 24">
    <g fill="none" fill-rule="evenodd">
        <g transform="translate(-392 -917) translate(100 853) translate(32 64) translate(260)">
            <g fill="currentColor" fill-rule="nonzero" transform="translate(1 2)">
                <path d="M19.89 19.74H1.87c-.5 0-.9-.4-.9-.9V3.44c0-.5.4-.9.9-.9h10.38c.5 0 .9.4.9.9s-.4.9-.9.9H2.77v13.6h16.22V8.9c0-.5.4-.9.9-.9s.9.4.9.9v9.94c0 .49-.4.9-.9.9z"/>
                <path d="M1.87 19.74c-.23 0-.46-.09-.64-.26-.35-.35-.35-.92 0-1.27l6.06-6.06c.35-.35.92-.35 1.27 0l1.76 1.76 4.6-4.6c.17-.17.4-.26.64-.26s.47.1.64.26l4.09 4.09c.35.35.35.92 0 1.27s-.92.35-1.27 0l-3.45-3.45-4.6 4.6c-.35.35-.92.35-1.27 0l-1.76-1.76-5.42 5.42c-.19.17-.42.26-.65.26z"/>
                <circle cx="7.95" cy="8.13" r="1.81"/>
                <path d="M20.13 4.34h-4.55c-.5 0-.9-.4-.9-.9s.4-.9.9-.9h4.55c.5 0 .9.4.9.9s-.4.9-.9.9z"/>
                <path d="M17.86 6.61c-.5 0-.9-.4-.9-.9V1.16c0-.5.4-.9.9-.9s.9.4.9.9v4.55c0 .5-.41.9-.9.9z"/>
            </g>
        </g>
    </g>
</svg>
