<svg xmlns="http://www.w3.org/2000/svg" width="16" height="16" viewBox="0 0 16 16">
    <g fill="none" fill-rule="evenodd">
        <g fill="currentColor">
            <g>
                <g>
                    <g>
                        <g>
                            <path d="M9.81 0H2.802C1.417 0 .306.89.306 1.998v11.988c0 1.108 1.134 1.998 2.495 1.998h7.01c1.383 0 2.495-.89 2.495-1.998V1.998C12.306.89 11.194 0 9.81 0zM6.178 14.695c-.508 0-.908-.4-.908-.908 0-.51.4-.909.908-.909.509 0 .908.4.908.909 0 .508-.4.908-.908.908zm4.463-2.783H1.973V2.667h8.667v9.245z" transform="translate(-40 -533) translate(0 425) translate(24 96) translate(16 12) translate(2)"/>
                        </g>
                    </g>
                </g>
            </g>
        </g>
    </g>
</svg>
