<?xml version="1.0" encoding="UTF-8"?>
<svg width="24px" height="24px" viewBox="0 0 24 24" version="1.1" xmlns="http://www.w3.org/2000/svg" xmlns:xlink="http://www.w3.org/1999/xlink">
    <title>B6325986-367F-423F-8D8E-FDA24B6EF9D6</title>
    <defs>
        <filter id="filter-1">
            <feColorMatrix in="SourceGraphic" type="matrix" values="0 0 0 0 1.000000 0 0 0 0 1.000000 0 0 0 0 1.000000 0 0 0 1.000000 0"></feColorMatrix>
        </filter>
    </defs>
    <g id="Page-1" stroke="none" stroke-width="1" fill="none" fill-rule="evenodd">
        <g id="tanji_guidline_Icons" transform="translate(-692.000000, -2161.000000)">
            <g id="Btn-Deco-Copy" transform="translate(100.000000, 2041.000000)">
                <g id="Resume-edit" transform="translate(32.000000, 120.000000)">
                    <g id="Job-form-edit_icon_info_w" transform="translate(560.000000, 0.000000)" filter="url(#filter-1)">
                        <g transform="translate(2.000000, 2.000000)">
                            <path d="M10,19.89 C4.53790382,19.89 0.11,15.4620962 0.11,10 C0.11,4.53790382 4.53790382,0.11 10,0.11 C15.4620962,0.11 19.89,4.53790382 19.89,10 C19.89,15.4620962 15.4620962,19.89 10,19.89 Z M10,1.89 C5.53462287,1.89 1.91369811,5.50797418 1.91002466,9.97334981 C1.9063568,14.4387254 5.52132855,18.0626341 9.98669962,18.0700002 C14.4520707,18.077344 18.0789607,14.4653635 18.09,10 C18.0844902,5.5343006 14.4656994,1.91550981 10,1.91 L10,1.89 Z" id="Shape" fill="#FFFFFF" fill-rule="nonzero"></path>
                            <path d="M4.78,11.71 C4.35981001,11.7054583 3.99868741,11.4107491 3.91,11 C3.8326046,10.5877658 3.59347624,10.22364 3.24593565,9.98881524 C2.89839505,9.75399052 2.47134178,9.66799358 2.06,9.75 C1.81934596,9.79629049 1.57022168,9.74244342 1.37016795,9.60089597 C1.17011422,9.45934851 1.03643266,9.2423424 1,9 C0.945299627,8.52053145 1.27439409,8.08173884 1.75,8 C3.53705643,7.67415425 5.2582027,8.83193563 5.63,10.61 C5.73970934,11.0801172 5.46322318,11.5540935 5,11.69 L4.78,11.71 Z" id="Path" fill="#FFFFFF" fill-rule="nonzero"></path>
                            <circle id="Oval" fill="#FFFFFF" fill-rule="nonzero" cx="15.2" cy="9.02" r="1.15"></circle>
                            <circle id="Oval" fill="#FFFFFF" fill-rule="nonzero" cx="9.22" cy="10.96" r="1.15"></circle>
                            <path d="M3,8.71 C2.39029543,8.72017448 1.78097548,8.67330372 1.18,8.57 C0.848165743,8.52362068 0.569566548,8.29674298 0.45694394,7.98117815 C0.344321333,7.66561331 0.416322171,7.31360922 0.643809669,7.06761236 C0.871297167,6.82161551 1.21660636,6.72235543 1.54,6.81 L1.54,6.81 C5.97454506,7.56145611 10.3555819,5.21667583 12.19,1.11 C12.4134812,0.665590727 12.9523989,0.482982232 13.4,0.7 C13.8431121,0.919450672 14.0261898,1.45528785 13.81,1.9 C11.9002801,6.13407141 7.64362246,8.81564757 3,8.71 L3,8.71 Z" id="Path" fill="#FFFFFF" fill-rule="nonzero"></path>
                            <path d="M10.7,15.44 C10.5468279,15.4499447 10.3931721,15.4499447 10.24,15.44 C9.74570515,15.3847715 9.38977153,14.9392949 9.445,14.445 C9.50022847,13.9507051 9.94570515,13.5947715 10.44,13.65 C10.850631,13.729356 11.2756675,13.6312707 11.61,13.38 C11.9952562,13.0003992 12.2357815,12.4981259 12.29,11.96 C12.3231785,11.6422593 12.5205448,11.3651874 12.81,11.23 C13.0977636,11.0920955 13.4373343,11.1188033 13.7,11.3 C14,11.5 14.99,12.01 15.55,11.67 C15.8255492,11.4909803 16.1767617,11.4763629 16.4662337,11.6318664 C16.7557058,11.7873699 16.9374208,12.0882744 16.9403215,12.416858 C16.9431534,12.7454416 16.7667152,13.0494703 16.48,13.21 C15.646871,13.6626448 14.6527623,13.7105092 13.78,13.34 C13.5704582,13.8922437 13.2268018,14.3836724 12.78,14.77 C12.1884078,15.2335868 11.4509492,15.4711335 10.7,15.44 L10.7,15.44 Z" id="Path" fill="#FFFFFF" fill-rule="nonzero"></path>
                        </g>
                    </g>
                </g>
            </g>
        </g>
    </g>
</svg>