<svg xmlns="http://www.w3.org/2000/svg" width="24" height="24" viewBox="0 0 24 24">
    <g fill="none" fill-rule="evenodd">
        <g>
            <g transform="translate(-392 -271) translate(100 157) translate(0 82) translate(32 32) translate(260)">
                <g>
                    <path fill="currentColor" fill-rule="nonzero" d="M.93 2.24c-.45 0-.84-.34-.89-.79-.06-.49.29-.94.79-1l1.69-.2c.49-.06.94.3 1 .79.06.49-.29.94-.79 1l-1.69.2c-.04-.01-.08 0-.11 0zM11.07 2.24c-.04 0-.07 0-.11-.01l-1.69-.2c-.49-.06-.85-.51-.79-1 .06-.49.5-.84 1-.79l1.69.2c.49.06.85.51.79 1-.05.46-.44.8-.89.8z" transform="translate(6 10)"/>
                </g>
            </g>
            <g transform="translate(-392 -271) translate(100 157) translate(0 82) translate(32 32) translate(260)">
                <g fill="currentColor" fill-rule="nonzero">
                    <path d="M8.64 2.78c-.27 0-.54-.12-.71-.35-.3-.39-.23-.95.15-1.25.09-.07 2.2-1.69 5.61-.35.46.18.69.7.51 1.17-.18.46-.7.69-1.17.51-2.4-.94-3.79.05-3.84.1-.17.11-.36.17-.55.17z" transform="translate(1 2)"/>
                    <g>
                        <path d="M1.97 5.19c-.35 0-.67-.2-.82-.54-.31-.71-.48-2.37 1.07-3.56 1.52-1.17 3.1-.32 3.73.29.35.35.35.92.01 1.28-.35.35-.92.35-1.27.01-.17-.16-.76-.62-1.37-.15-.78.6-.56 1.3-.5 1.43.18.46-.04.98-.49 1.17-.13.04-.24.07-.36.07zM18.02 5.19c-.12 0-.24-.02-.36-.07-.45-.2-.66-.73-.46-1.18.05-.12.27-.82-.51-1.42-.62-.48-1.21 0-1.37.16-.37.33-.94.32-1.28-.03-.34-.36-.34-.92.01-1.26.62-.61 2.21-1.46 3.73-.29 1.55 1.19 1.37 2.85 1.06 3.56-.14.33-.47.53-.82.53z" transform="translate(1 2) translate(1)"/>
                    </g>
                    <path d="M11.1 20.14c-3.35 0-6.68-1.4-8.87-3.92C-.14 13.5-.62 9.33 1.03 5.85c.21-.45.75-.64 1.2-.43.45.21.64.75.43 1.2-1.35 2.84-.98 6.22.93 8.41 2.53 2.91 7.06 4.07 10.76 2.76 3.79-1.34 6.2-5.13 5.74-9.01-.09-.8-.29-1.53-.59-2.17-.21-.45-.01-.99.44-1.19.45-.21.98-.01 1.19.44.37.81.62 1.73.74 2.71.56 4.71-2.36 9.3-6.93 10.92-1.23.44-2.54.65-3.84.65z" transform="translate(1 2)"/>
                    <g transform="translate(1 2) translate(6 9)">
                        <ellipse cx="5" cy="1.56" rx="1.66" ry="1.29"/>
                        <path d="M3.02 4.45C1.67 4.45.65 3.53.53 3.41.17 3.07.15 2.5.49 2.14s.91-.38 1.27-.04c.19.18.82.61 1.4.54.39-.05.75-.33 1.09-.84.27-.42.83-.53 1.25-.26.42.27.53.83.26 1.25-.8 1.22-1.74 1.56-2.39 1.64-.12.01-.23.02-.35.02z"/>
                        <path d="M6.98 4.45c-.11 0-.22-.01-.34-.02-.65-.08-1.58-.42-2.39-1.64-.27-.42-.16-.97.26-1.25.42-.27.97-.16 1.25.26.34.51.7.79 1.09.84.58.07 1.21-.37 1.4-.54.37-.33.93-.31 1.27.05.34.36.32.93-.04 1.27-.13.1-1.16 1.03-2.5 1.03z"/>
                        <path d="M5.1 6.71c-1.23 0-1.95-.49-2.33-.89-.81-.87-.77-2-.76-2.12.03-.5.47-.88.96-.84.49.03.87.45.84.95 0 .03-.01.5.28.79.2.21.54.32 1.01.32.42 0 .72-.1.92-.3.33-.33.35-.87.35-.87 0-.5.4-.9.9-.9s.9.4.9.9c0 .13-.02 1.29-.87 2.15-.38.36-1.07.81-2.2.81z"/>
                    </g>
                    <g>
                        <path d="M2.57 3.58l-1.85-.9C.35 2.49.19 2.04.37 1.66l.19-.4C.74.88 1.2.72 1.58.91l1.84.91c.39.18.54.64.36 1.01l-.19.4c-.19.38-.65.54-1.02.35zM9.43 3.58l1.84-.91c.38-.18.53-.64.35-1.01l-.19-.4c-.18-.38-.64-.54-1.02-.35l-1.84.91c-.38.18-.53.64-.35 1.01l.19.4c.19.38.65.54 1.02.35z" transform="translate(1 2) translate(5 4)"/>
                    </g>
                </g>
            </g>
        </g>
    </g>
</svg>
