<svg xmlns="http://www.w3.org/2000/svg" width="24" height="24" viewBox="0 0 24 24">
    <g fill="none" fill-rule="evenodd">
        <g transform="translate(-336 -1213) translate(100 1149) translate(32 64) translate(204)">
            <g fill="currentColor" fill-rule="nonzero">
                <path d="M20.23 19.9H1.77c-.25 0-.49-.1-.66-.29-.17-.18-.26-.43-.24-.68l1-13.14c.04-.47.43-.83.9-.83h16.47c.47 0 .86.36.9.83l1 13.14c.02.25-.07.5-.24.68-.18.19-.42.29-.67.29zM2.74 18.1h16.52L18.4 6.76H3.6L2.74 18.1z" transform="translate(1 2)"/>
                <path d="M19.64 12.14H2.36c-.5 0-.9-.4-.9-.9s.4-.9.9-.9h17.28c.5 0 .9.4.9.9s-.4.9-.9.9z" transform="translate(1 2)"/>
                <path d="M8.05 13.93c-.5 0-.9-.4-.9-.9V9.26c0-.5.4-.9.9-.9s.9.4.9.9v3.77c0 .49-.41.9-.9.9zM14 13.93c-.5 0-.9-.4-.9-.9V9.26c0-.5.4-.9.9-.9s.9.4.9.9v3.77c0 .49-.4.9-.9.9zM15.86 6.76c-.5 0-.9-.4-.9-.9 0-2.18-1.78-3.96-3.96-3.96-2.18 0-3.96 1.78-3.96 3.96 0 .5-.4.9-.9.9s-.9-.4-.9-.9C5.24 2.68 7.82.1 11 .1c3.18 0 5.76 2.58 5.76 5.76 0 .5-.4.9-.9.9z" transform="translate(1 2)"/>
            </g>
        </g>
    </g>
</svg>
