<svg xmlns="http://www.w3.org/2000/svg" width="24" height="24" viewBox="0 0 24 24">
    <g fill="none" fill-rule="evenodd">
        <g transform="translate(-693 -1214) translate(100 1149) translate(445 59) translate(142) translate(6 6)">
            <g fill="currentColor" fill-rule="nonzero">
                <path d="M12.97 7.34c-1.88 0-3.4-1.53-3.4-3.4 0-1.87 1.52-3.4 3.4-3.4s3.4 1.53 3.4 3.4c0 1.87-1.52 3.4-3.4 3.4zm0-5c-.88 0-1.6.72-1.6 1.6 0 .88.72 1.6 1.6 1.6.88 0 1.6-.72 1.6-1.6 0-.88-.72-1.6-1.6-1.6zM13.68 21.28c-1.88 0-3.4-1.53-3.4-3.4 0-1.87 1.52-3.4 3.4-3.4s3.4 1.53 3.4 3.4c0 1.87-1.52 3.4-3.4 3.4zm0-5c-.88 0-1.6.72-1.6 1.6 0 .88.72 1.6 1.6 1.6.88 0 1.6-.72 1.6-1.6 0-.88-.72-1.6-1.6-1.6zM4.32 15.45c-1.88 0-3.4-1.53-3.4-3.4 0-1.87 1.52-3.4 3.4-3.4s3.4 1.53 3.4 3.4c0 1.87-1.53 3.4-3.4 3.4zm0-5c-.88 0-1.6.72-1.6 1.6 0 .88.72 1.6 1.6 1.6.88 0 1.6-.72 1.6-1.6 0-.88-.72-1.6-1.6-1.6z" transform="translate(3 1)"/>
                <path d="M6.9 11.42c-.22 0-.44-.08-.61-.24-.37-.34-.39-.91-.05-1.27l4.38-4.75c.34-.37.91-.39 1.27-.05.37.34.39.91.05 1.27l-4.38 4.75c-.18.2-.42.29-.66.29zM11.64 17.34c-.16 0-.32-.04-.46-.13l-4.55-2.73c-.43-.26-.56-.81-.31-1.23.26-.43.81-.57 1.23-.31l4.55 2.73c.43.26.56.81.31 1.23-.17.29-.47.44-.77.44z" transform="translate(3 1)"/>
            </g>
        </g>
    </g>
</svg>
