<svg xmlns="http://www.w3.org/2000/svg" width="24" height="24" viewBox="0 0 24 24">
    <defs>
        <filter id="tjkh6zjo7a">
            <feColorMatrix in="SourceGraphic" values="0 0 0 0 1.000000 0 0 0 0 1.000000 0 0 0 0 1.000000 0 0 0 1.000000 0"/>
        </filter>
    </defs>
    <g fill="currentColor" fill-rule="evenodd">
        <g>
            <g>
                <g>
                    <g filter="url(#tjkh6zjo7a)" transform="translate(-5 -1268) translate(0 1252) translate(0 12) translate(5 4)">
                        <g fill="#FFF" fill-rule="nonzero">
                            <path d="M10.93 6.16h-5.4c-.5 0-.9-.4-.9-.9V1.53c0-.5.4-.9.9-.9h5.4c.5 0 .9.4.9.9v3.73c0 .5-.41.9-.9.9zm-4.5-1.8h3.6V2.43h-3.6v1.93z" transform="translate(4 1)"/>
                            <path d="M8.23 21.37c-.22 0-.44-.08-.62-.25L1.09 15c-.27-.26-.36-.66-.21-1L4.7 4.91c.19-.46.72-.68 1.18-.48.46.19.67.72.48 1.18l-3.58 8.5 5.43 5.1 5.04-5.1-3.17-8.54c-.17-.47.06-.98.53-1.16.47-.17.98.07 1.16.53l3.37 9.08c.12.33.04.7-.2.95L8.87 21.1c-.18.18-.41.27-.64.27z" transform="translate(4 1)"/>
                            <path d="M8.23 14.22c-.5 0-.9-.4-.9-.9v-.92c0-.5.4-.9.9-.9s.9.4.9.9v.92c0 .49-.41.9-.9.9zM8.23 10.03c-.5 0-.9-.4-.9-.9V5.68c0-.5.4-.9.9-.9s.9.4.9.9v3.45c0 .49-.41.9-.9.9z" transform="translate(4 1)"/>
                        </g>
                    </g>
                </g>
            </g>
        </g>
    </g>
</svg>
