<svg xmlns="http://www.w3.org/2000/svg" width="26" height="24" viewBox="0 0 26 24">
    <defs>
        <filter id="1oqqo0cpaa">
            <feColorMatrix in="SourceGraphic" values="0 0 0 0 1.000000 0 0 0 0 1.000000 0 0 0 0 1.000000 0 0 0 1.000000 0"/>
        </filter>
    </defs>
    <g fill="currentColor" fill-rule="evenodd">
        <g>
            <g>
                <g>
                    <g filter="url(#1oqqo0cpaa)" transform="translate(-5 -232) translate(-1 116) translate(0 112) translate(6.154 4)">
                        <g>
                            <g fill="#FFF" fill-rule="nonzero" transform="translate(2 2) translate(.077)">
                                <path d="M16.18 9.02c-1.143 0-2.368-.25-3.417-.75-1.465-.71-2.4-1.79-2.731-3.12-4.269 1.53-5.774-.66-5.847-.76-.27-.42-.145-.97.29-1.24.437-.26.998-.15 1.278.26.364.46 1.807.97 4.663-.38.3-.14.644-.12.924.06s.436.48.426.79c-.073 1.54.955 2.37 1.827 2.79 1.641.79 3.812.69 4.59.07.395-.31.987-.26 1.32.12.332.38.27.95-.125 1.27-.769.59-1.942.89-3.199.89z"/>
                                <path d="M10.385 19.89C4.715 19.89.115 15.45.115 10S4.714.11 10.384.11s10.27 4.44 10.27 9.89-4.6 9.89-10.27 9.89zm0-17.98c-4.632 0-8.402 3.63-8.402 8.09s3.77 8.09 8.402 8.09c4.631 0 8.4-3.63 8.4-8.09s-3.769-8.09-8.4-8.09z"/>
                                <path d="M15.805 11.71c-.072 0-.145-.01-.218-.03-.498-.12-.81-.59-.695-1.08.26-1.07 1.443-3 4.029-2.61.509.08.862.54.779 1.03-.083.49-.561.82-1.07.75-1.423-.22-1.828.9-1.921 1.25-.104.41-.488.69-.904.69z"/>
                                <ellipse cx="4.985" cy="8.85" rx="1.194" ry="1.15"/>
                                <ellipse cx="11.018" cy="11.14" rx="1.194" ry="1.15"/>
                                <path d="M7.228 14.8c-1.89 0-2.866-1.3-3.136-2.07-.167-.47.103-.98.591-1.14.489-.16 1.008.1 1.174.56.093.25.509 1.03 1.817.81.51-.09.997.24 1.08.73.083.49-.249.96-.758 1.04-.27.05-.53.07-.768.07z"/>
                            </g>
                        </g>
                    </g>
                </g>
            </g>
        </g>
    </g>
</svg>
