<svg xmlns="http://www.w3.org/2000/svg" width="24" height="24" viewBox="0 0 24 24">
    <defs>
        <filter id="flq6rd8ofa">
            <feColorMatrix in="SourceGraphic" values="0 0 0 0 1.000000 0 0 0 0 1.000000 0 0 0 0 1.000000 0 0 0 1.000000 0"/>
        </filter>
    </defs>
    <g fill="currentColor" fill-rule="evenodd">
        <g>
            <g>
                <g>
                    <g filter="url(#flq6rd8ofa)" transform="translate(-5 -840) translate(0 812) translate(0 24) translate(5 4)">
                        <g fill="#FFF" fill-rule="nonzero">
                            <path d="M11.84 14.54c-.17 0-.35-.05-.5-.15l-9.1-6.1c-.25-.17-.4-.45-.4-.75s.15-.58.4-.75l9.1-6.1c.3-.2.7-.2 1 0l9.1 6.1c.25.17.4.45.4.75s-.15.58-.4.75l-9.1 6.1c-.15.1-.33.15-.5.15zm-7.49-7l7.48 5.02 7.48-5.02-7.48-5.02-7.48 5.02z" transform="translate(1 2)"/>
                            <path d="M11.83 18.99c-.17 0-.35-.05-.5-.16L5.1 14.61c-.25-.17-.4-.45-.4-.75v-3.44c0-.5.4-.9.9-.9s.9.4.9.9v2.96l5.83 3.95c.41.28.52.84.24 1.25-.16.27-.45.41-.74.41z" transform="translate(1 2)"/>
                            <path d="M11.84 18.99c-.29 0-.58-.14-.75-.4-.28-.41-.16-.97.25-1.25l5.86-3.89v-2.96c0-.5.4-.9.9-.9s.9.4.9.9v3.44c0 .3-.15.58-.4.75l-6.26 4.16c-.16.1-.33.15-.5.15zM11.84 9.29c-.97 0-1.75-.79-1.75-1.75 0-.97.79-1.75 1.75-1.75.97 0 1.75.79 1.75 1.75 0 .97-.79 1.75-1.75 1.75zm0-2c-.14 0-.25.11-.25.25 0 .27.49.27.49 0 0-.13-.11-.25-.24-.25zM2.26 11.58c-.28 0-.5-.22-.5-.5V7.54c0-.28.22-.5.5-.5s.5.22.5.5v3.54c0 .27-.23.5-.5.5z" transform="translate(1 2)"/>
                            <path d="M3.66 15.55l-1.4-.69-1.4.69v-3.07c0-.78.63-1.4 1.4-1.4.78 0 1.4.63 1.4 1.4v3.07z" transform="translate(1 2)"/>
                        </g>
                    </g>
                </g>
            </g>
        </g>
    </g>
</svg>
