<svg xmlns="http://www.w3.org/2000/svg" width="16" height="16" viewBox="0 0 16 16">
    <g fill="none" fill-rule="evenodd">
        <g transform="translate(-24 -460) translate(0 263) translate(24 195) translate(0 2)">
            <path fill="currentColor" d="M14.5 2.5h-13c-.277 0-.5.223-.5.5v10c0 .277.223.5.5.5h13c.277 0 .5-.223.5-.5V3c0-.277-.223-.5-.5-.5zm-1.262 1.702l-4.93 3.835c-.122.096-.292.096-.414 0L2.962 4.202c-.028-.022-.043-.055-.043-.09 0-.062.05-.112.112-.112H13.17c.034 0 .067.016.089.044.037.048.03.119-.02.158z"/>
        </g>
    </g>
</svg>
