<svg xmlns="http://www.w3.org/2000/svg" width="24" height="24" viewBox="0 0 24 24">
    <g fill="none" fill-rule="evenodd">
        <g transform="translate(-224 -735) translate(100 555) translate(32 180) translate(92)">
            <g fill="currentColor" fill-rule="nonzero">
                <path d="M11 1L14.08 6.71 20.46 7.88 15.99 12.57 16.85 19 11 16.2 5.15 19 6.01 12.57 1.54 7.88 7.92 6.71z" transform="translate(1 2)"/>
                <path d="M5.15 20c-.21 0-.41-.06-.59-.19-.3-.22-.45-.58-.4-.94l.8-5.96L.82 8.56c-.25-.27-.34-.65-.23-1 .11-.34.4-.6.77-.67l5.91-1.08L10.13.52C10.3.2 10.63 0 11 0s.71.2.88.52l2.86 5.29 5.91 1.08c.36.07.66.33.77.67.11.35.03.73-.23 1l-4.14 4.35.8 5.96c.05.36-.11.73-.4.94-.3.22-.69.25-1.02.09L11 17.31l-5.42 2.6c-.13.06-.28.09-.43.09zM3.54 8.52l3.2 3.36c.2.22.3.52.26.82l-.61 4.6 4.18-2c.27-.13.59-.13.86 0l4.18 2-.61-4.6c-.04-.3.06-.6.27-.82l3.2-3.36-4.57-.83c-.3-.05-.56-.24-.7-.51L11 3.1 8.8 7.18c-.14.27-.4.45-.7.51l-4.56.83z" transform="translate(1 2)"/>
            </g>
        </g>
    </g>
</svg>
