<?xml version="1.0" encoding="utf-8"?>
<!-- Generator: Adobe Illustrator 25.4.1, SVG Export Plug-In . SVG Version: 6.00 Build 0)  -->
<svg version="1.1" id="圖層_1" xmlns="http://www.w3.org/2000/svg" xmlns:xlink="http://www.w3.org/1999/xlink" x="0px" y="0px"
	 viewBox="0 0 24 24" style="enable-background:new 0 0 24 24;" xml:space="preserve">
<style type="text/css">
	.st0{fill:#AEAEAE;}
</style>
<path class="st0" d="M19.2,14.7l-0.9-1.6c-0.2-0.3-0.3-0.9-0.3-1.3V9.4c0-2.4-1.5-4.5-3.6-5.4C13.8,3.2,13,2.7,12,2.7
	c-1,0-1.8,0.5-2.3,1.3C7.6,4.9,6.1,7,6.1,9.4v2.4c0,0.3-0.2,1-0.3,1.3l-1,1.6c-0.4,0.7-0.5,1.5-0.2,2.2c0.3,0.7,0.8,1.3,1.6,1.5l0,0
	c1,0.3,1.9,0.6,2.9,0.7c0.2,0.4,0.4,0.7,0.6,1c0.6,0.6,1.4,0.9,2.2,0.9c1.3,0,2.4-0.8,2.9-1.9c1-0.2,2-0.4,2.9-0.7
	c0.7-0.2,1.3-0.8,1.6-1.5C19.7,16.2,19.6,15.4,19.2,14.7z M12,19.8c-0.4,0-0.9-0.2-1.2-0.4c0.4,0,0.8,0,1.2,0c0.4,0,0.8,0,1.2,0
	C12.9,19.6,12.5,19.8,12,19.8z M17.8,16.3c-0.1,0.2-0.3,0.4-0.5,0.5c-3.4,1.1-7.1,1.1-10.5,0c-0.3-0.1-0.5-0.3-0.5-0.5
	c-0.1-0.2,0-0.4,0.1-0.7l1-1.6c0.3-0.6,0.6-1.5,0.6-2.2V9.4c0-1.8,1.2-3.3,2.7-3.9c0,0,0.1,0,0.1,0c0.6-0.2,1.2-0.2,1.9-0.1
	c0.2,0,0.4,0.1,0.7,0.1c0,0,0,0,0.1,0c1.6,0.6,2.8,2.1,2.8,3.9v2.4c0,0.7,0.3,1.6,0.6,2.2l1,1.6C17.8,15.8,17.8,16,17.8,16.3z"/>
</svg>
