<svg xmlns="http://www.w3.org/2000/svg" width="24" height="25" viewBox="0 0 24 25">
    <g fill="none" fill-rule="evenodd">
        <g transform="translate(-336 -2216) translate(100 2041) translate(32 176) translate(204)">
            <g fill="currentColor" fill-rule="nonzero">
                <path d="M10 20.39c-5.47 0-9.93-4.45-9.93-9.93C.07 4.98 4.53.54 10 .54s9.93 4.45 9.93 9.93c0 5.48-4.46 9.92-9.93 9.92zm0-17.85c-4.37 0-7.93 3.56-7.93 7.93 0 4.37 3.56 7.93 7.93 7.93 4.37 0 7.93-3.56 7.93-7.93 0-4.37-3.56-7.93-7.93-7.93z" transform="translate(2 1)"/>
                <path d="M13.63 12.46H9.1c-.55 0-1-.45-1-1V6.62c0-.55.45-1 1-1s1 .45 1 1v3.84h3.53c.55 0 1 .45 1 1s-.45 1-1 1zM3.62 21.46c-.22 0-.45-.07-.63-.23-.43-.35-.49-.98-.14-1.41l1.88-2.3c.35-.43.98-.49 1.41-.14.43.35.49.98.14 1.41l-1.88 2.3c-.2.25-.49.37-.78.37zM16.39 21.46c-.29 0-.58-.12-.77-.37l-1.88-2.3c-.35-.43-.29-1.06.14-1.41.43-.35 1.06-.29 1.41.14l1.88 2.3c.35.43.29 1.06-.14 1.41-.2.16-.42.23-.64.23z" transform="translate(2 1)"/>
            </g>
        </g>
    </g>
</svg>
