<svg xmlns="http://www.w3.org/2000/svg" width="24" height="24" viewBox="0 0 24 24">
    <g fill="none" fill-rule="evenodd">
        <g  transform="translate(-24 -489) translate(0 477) translate(24 12)">
            <g fill="currentColor" fill-rule="nonzero" transform="translate(0 1)">
                <path d="M8.44 16.83h-.09C2.04 16.23.93 12.55.74 11c-.19-1.6.3-3.5 1.45-3.89 1.23-.43 5.92-1.21 6.45-1.3.49-.09.95.25 1.03.74.08.49-.25.95-.74 1.03-1.36.23-5.02.87-6.07 1.2-.22.28-.6 1.48-.13 2.85.47 1.35 1.85 3.03 5.8 3.41.49.05.86.49.81.98-.05.46-.44.81-.9.81z"/>
                <path d="M2.48 7.96s3.29.78 3.09 2.3C5.3 12.4.3 11.76 2.48 7.96zM8.7 13.95c-1.2 0-2.03-.28-2.09-.3-.47-.16-.72-.68-.55-1.15.16-.47.67-.72 1.14-.55.05.01 1.8.58 3.65-.24.46-.2.99.01 1.19.46.2.46-.01.99-.46 1.19-1.04.45-2.05.59-2.88.59zM22 13.58c-.04 0-.08 0-.11-.01-.49-.06-.84-.51-.78-1.01.34-2.67.01-6.29-1.92-8.45-1.11-1.24-2.62-1.84-4.51-1.81-4.06.08-5.29 1.99-6.69 4.9-.22.45-.76.63-1.2.42-.46-.22-.65-.75-.43-1.2C7.9 3.24 9.58.59 14.64.5c2.4-.07 4.43.79 5.89 2.41 1.99 2.22 2.88 5.91 2.37 9.88-.06.46-.45.79-.9.79z"/>
                <path d="M16.58 7.26l-2.94-.17c-.56-.03-.99-.51-.96-1.07v-.08c.03-.56.51-.99 1.07-.96l2.94.17c.56.03.99.51.96 1.07v.08c-.03.56-.51.99-1.07.96z"/>
                <circle cx="15.2" cy="9.05" r="1"/>
                <g>
                    <path d="M8.62 1.28c-.79.99-.6 5.17-.65 5.82-.38 4.43-5.74 4.21-6.77 7.97-.35 1.29.27 2.85 1.53 3.3 3.38 1.19 6.08-1 7.38-3.61 1.84-3.73 1.69-9.4-.35-13.05-.14-.25-.31-.51-.58-.61-.23-.08-.42-.01-.56.18z" transform="translate(11 2)"/>
                    <path d="M4.63 19.61c-.7 0-1.43-.12-2.21-.39-1.63-.57-2.59-2.58-2.1-4.38.57-2.08 2.22-3.12 3.67-4.04 1.56-.98 2.9-1.83 3.06-3.77.01-.12.01-.38.01-.73.01-2.8.15-4.72.83-5.58.4-.51.99-.68 1.57-.47.6.22.9.76 1.05 1.01 2.19 3.92 2.35 9.89.37 13.89-1.08 2.25-3.29 4.46-6.25 4.46zM9.11 2.44c-.12.62-.23 1.77-.24 3.87 0 .41 0 .73-.02.88-.24 2.83-2.18 4.05-3.9 5.14-1.35.85-2.52 1.59-2.9 2.99-.24.89.21 1.95.96 2.21 2.95 1.04 5.18-.95 6.27-3.16 1.68-3.37 1.58-8.54-.17-11.93zm-.49-1.16l.71.56-.71-.56z" transform="translate(11 2)"/>
                </g>
                <path d="M6 22.07h-.08c-.5-.04-.86-.48-.82-.97l.46-5.37c.04-.5.48-.87.97-.82.5.04.86.48.82.97l-.46 5.37c-.04.46-.43.82-.89.82z"/>
            </g>
        </g>
    </g>
</svg>
