<svg xmlns="http://www.w3.org/2000/svg" width="24" height="24" viewBox="0 0 24 24">
    <g fill="none" fill-rule="evenodd">
        <g  transform="translate(-24 -441) translate(0 429) translate(24 12)">
            <g fill="currentColor" fill-rule="nonzero">
                <path d="M16.82 16.37c-.5 0-.9-.4-.9-.9 0-.17.01-.37.01-.59.03-.93.08-2.88-.5-3.47-.08-.08-.18-.15-.4-.15-.5 0-.9-.4-.9-.9s.4-.9.9-.9c.67 0 1.25.24 1.69.7 1.11 1.14 1.05 3.33 1.01 4.78-.01.2-.01.39-.01.54 0 .49-.4.89-.9.89z" transform="translate(1 1)"/>
                <path d="M13.23 16.37c-.5 0-.9-.4-.9-.9 0-.13 0-.3-.01-.48-.04-1.87 0-3.79 1.04-4.85.44-.45 1.01-.68 1.66-.68.5 0 .9.4.9.9s-.4.9-.9.9c-.2 0-.3.07-.37.14-.6.61-.55 2.6-.53 3.55 0 .2.01.37.01.52 0 .5-.4.9-.9.9z" transform="translate(1 1)"/>
                <path d="M16.44 14.08h-2.9c-.5 0-.9-.4-.9-.9s.4-.9.9-.9h2.9c.5 0 .9.4.9.9s-.41.9-.9.9zM7.53 13.21c-2.17 0-3.94-1.77-3.94-3.94s1.77-3.94 3.94-3.94 3.94 1.77 3.94 3.94-1.77 3.94-3.94 3.94zm0-6.08c-1.18 0-2.14.96-2.14 2.14 0 1.18.96 2.14 2.14 2.14 1.18 0 2.14-.96 2.14-2.14 0-1.18-.96-2.14-2.14-2.14z" transform="translate(1 1)"/>
                <path d="M10.59 13.49c-.23 0-.46-.09-.64-.26l-2.61-2.61C7 10.27 7 9.7 7.35 9.35c.35-.35.92-.35 1.27 0l2.61 2.61c.35.35.35.92 0 1.27-.18.17-.41.26-.64.26z" transform="translate(1 1)"/>
                <path d="M11 21.66c-1.12 0-2.23-.17-3.28-.51-.47-.15-.73-.66-.58-1.13.15-.47.65-.73 1.13-.58.88.28 1.79.43 2.73.43 2.66 0 5.15-1.18 6.84-3.23 1.3-1.58 2.02-3.58 2.02-5.63 0-4.88-3.97-8.86-8.86-8.86-4.88 0-8.86 3.97-8.86 8.86 0 2.04.71 4.03 2 5.61.31.38.26.95-.13 1.27-.38.31-.95.26-1.27-.13C1.2 15.85.34 13.46.34 11 .34 5.12 5.12.34 11 .34S21.66 5.12 21.66 11c0 2.46-.86 4.87-2.43 6.77-2.03 2.47-5.03 3.89-8.23 3.89z" transform="translate(1 1)"/>
                <path d="M4.07 21.21c-.23 0-.46-.09-.64-.26-.35-.35-.35-.92 0-1.27L6.2 16.9c.35-.35.92-.35 1.27 0s.35.92 0 1.27L4.7 20.94c-.17.18-.4.27-.63.27z" transform="translate(1 1)"/>
            </g>
        </g>
    </g>
</svg>
