<svg width="24" height="24" viewBox="0 0 24 24" xmlns="http://www.w3.org/2000/svg">
    <path d="M3 19.271v-5.1c.004-3.62 3.023-6.554 6.75-6.558h3.621V6.457c0-.59.366-1.12.926-1.346.56-.226 1.206-.1 1.635.316l4.41 4.284a2.142 2.142 0 0 1 0 3.09l-4.41 4.284a1.532 1.532 0 0 1-1.635.316 1.458 1.458 0 0 1-.926-1.346v-1.156H9c-2.484.003-4.497 1.959-4.5 4.372a.74.74 0 0 1-.75.729.74.74 0 0 1-.749-.729zm11.871-10.93a.74.74 0 0 1-.75.729H9.75c-2.898.003-5.246 2.285-5.25 5.1v1.25A6.064 6.064 0 0 1 9 13.442h5.122a.74.74 0 0 1 .75.729v1.884l4.41-4.284a.714.714 0 0 0 0-1.03l-4.41-4.284v1.884z" fill="currentColor" fill-rule="nonzero" stroke="currentColor" stroke-width=".4"/>
</svg>
