<?xml version="1.0" encoding="UTF-8"?>
<svg width="24px" height="24px" viewBox="0 0 24 24" version="1.1" xmlns="http://www.w3.org/2000/svg" xmlns:xlink="http://www.w3.org/1999/xlink">
    <title>1016FFE2-D702-4540-B845-DC67F379FD33</title>
    <defs>
        <filter id="filter-1">
            <feColorMatrix in="SourceGraphic" type="matrix" values="0 0 0 0 1.000000 0 0 0 0 1.000000 0 0 0 0 1.000000 0 0 0 1.000000 0"></feColorMatrix>
        </filter>
    </defs>
    <g id="Page-1" stroke="none" stroke-width="1" fill="none" fill-rule="evenodd">
        <g id="tanji_guidline_Icons" transform="translate(-748.000000, -2161.000000)">
            <g id="Btn-Deco-Copy" transform="translate(100.000000, 2041.000000)">
                <g id="Resume-edit" transform="translate(32.000000, 120.000000)">
                    <g id="Job-form-edit_icon_whenwhere_w" transform="translate(616.000000, 0.000000)" filter="url(#filter-1)">
                        <g transform="translate(2.000000, 2.000000)">
                            <path d="M10,19.16 C6.58542916,19.16 3.50726814,17.1025739 2.2015046,13.9475342 C0.895741067,10.7924945 1.61966638,7.16151674 4.03556337,4.74848219 C6.45146036,2.33544763 10.0832938,1.61582749 13.2367833,2.92533052 C16.3902728,4.23483355 18.4440457,7.31543155 18.440006,10.73 C18.4289852,15.3850932 14.655103,19.154504 10,19.16 Z M10,4.09 C6.33282926,4.09 3.36,7.06282926 3.36,10.73 C3.36,14.3971707 6.33282926,17.37 10,17.37 C13.6671707,17.37 16.64,14.3971707 16.64,10.73 C16.634493,7.06511275 13.6648873,4.09550698 10,4.09 Z" id="Shape" fill="#FFFFFF" fill-rule="nonzero"></path>
                            <path d="M4.85,5.8 C4.61119755,5.7987175 4.38203951,5.70562205 4.21,5.54 L1.83,3.15 C1.5178032,2.79343225 1.5356172,2.25585209 1.87073465,1.92073465 C2.20585209,1.5856172 2.74343225,1.5678032 3.1,1.88 L5.48,4.26 C5.73916172,4.51623124 5.81821526,4.90346401 5.68022488,5.24077382 C5.54223451,5.57808362 5.21444203,5.79887939 4.85,5.8 Z" id="Path" fill="#FFFFFF" fill-rule="nonzero"></path>
                            <path d="M10,11.63 C9.50294373,11.63 9.1,11.2270563 9.1,10.73 L9.1,7.63 C9.1,7.13294373 9.50294373,6.73 10,6.73 C10.4970563,6.73 10.9,7.13294373 10.9,7.63 L10.9,10.73 C10.9,11.2270563 10.4970563,11.63 10,11.63 Z" id="Path" fill="#FFFFFF" fill-rule="nonzero"></path>
                            <path d="M10,11.63 C9.50294373,11.63 9.1,11.2270563 9.1,10.73 L9.1,7.63 C9.1,7.13294373 9.50294373,6.73 10,6.73 C10.4970563,6.73 10.9,7.13294373 10.9,7.63 L10.9,10.73 C10.9,11.2270563 10.4970563,11.63 10,11.63 Z" id="Path" fill="#FFFFFF" fill-rule="nonzero"></path>
                            <path d="M12.19,13.82 C11.9491315,13.8192687 11.7186076,13.7220164 11.55,13.55 L9.36,11.36 C9.01038553,11.0088499 9.01038553,10.4411501 9.36,10.09 C9.71456946,9.73922101 10.2854305,9.73922101 10.64,10.09 L12.83,12.28 C13.0804471,12.5409254 13.1526043,12.9253966 13.0138081,13.2593748 C12.875012,13.593353 12.5516113,13.8134365 12.19,13.82 L12.19,13.82 Z" id="Path" fill="#FFFFFF" fill-rule="nonzero"></path>
                            <path d="M1.1,4.78 C0.738388684,4.77343651 0.41498802,4.55335303 0.276191875,4.21937481 C0.137395731,3.88539658 0.209552909,3.50092543 0.46,3.24 L3.11,0.59 C3.33119502,0.337367652 3.67463311,0.228880456 4.00081472,0.308604326 C4.32699634,0.388328195 4.5816718,0.643003665 4.66139567,0.969185279 C4.74111954,1.29536689 4.63263235,1.63880498 4.38,1.86 L1.74,4.51 C1.57139239,4.68201639 1.34086849,4.77926866 1.1,4.78 L1.1,4.78 Z" id="Path" fill="#FFFFFF" fill-rule="nonzero"></path>
                        </g>
                    </g>
                </g>
            </g>
        </g>
    </g>
</svg>