<svg xmlns="http://www.w3.org/2000/svg" width="24" height="24" viewBox="0 0 24 24">
    <g fill="none" fill-rule="evenodd">
        <g transform="translate(-145 -814) translate(0 806) translate(117) translate(28 8)">
            <g fill="currentColor" fill-rule="nonzero">
                <g transform="translate(7 10)">
                    <circle cx="1.41" cy="1.83" r="1.03"/>
                    <circle cx="8.36" cy="1.83" r="1.03"/>
                </g>
                <path d="M18.19 23.11c-.13 0-.27-.03-.39-.09l-5.92-2.84-5.92 2.84c-.3.14-.65.11-.92-.08s-.41-.52-.36-.85l.87-6.51-4.53-4.75c-.23-.24-.31-.58-.2-.9.1-.31.37-.55.69-.61l6.46-1.18 3.12-5.77c.31-.58 1.27-.58 1.58 0l3.12 5.77 6.46 1.18c.33.06.59.29.69.61.1.31.02.66-.2.9l-4.53 4.75.87 6.51c.04.33-.1.65-.36.85-.16.11-.34.17-.53.17zM3.47 10.8l3.68 3.86c.19.2.28.47.24.74l-.71 5.28 4.81-2.3c.25-.12.53-.12.78 0l4.81 2.3-.71-5.28c-.04-.27.05-.54.24-.74l3.68-3.86-5.24-.96c-.27-.05-.5-.22-.63-.46l-2.53-4.69-2.54 4.69c-.13.24-.36.41-.63.46l-5.25.96z"/>
                <path d="M20.88 4.84h-4.62c-.5 0-.9-.4-.9-.9s.4-.9.9-.9h4.62c.5 0 .9.4.9.9s-.4.9-.9.9z"/>
                <path d="M18.57 7.15c-.5 0-.9-.4-.9-.9V1.63c0-.5.4-.9.9-.9s.9.4.9.9v4.62c0 .5-.4.9-.9.9zM11.88 16.31c-1.95 0-2.82-1.18-3.03-1.88-.14-.48.13-.98.61-1.12.47-.14.96.12 1.11.59.04.11.29.61 1.31.61 1.12 0 1.34-.53 1.36-.59.16-.45.65-.72 1.12-.58.46.14.74.59.62 1.06-.18.7-1.04 1.91-3.1 1.91z"/>
            </g>
        </g>
    </g>
</svg>
