<?xml version="1.0" encoding="utf-8"?>
<!-- Generator: Adobe Illustrator 25.4.1, SVG Export Plug-In . SVG Version: 6.00 Build 0)  -->
<svg version="1.1" id="圖層_1" xmlns="http://www.w3.org/2000/svg" xmlns:xlink="http://www.w3.org/1999/xlink" x="0px" y="0px"
	 viewBox="0 0 24 24" style="enable-background:new 0 0 24 24;" xml:space="preserve">
<style type="text/css">
	.st0{fill:#4E4E4E;}
</style>
<path class="st0" d="M20.5,9.6l-4.4-4.3c-0.5-0.5-1.2-0.6-1.8-0.4c-0.6,0.3-1.1,0.9-1.1,1.5v1H9.7c-3.8,0-6.9,3-6.9,6.8v5.1
	c0,0.5,0.4,0.9,1,0.9s1-0.4,1-0.9c0-2.3,1.9-4.2,4.3-4.2h4.2v1c0,0.7,0.4,1.3,1.1,1.5c0.6,0.3,1.4,0.1,1.8-0.4l4.4-4.3
	c0.5-0.5,0.7-1,0.7-1.7C21.2,10.6,20.9,10,20.5,9.6z M14.1,13.2H9c-1.6,0-3.2,0.6-4.3,1.7v-0.8c0-2.7,2.3-4.9,5-4.9h4.4
	c0.5,0,1-0.4,1-0.9V6.9l4.1,4c0.1,0.1,0.2,0.2,0.2,0.4c0,0.1-0.1,0.3-0.2,0.4l-4.1,4v-1.4C15.1,13.7,14.6,13.2,14.1,13.2z"/>
</svg>
