<?xml version="1.0" encoding="utf-8"?>
<!-- Generator: Adobe Illustrator 25.4.1, SVG Export Plug-In . SVG Version: 6.00 Build 0)  -->
<svg version="1.1" id="圖層_1" xmlns="http://www.w3.org/2000/svg" xmlns:xlink="http://www.w3.org/1999/xlink" x="0px" y="0px"
	 viewBox="0 0 24 24" style="enable-background:new 0 0 24 24;" xml:space="preserve">
<style type="text/css">
	.st0{fill-rule:evenodd;clip-rule:evenodd;fill:#00CD7E;}
	.st1{fill:none;}
</style>
<path class="st0" d="M22.1,10.2l-1.4-1.6c-0.1-0.2-0.3-0.6-0.3-0.8V6.2c0-1.5-1.2-2.7-2.7-2.7h-1.7c-0.2,0-0.6-0.1-0.8-0.3l-1.6-1.4
	c-1-0.8-2.5-0.8-3.5,0L8.7,3.2C8.5,3.4,8.1,3.5,7.9,3.5H6.2c-1.5,0-2.7,1.2-2.7,2.7v1.7c0,0.2-0.1,0.6-0.3,0.8l-1.4,1.6
	c-0.8,1-0.8,2.5,0,3.5l1.4,1.6c0.1,0.2,0.3,0.6,0.3,0.8v1.7c0,1.5,1.2,2.7,2.7,2.7h1.7c0.2,0,0.6,0.1,0.8,0.3l1.6,1.4
	c0.5,0.4,1.1,0.6,1.8,0.6s1.3-0.2,1.8-0.6l1.6-1.4c0.2-0.1,0.6-0.3,0.8-0.3h1.7c1.5,0,2.7-1.2,2.7-2.7v-1.7c0-0.2,0.2-0.6,0.3-0.8
	l1.4-1.6C23,12.8,23,11.2,22.1,10.2z M16.2,10.1L11.3,15c-0.1,0.1-0.3,0.2-0.5,0.2c-0.2,0-0.4-0.1-0.5-0.2l-2.4-2.4
	c-0.3-0.3-0.3-0.8,0-1.1c0.3-0.3,0.8-0.3,1.1,0l1.9,1.9l4.3-4.3c0.3-0.3,0.8-0.3,1.1,0C16.4,9.4,16.4,9.8,16.2,10.1z"/>
<path id="Vector_00000155864664432854443170000003043551773901122710_" class="st1"/>
</svg>
