<svg xmlns="http://www.w3.org/2000/svg" width="24" height="24" viewBox="0 0 24 24">
    <g fill="none" fill-rule="evenodd">
        <g transform="translate(-24 -594) translate(0 582) translate(24 12)">
            <g fill="currentColor" fill-rule="nonzero">
                <path d="M10.27 17.27H5.72c-.43 0-.8-.31-.88-.73l-.47-2.49C2.02 12.74.53 10.23.53 7.53.53 3.41 3.88.06 8 .06c4.12 0 7.47 3.35 7.47 7.47 0 2.71-1.49 5.22-3.84 6.52l-.47 2.49c-.08.42-.45.73-.89.73zm-3.81-1.8h3.06l.41-2.19c.05-.28.24-.52.5-.65 1.96-.93 3.23-2.94 3.23-5.11 0-3.12-2.54-5.67-5.67-5.67S2.32 4.39 2.32 7.52c0 2.17 1.27 4.18 3.23 5.11.26.12.44.36.5.65l.41 2.19z" transform="translate(4 1)"/>
                <path d="M11.64 9.63h-.04c-.53-.03-.95-.54-.95-1.07 0-.07.01-.13.02-.2.11-.52.62-.94 1.15-.86.53.08.9.64.84 1.17-.06.51-.51.96-1.02.96zm.27-1.08h.73-.73zM11.32 7.04c-.33 0-.65-.18-.8-.5-.49-.96-1.45-1.56-2.52-1.56-.5 0-.9-.4-.9-.9s.4-.9.9-.9c1.76 0 3.34.98 4.13 2.55.22.44.04.99-.4 1.21-.14.06-.27.1-.41.1zM9.66 19.71H6.18c-.5 0-.9-.4-.9-.9s.4-.9.9-.9h3.48c.5 0 .9.4.9.9s-.41.9-.9.9z" transform="translate(4 1)"/>
                <path d="M9 21.3H7c-.5 0-.9-.4-.9-.9s.4-.9.9-.9h2c.5 0 .9.4.9.9s-.4.9-.9.9z" transform="translate(4 1)"/>
            </g>
        </g>
    </g>
</svg>
