<svg xmlns="http://www.w3.org/2000/svg" width="24" height="24" viewBox="0 0 24 24">
    <g fill="none" fill-rule="evenodd">
        <g transform="translate(-24 -642) translate(0 630) translate(24 12)">
            <g fill="currentColor" fill-rule="nonzero">
                <path d="M16.71 18.46H1.36c-.5 0-.9-.4-.9-.9V1.08c0-.5.4-.9.9-.9h15.35c.5 0 .9.4.9.9v5.19c0 .5-.4.9-.9.9s-.9-.4-.9-.9V1.98H2.26v14.68h13.55v-3.3c0-.5.4-.9.9-.9s.9.4.9.9v4.2c0 .49-.4.9-.9.9z" transform="translate(2 2)"/>
                <g>
                    <path d="M8.61 21.02L1.36 17.56 1.36 1.78 8.61 5.15z" transform="translate(2 2)"/>
                    <path d="M8.61 21.92c-.13 0-.26-.03-.39-.09L.97 18.37c-.31-.15-.51-.47-.51-.81V1.78c0-.31.16-.59.42-.76.26-.17.59-.19.86-.06l7.25 3.37c.32.15.52.47.52.82v15.87c0 .31-.16.6-.42.76-.15.09-.31.14-.48.14zm-6.35-4.93l5.45 2.6V5.73L2.26 3.2v13.79z" transform="translate(2 2)"/>
                </g>
                <path d="M19.64 11.24h-7.67c-.5 0-.9-.4-.9-.9s.4-.9.9-.9h4.82l-.04-.03c-.41-.28-.51-.85-.22-1.25.29-.41.85-.51 1.25-.22l2.38 1.66c.32.22.46.63.34 1.01s-.46.63-.86.63z" transform="translate(2 2)"/>
            </g>
        </g>
    </g>
</svg>
