<svg xmlns="http://www.w3.org/2000/svg" width="24" height="24" viewBox="0 0 24 24">
    <g fill="none" fill-rule="evenodd">
        <g transform="translate(-504 -917) translate(100 853) translate(32 64) translate(372)">
            <g fill="currentColor" fill-rule="nonzero" transform="translate(1 1)">
                <path d="M11.1 21.25c-.34 0-.65-.19-.8-.49l-1.48-2.92H5.38C2.71 17.84.54 15.67.54 13V5.59C.54 2.92 2.71.75 5.38.75h11.24c2.67 0 4.84 2.17 4.84 4.84V13c0 2.67-2.17 4.84-4.84 4.84h-3.18l-1.54 2.93c-.16.3-.47.48-.8.48zM5.38 2.55c-1.68 0-3.04 1.36-3.04 3.04V13c0 1.68 1.36 3.04 3.04 3.04h3.99c.34 0 .65.19.8.49l.94 1.86.98-1.87c.16-.3.46-.48.8-.48h3.73c1.68 0 3.04-1.36 3.04-3.04V5.59c0-1.68-1.36-3.04-3.04-3.04H5.38z"/>
                <path d="M11 10.16c-.5 0-.9-.4-.9-.9V5.13c0-.5.4-.9.9-.9s.9.4.9.9v4.13c0 .5-.4.9-.9.9z"/>
                <circle cx="11.06" cy="13.23" r="1.1"/>
            </g>
        </g>
    </g>
</svg>
