<svg xmlns="http://www.w3.org/2000/svg" width="24" height="24" viewBox="0 0 24 24">
    <g fill="none" fill-rule="evenodd">
        <g transform="translate(-188 -1925) translate(100 1861) translate(88 64)">
            <g fill="currentColor" fill-rule="nonzero">
                <path d="M18.52 19.04H3.48c-.93 0-1.76-.48-2.23-1.29s-.47-1.77 0-2.57L8.77 2.15C9.24 1.34 10.07.86 11 .86c.93 0 1.76.48 2.23 1.29l7.52 13.03c.47.81.47 1.77 0 2.57-.46.81-1.3 1.29-2.23 1.29zM11 2.66c-.13 0-.47.04-.67.39L2.81 16.08c-.2.35-.07.66 0 .77.07.12.27.39.67.39h15.04c.4 0 .6-.27.67-.39.07-.12.2-.42 0-.77L11.67 3.05c-.2-.35-.54-.39-.67-.39z" transform="translate(1 2)"/>
                <g transform="translate(1 2) translate(9 6)">
                    <path d="M1.94 6.47c-.5 0-.9-.4-.9-.9V1.44c0-.5.4-.9.9-.9s.9.4.9.9v4.13c0 .5-.41.9-.9.9z"/>
                    <circle cx="2" cy="8.53" r="1.1"/>
                </g>
            </g>
        </g>
    </g>
</svg>
