<?xml version="1.0" encoding="utf-8"?>
<!-- Generator: Adobe Illustrator 25.4.1, SVG Export Plug-In . SVG Version: 6.00 Build 0)  -->
<svg version="1.1" id="圖層_1" xmlns="http://www.w3.org/2000/svg" xmlns:xlink="http://www.w3.org/1999/xlink" x="0px" y="0px"
	 viewBox="0 0 24 24" style="enable-background:new 0 0 24 24;" xml:space="preserve">
<style type="text/css">
	.st0{fill:#4E4E4E;}
</style>
<g>
	<path class="st0" d="M11.8,8.2c-2,0-3.6,1.6-3.6,3.6c0,2,1.6,3.6,3.6,3.6s3.6-1.6,3.6-3.6C15.3,9.8,13.7,8.2,11.8,8.2z M11.8,13.6
		c-1,0-1.8-0.8-1.8-1.8c0-1,0.8-1.8,1.8-1.8s1.8,0.8,1.8,1.8C13.6,12.8,12.8,13.6,11.8,13.6z"/>
	<path class="st0" d="M19.2,14.8c0.1-0.2,0.3-0.3,0.6-0.4c1.5,0,2.7-1.2,2.7-2.7c0-1.5-1.2-2.7-2.7-2.7h-0.1c-0.2,0-0.4-0.1-0.5-0.3
		c0-0.1,0-0.1-0.1-0.2C19,8.5,19,8.2,19.3,8C19.8,7.5,20,6.8,20,6.1s-0.3-1.4-0.8-1.9c-1-1-2.7-1-3.8,0c-0.2,0.2-0.4,0.2-0.6,0.1
		c-0.2-0.1-0.3-0.3-0.4-0.6c0-1.5-1.2-2.7-2.7-2.7S9.1,2.3,9.1,3.8v0.1c0,0.2-0.1,0.4-0.3,0.5c-0.1,0-0.1,0-0.2,0.1
		C8.5,4.6,8.2,4.5,8,4.3c-1-1-2.8-1-3.8,0C3.7,4.8,3.4,5.5,3.4,6.2c0,0.7,0.3,1.4,0.8,1.9c0.2,0.2,0.2,0.4,0.1,0.7
		C4.3,9,4.1,9.2,3.8,9.2c-1.5,0-2.7,1.2-2.7,2.7c0,1.5,1.2,2.7,2.7,2.7h0.1c0.2,0,0.4,0.1,0.5,0.4c0.1,0.2,0.1,0.5-0.2,0.7
		c-0.5,0.5-0.8,1.2-0.8,1.9c0,0.7,0.3,1.4,0.8,1.9c1,1,2.7,1.1,3.8,0c0.2-0.2,0.4-0.2,0.7-0.1c0.2,0.1,0.4,0.3,0.4,0.6
		c0,1.5,1.2,2.7,2.7,2.7s2.7-1.2,2.7-2.7v-0.1c0-0.2,0.1-0.4,0.4-0.5c0.2-0.1,0.5,0,0.7,0.2c1,1,2.8,1,3.8,0
		c0.5-0.5,0.8-1.2,0.8-1.9c0-0.7-0.3-1.4-0.8-1.9C19.1,15.3,19.1,15,19.2,14.8C19.2,14.8,19.2,14.8,19.2,14.8z M18.1,16.7
		c0.2,0.2,0.3,0.4,0.3,0.6c0,0.2-0.1,0.5-0.3,0.6c-0.3,0.3-0.9,0.4-1.3-0.1c-0.7-0.7-1.7-0.9-2.6-0.5c-0.9,0.4-1.4,1.2-1.4,2.2v0.2
		c0,0.5-0.4,0.9-0.9,0.9S11,20.3,11,19.8c0,0,0-0.1,0-0.1c0-1-0.6-1.8-1.5-2.1c-0.3-0.1-0.6-0.2-0.9-0.2c-0.6,0-1.2,0.2-1.7,0.7
		c-0.3,0.3-0.9,0.3-1.3,0c-0.2-0.2-0.3-0.4-0.3-0.6c0-0.2,0.1-0.5,0.3-0.7c0.7-0.7,0.9-1.7,0.5-2.6c-0.4-0.9-1.2-1.4-2.2-1.4H3.8
		c-0.5,0-0.9-0.4-0.9-0.9c0-0.5,0.4-0.9,0.9-0.9c0,0,0.1,0,0.1,0c1,0,1.8-0.6,2.1-1.5c0.4-0.9,0.2-1.9-0.5-2.7
		C5.3,6.6,5.2,6.4,5.2,6.2c0-0.2,0.1-0.5,0.3-0.6c0.3-0.3,0.9-0.4,1.3,0.1c0.6,0.6,1.6,0.8,2.4,0.5c0.1,0,0.2,0,0.2-0.1
		c0.9-0.4,1.4-1.2,1.4-2.2V3.8c0-0.5,0.4-0.9,0.9-0.9s0.9,0.4,0.9,1c0,0.9,0.6,1.8,1.4,2.2C15,6.4,16,6.2,16.7,5.5
		c0.3-0.3,0.9-0.3,1.3,0c0.2,0.2,0.3,0.4,0.3,0.6c0,0.2-0.1,0.5-0.3,0.7c-0.6,0.6-0.8,1.6-0.5,2.4c0,0.1,0,0.2,0.1,0.2
		c0.4,0.9,1.2,1.4,2.2,1.4h0.2c0.5,0,0.9,0.4,0.9,0.9s-0.4,0.9-1,0.9c-0.9,0-1.8,0.6-2.2,1.4C17.2,15,17.3,16,18.1,16.7z"/>
</g>
</svg>
