<svg width="30" height="30" viewBox="0 0 30 30" xmlns="http://www.w3.org/2000/svg">
    <g fill-rule="nonzero" fill="none">
        <path d="M8.314 10.12a.895.895 0 0 0-1.194.321.857.857 0 0 0 .316 1.173l1.339.782-.74.413a.846.846 0 0 0-.32 1.173.868.868 0 0 0 1.173.348l1.633-.937L13.286 15l-2.765 1.607-1.655-.921a.868.868 0 0 0-1.173.326.841.841 0 0 0 .343 1.13l.76.435-1.339.782a.857.857 0 0 0-.316 1.173c.238.41.76.552 1.173.322l1.329-.788v.879a.868.868 0 0 0 .852.873.857.857 0 0 0 .873-.852v-1.912l2.764-1.608v3.215l-1.634.964a.864.864 0 1 0 .895 1.479l.76-.434v1.537a.862.862 0 1 0 1.726 0V21.67l.76.434a.857.857 0 1 0 .874-1.474l-1.608-.964v-3.214l2.765 1.607v1.912a.841.841 0 0 0 .873.852.868.868 0 0 0 .814-.878v-.879l1.356.782a.862.862 0 1 0 .851-1.494l-1.339-.783.74-.428a.857.857 0 0 0-.831-1.5l-1.677.921-2.743-1.607 2.51-.975c.314.183.492.286.536.31.329.186.787.186 1.374 0 .393.126 1.529.398 1.73.038.202-.36.455-1.924.143-2.193l-1.803.26 1.334-.783c.413-.234 1.105-.898.872-1.312-.24-.41-1.31-.414-1.724-.182l-1.329.782v-.9a.862.862 0 1 0-1.725 0v1.912l-2.764 1.607v-3.22l1.607-.964a.868.868 0 0 0 .321-1.173.895.895 0 0 0-1.194-.321l-.76.46V6.762a.863.863 0 0 0-1.726 0v1.543l-.723-.461a.862.862 0 0 0-1.173.321.841.841 0 0 0 .3 1.173l1.634.965v3.177l-2.765-1.608V9.96a.863.863 0 0 0-.889-.852.873.873 0 0 0-.857.895v.9l-1.329-.782z" fill="#B6F4FC"/>
        <path d="M15 5.893a.868.868 0 0 1 .852.873v1.538l.755-.461a.884.884 0 0 1 1.195.321.868.868 0 0 1-.322 1.173l-1.607.965v3.177l2.765-1.608V9.96a.862.862 0 1 1 1.725 0v.9l1.355-.782a.868.868 0 0 1 1.178.321.862.862 0 0 1-.326 1.173l-1.334.783.76.412a.879.879 0 0 1 .343 1.173.9.9 0 0 1-.766.456.857.857 0 0 1-.407-.108l-1.687-.894L16.736 15l2.743 1.607 1.676-.921a.938.938 0 0 1 .424-.107.852.852 0 0 1 .385 1.564l-.76.434 1.334.782a.857.857 0 0 1-.424 1.607.9.9 0 0 1-.428-.112l-1.329-.788v.879a.868.868 0 0 1-.852.873h-.037a.841.841 0 0 1-.836-.852v-1.912l-2.764-1.608v3.215l1.607.964a.863.863 0 0 1 .321 1.179.879.879 0 0 1-.744.423.857.857 0 0 1-.45-.129l-.76-.434v1.538a.863.863 0 0 1-1.726 0V21.67l-.723.434a.852.852 0 0 1-.445.128.862.862 0 0 1-.428-1.607l1.634-.964v-3.215l-2.765 1.608v1.912a.857.857 0 0 1-.873.852.868.868 0 0 1-.873-.873v-.879l-1.355.782a.825.825 0 0 1-.413.113.895.895 0 0 1-.76-.434.857.857 0 0 1 .315-1.173l1.34-.783-.734-.428a.863.863 0 0 1 .852-1.5l1.655.921 2.764-1.607-2.764-1.607-1.655.943a.857.857 0 0 1-1.174-.348.846.846 0 0 1 .322-1.174l.76-.412-1.339-.782a.857.857 0 0 1-.316-1.173.884.884 0 0 1 1.195-.321l1.307.819v-.9a.873.873 0 0 1 .857-.895.863.863 0 0 1 .852.852v1.912l2.764 1.608v-3.177l-1.634-.965a.868.868 0 0 1 .445-1.607c.15 0 .297.04.428.113l.761.46V6.762A.873.873 0 0 1 15 5.893m0-1.34a2.213 2.213 0 0 0-2.143 1.843 2.18 2.18 0 0 0-1.773 1.072 2.363 2.363 0 0 0-.177.348 2.218 2.218 0 0 0-2.24.98 2.223 2.223 0 0 0-2.695.98 2.196 2.196 0 0 0 .526 2.781 2.143 2.143 0 0 0 .065 2.095c.065.109.138.213.22.31a2.502 2.502 0 0 0-.22.311c-.3.5-.383 1.099-.23 1.66.038.157.095.308.17.45a2.196 2.196 0 0 0-.53 2.786l.027.043a2.25 2.25 0 0 0 1.907 1.072c.262 0 .521-.047.766-.14a2.186 2.186 0 0 0 2.229.96c.046.124.103.244.171.358a2.143 2.143 0 0 0 1.779 1.072 2.202 2.202 0 0 0 4.35 0 2.223 2.223 0 0 0 1.79-1.072 2.56 2.56 0 0 0 .177-.375 2.4 2.4 0 0 0 .342 0h.07a2.18 2.18 0 0 0 1.8-1.001c.25.095.514.144.782.144a2.202 2.202 0 0 0 1.408-3.905c.07-.134.125-.274.167-.418a2.175 2.175 0 0 0-.188-1.666.22.22 0 0 1 0-.048 2.84 2.84 0 0 0-.209-.29 2.84 2.84 0 0 0 .209-.289v-.048a2.18 2.18 0 0 0 .027-2.062c.354-.29.61-.683.728-1.125a2.218 2.218 0 0 0-.203-1.661.3.3 0 0 1 0-.043 2.202 2.202 0 0 0-2.679-.938A2.191 2.191 0 0 0 19.58 7.72a1.848 1.848 0 0 0-.385.037 2.207 2.207 0 0 0-.161-.343 2.24 2.24 0 0 0-1.805-1.071 2.191 2.191 0 0 0-2.143-1.848L15 4.554zm2.191 6.52.097-.059v.102l-.097.054v-.097zm-4.495.043v-.102l.097.06v.096l-.091-.054h-.006zM19.41 15l.08-.043.086.048-.08.043-.086-.048zm-8.973 0 .085-.048.075.043-.085.048-.075-.043zm6.766 3.921v-.117l.09.053v.123l-.096-.059h.006zm-4.495-.064.091-.053v.117l-.096.06v-.124h.005z" fill="#4E4E4E"/>
    </g>
</svg>
