<svg width="30" height="30" viewBox="0 0 30 30" xmlns="http://www.w3.org/2000/svg">
    <g transform="translate(2.143 3.214)" fill-rule="nonzero" fill="none">
        <path d="M16.607 4.859a7.848 7.848 0 0 0-1.221-.536 4.441 4.441 0 0 0-1.35-.209c-1.634-.037-3.215.536-4.73 1.136-.612.218-1.202.493-1.763.82a10.564 10.564 0 0 0-2.234 2.084 9.766 9.766 0 0 0-2.095 3.096 7.093 7.093 0 0 0-.337 2.298 10.436 10.436 0 0 0 .937 4.58 7.093 7.093 0 0 0 3.215 3.349c.836.38 1.713.666 2.614.852 1.642.44 3.327.703 5.025.782a4.971 4.971 0 0 0 1.73-.236c.429-.155.814-.396 1.243-.563.429-.166 1.04-.257 1.554-.423a7.88 7.88 0 0 0 2.914-2.068 3.3 3.3 0 0 0 .98-1.414c.065-.445.101-.894.107-1.345.158-.666.366-1.32.622-1.955a5.796 5.796 0 0 0 .14-2.19 9.514 9.514 0 0 0-2.224-5.165c-1.345-1.575-3.327-1.956-5.127-2.893z" fill="#FEBB31"/>
        <ellipse fill="#FFF" cx="13.714" cy="15.6" rx="4.168" ry="3.654"/>
        <path d="M3.129 8.154c-.042-.445.078-.89.337-1.254.374-.327.86-.496 1.355-.471A14.175 14.175 0 0 1 6.9 6.47c.091.007.181.025.268.054a.841.841 0 0 1 .412.804A3.075 3.075 0 0 1 6.21 9.77c-.46.343-1.854 1.254-2.47 1.045-.616-.209-.605-2.062-.61-2.662zM24.386 8.802a1.864 1.864 0 0 0-.247-1.275 1.94 1.94 0 0 0-1.344-.563 14.105 14.105 0 0 0-2.074-.096.954.954 0 0 0-.273.032.852.852 0 0 0-.466.771 3.107 3.107 0 0 0 1.2 2.508c.44.37 1.763 1.371 2.39 1.21.626-.16.77-1.993.814-2.587z" fill="#BB8008"/>
        <rect fill="#4E4E4E" transform="rotate(22.48 9.648 10.29)" x="7.556" y="9.059" width="4.184" height="2.464" rx="1.157"/>
        <rect fill="#4E4E4E" transform="rotate(157.52 17.488 10.28)" x="15.396" y="9.049" width="4.184" height="2.464" rx="1.157"/>
        <circle fill="#4E4E4E" cx="9.182" cy="13.152" r="1"/>
        <circle fill="#4E4E4E" cx="18.402" cy="13.152" r="1"/>
        <path d="M13.607 6.932a.67.67 0 0 1-.67-.67c0-3.61-1.37-4.553-1.382-4.558a.675.675 0 0 1-.209-.916.664.664 0 0 1 .9-.252c.204.123 2.03 1.318 2.03 5.71a.67.67 0 0 1-.669.686zM3.552 11.363a.67.67 0 0 1-.648-.499c-.36-1.36-.82-3.75.107-4.543.926-.792 3.214-1.098 4.885-.326a.67.67 0 1 1-.535 1.216c-1.216-.563-2.936-.306-3.456.134-.182.284-.037 1.81.322 3.176a.675.675 0 0 1-.675.841zM23.754 11.963a.67.67 0 0 1-.632-.884c.45-1.345.696-2.856.535-3.172-.466-.455-2.143-.825-3.412-.348a.67.67 0 1 1-.483-1.248c1.71-.66 3.97-.193 4.822.659.852.851.252 3.214-.198 4.537a.675.675 0 0 1-.632.456zM3.493 16.96a.659.659 0 0 1-.434-.16 3.016 3.016 0 0 1-.536-3.996.677.677 0 0 1 1.12.76 1.677 1.677 0 0 0 .29 2.218c.279.243.31.667.069.948a.686.686 0 0 1-.51.23zM5.598 21.38a1.971 1.971 0 0 1-1.312-.584 3.364 3.364 0 0 1-.954-3.289.664.664 0 0 1 .814-.477.67.67 0 0 1 .483.815 2.057 2.057 0 0 0 .562 1.976c.106.12.25.2.407.225a.67.67 0 1 1 0 1.34v-.006zM8.598 23.004a2.877 2.877 0 0 1-2.078-.89.673.673 0 1 1 .98-.921c.319.327.766.498 1.221.466a.672.672 0 0 1 .102 1.34l-.225.005zM23.293 16.96a.686.686 0 0 1-.51-.23.675.675 0 0 1 .07-.948 1.677 1.677 0 0 0 .29-2.218.67.67 0 1 1 1.071-.76 3.016 3.016 0 0 1-.535 3.996.659.659 0 0 1-.386.16zM21.188 21.38a.67.67 0 1 1 0-1.339.696.696 0 0 0 .407-.225c.526-.51.743-1.26.568-1.971a.67.67 0 0 1 1.296-.338 3.364 3.364 0 0 1-.959 3.29 1.971 1.971 0 0 1-1.313.583zM18.214 23.004H18a.67.67 0 0 1-.616-.724.664.664 0 0 1 .718-.616c.444.02.875-.152 1.184-.471a.67.67 0 1 1 .97.921 2.877 2.877 0 0 1-2.042.89zM13.548 24.005a8.24 8.24 0 0 1-3.525-.637.67.67 0 0 1 .643-1.173c1.072.584 4.393.675 5.646 0a.675.675 0 0 1 .638 1.184 7.795 7.795 0 0 1-3.402.626z" fill="#4E4E4E"/>
        <path d="M10.88 5.18a.67.67 0 0 1-.535-1.071 1.72 1.72 0 0 1 1.773-.622.67.67 0 0 1-.332 1.297.38.38 0 0 0-.375.128.659.659 0 0 1-.53.268zM15.986 4.971a.659.659 0 0 1-.584-.337.348.348 0 0 0-.343-.155.675.675 0 0 1-.684-1.042.67.67 0 0 1 .432-.282 1.671 1.671 0 0 1 1.773.81.67.67 0 0 1-.257.91.648.648 0 0 1-.337.096zM12.45 14.287l.107.343c.162.494.622.829 1.141.83.52.002.98-.335 1.136-.83l.107-.343a1.19 1.19 0 0 0-1.136-1.553h-.22a1.19 1.19 0 0 0-1.135 1.553z" fill="#4E4E4E"/>
        <path d="M11.555 16.452a3.67 3.67 0 0 1-.84-.091.67.67 0 0 1 .31-1.302c.064 0 1.532.343 2.052-.777a.671.671 0 1 1 1.216.568 2.877 2.877 0 0 1-2.738 1.602z" fill="#4E4E4E"/>
        <path d="M15.836 16.452a2.882 2.882 0 0 1-2.748-1.607.671.671 0 0 1 1.216-.568c.535 1.12 1.987.787 2.051.777a.67.67 0 0 1 .316 1.301 3.75 3.75 0 0 1-.835.097z" fill="#4E4E4E"/>
        <path d="M13.698 18.841c-1.955 0-2.603-1.977-2.678-3.021a.67.67 0 0 1 1.334-.091c0 .075.144 1.773 1.339 1.773 1.194 0 1.307-1.693 1.307-1.768a.671.671 0 1 1 1.34.086c-.049 1.044-.686 3.021-2.642 3.021z" fill="#4E4E4E"/>
        <path fill="#000" d="m19.238 7.2-5.54 1.136L8.158 7.2V3.937h11.08z"/>
        <path d="M13.698 9.005a.536.536 0 0 1-.134 0L8.036 7.86A.664.664 0 0 1 7.5 7.2V3.937c0-.37.3-.67.67-.67h11.068c.37 0 .67.3.67.67V7.2a.67.67 0 0 1-.537.659l-5.539 1.13a.573.573 0 0 1-.134.016zm-4.87-2.351 4.87.996 4.87-.996V4.607h-9.74v2.047z" fill="#4E4E4E"/>
        <path fill="#000" d="M13.666 5.004 2.38 3 13.725.686l11.293 2.009z"/>
        <path d="M13.666 5.673a.46.46 0 0 1-.118 0L2.261 3.66a.675.675 0 0 1-.536-.654.665.665 0 0 1 .536-.664L13.59.027a.664.664 0 0 1 .252 0l11.293 2.009c.325.042.57.315.578.643a.675.675 0 0 1-.535.664L13.8 5.663a.536.536 0 0 1-.134.01zM5.952 2.952l7.709 1.371 7.784-1.607-7.71-1.35-7.783 1.586z" fill="#4E4E4E"/>
        <path d="M1.136 6.07a.67.67 0 1 1 0-1.34 2.877 2.877 0 0 0 2.732-1.607.67.67 0 1 1 1.243.504A4.216 4.216 0 0 1 1.136 6.07z" fill="#4E4E4E"/>
    </g>
</svg>
