<svg width="30" height="30" viewBox="0 0 30 30" xmlns="http://www.w3.org/2000/svg">
    <g transform="translate(2.143 3.75)" fill-rule="nonzero" fill="none">
        <path d="M8.421 1.409a1.238 1.238 0 1 1 0 2.475h-.07l-.246.937-.251-.053c.906.268 1.639.937 1.987 1.816l1.538.536-.129.675-2.143-.413c-.096 1.393-.423 9.225 2.679 9.225.122 0 .244-.012.364-.037 3.814-.68 1.243-5.234 1.243-5.234a1.329 1.329 0 0 1-1.302-1.28V9.77a1.329 1.329 0 0 1 1.302-1.387h.07l4.82.236a1.329 1.329 0 0 1 1.255 1.44c-.013.256-.1.502-.252.708.42.089.834.2 1.243.332l.096.037 1.184-2.774.696.294-1.189 2.791c.59.35 1.09.833 1.463 1.41h.187c.693 0 1.256.56 1.259 1.253v1.403h-.429c.149.815.201 1.643.156 2.47h-1.184v.177a2.957 2.957 0 0 1-5.893 0 1.034 1.034 0 0 1 0-.129H14.77a.621.621 0 0 0 0-.07H8.796l-.583-.883c.085.308.155.621.208.937l-.198-.08v.209a2.962 2.962 0 1 1-4.934-2.197l-1.8-.734a3.064 3.064 0 0 1 2.963-2.255h.471c.259.033.51.107.745.22l-.102-.161L7.8 7.125l-2.036-.343.075-.412a.863.863 0 0 1-.712-.852c0-.482.39-.873.873-.873a.729.729 0 0 1 .155 0l.054-.295c.484.047.962.148 1.425.3l.337-.873a1.237 1.237 0 0 1 .45-2.39m0-1.339a2.582 2.582 0 0 0-2.576 2.577c-.001.144.011.287.037.429-.24.062-.458.188-.632.364a2.212 2.212 0 0 0-.782 3.675c.04.159.106.31.198.444.21.288.527.48.879.536l.428.07-1.302 3.482h-.22a4.371 4.371 0 0 0-4.258 3.268 1.345 1.345 0 0 0 .798 1.57l.284.112a4.35 4.35 0 0 0-.3 1.57 4.286 4.286 0 0 0 8.438 1.14h4.928c.137.045.28.069.423.07h.922a4.286 4.286 0 0 0 8.276-.07 1.345 1.345 0 0 0 1.324-1.231c.034-.577.025-1.155-.027-1.73a1.34 1.34 0 0 0 .305-.847v-1.393a2.609 2.609 0 0 0-2.084-2.545 6.257 6.257 0 0 0-.535-.535l.776-1.816a1.334 1.334 0 0 0-.685-1.763l-.697-.295a1.302 1.302 0 0 0-.535-.107c-.171 0-.34.033-.499.097-.328.13-.59.387-.728.712l-.22.504c-.032-.049-.07-.091-.107-.14a2.71 2.71 0 0 0-1.88-.91l-4.822-.236h-.155c-.236 0-.47.032-.697.096a1.345 1.345 0 0 0-.878-1.28l-1.002-.364a3.9 3.9 0 0 0-.718-.916A2.571 2.571 0 0 0 8.4.075l.021-.027zm3.365 15.241c-.065 0-.15 0-.295-.155-.712-.76-1.136-3.182-1.109-6.14l.45.086a2.679 2.679 0 0 0-.075.718v.284a2.646 2.646 0 0 0 1.704 2.395c.326.76.584 1.778.337 2.298-.037.091-.171.364-.9.498h-.123l.01.016z" fill="#4E4E4E"/>
        <path d="M22.5 12.83h.45c.695 0 1.259.564 1.259 1.26v1.398H22.5v-2.68.022z" fill="red"/>
        <path fill="#DDD" d="m21.807 8.358.92.393-1.708 4-.92-.392z"/>
        <circle fill="#FCEE21" cx="6" cy="5.523" r="1"/>
        <circle fill="#FFF" cx="5.277" cy="18.139" r="2.218"/>
        <path d="M5.357 21.429a3.214 3.214 0 1 1 0-6.429 3.214 3.214 0 0 1 0 6.429zm0-4.822a1.607 1.607 0 1 0 0 3.214 1.607 1.607 0 0 0 0-3.214z" fill="#000"/>
        <path fill="#CCC" d="m5.416 16.35-.68 1.94.702.331 1.135-1.96z"/>
        <circle fill="#FFF" cx="19.821" cy="18.139" r="2.218"/>
        <path d="M19.821 21.096a2.957 2.957 0 1 1 0-5.914 2.957 2.957 0 0 1 0 5.914zm0-4.435a1.479 1.479 0 1 0 0 2.957 1.479 1.479 0 0 0 0-2.957z" fill="#000"/>
        <path d="m13.591 11.063-.198.273s2.571 4.553-1.248 5.255c-3.82.702-3.038-9.423-3.038-9.423l-1.243-.204-2.298 6.08 3.214 4.913h15.172s.466-5.571-3.429-6.857a10.746 10.746 0 0 0-6.932-.037z" fill="#FF7D00"/>
        <path d="M11.553 10.057v-.311c-.014-.406.15-.8.454-1.085a1.558 1.558 0 0 1 1.143-.413l5.53.259c.413.02.798.2 1.07.498.27.298.403.688.368 1.082-.067.745-.716 1.32-1.5 1.327l-5.529.047c-.826.01-1.51-.614-1.536-1.404z" fill="#000"/>
        <path d="M1.49 15.214a3.075 3.075 0 0 1 3.433-2.228c2.797.321 4.034 5.025 4.034 5.025L1.49 15.214z" fill="#FFB976"/>
        <path d="m9.959 7.5-4.195-.702.445-2.416s3.879.247 3.75 3.118z" fill="#FF7D00"/>
        <path d="M14.764 18.027s-.535-6.14 3.493-5.963c4.029.177 5.695 5.893 5.695 5.893l-9.188.07z" fill="#FFB976"/>
        <path fill="#CCC" d="m7.623 4.698.965-2.486.203.043L8.105 4.8z"/>
        <path d="M7.955 6.541a.568.568 0 0 1 .745-.396l2.679.975-.129.675-2.84-.536a.562.562 0 0 1-.455-.718z" fill="#333134"/>
        <path fill="#000" d="M17.92 15.043h2.582l.182.273-2.646.08zM17.92 15.74h2.582l.182.272-2.646.08zM17.92 16.404h2.582l.182.273-2.646.08z"/>
        <circle fill="#DDD" cx="8.421" cy="2.646" r="1.238"/>
    </g>
</svg>
