<svg width="30" height="30" viewBox="0 0 30 30" xmlns="http://www.w3.org/2000/svg">
    <g fill-rule="nonzero" fill="none">
        <path fill="#FCCFA2" d="M15 4.248 5.095 9.391 15 14.54l9.905-5.148z"/>
        <path fill="#F3B781" d="M24.905 9.391v10.505L15 25.645V14.539z"/>
        <path fill="#E98D43" d="M5.095 9.391v10.505L15 25.645V14.539z"/>
        <path d="m11.614 6.016 9.643 5.014c.154.08.251.24.252.413v3.67a.825.825 0 0 1-.434.728l-.836.455a.83.83 0 0 1-1.227-.728v-2.802a.445.445 0 0 0-.235-.391l-9.729-5.03 2.566-1.329z" fill="#F2F2F2"/>
        <path d="M19.023 12.766v3.541a.391.391 0 0 0 .579.343l1.607-.868a.616.616 0 0 0 .321-.536v-3.803a.46.46 0 0 0-.075-.252l-2.512 1.307a.44.44 0 0 1 .08.268z" fill="#D9D9D9"/>
        <path d="m15 4.248 9.905 5.143v10.505L15 25.645l-9.905-5.749V9.391L15 4.248m0-1.34a1.307 1.307 0 0 0-.616.15l-9.91 5.15A1.34 1.34 0 0 0 3.75 9.39v10.505c0 .478.255.92.67 1.158l9.91 5.732c.414.242.926.242 1.34 0l9.91-5.732c.415-.238.67-.68.67-1.158V9.391a1.34 1.34 0 0 0-.718-1.184L15.616 3.06c-.19-.1-.401-.151-.616-.15z" fill="#4E4E4E"/>
    </g>
</svg>
