<svg width="30" height="30" viewBox="0 0 30 30" xmlns="http://www.w3.org/2000/svg">
    <g transform="translate(3.214 3.214)" fill-rule="nonzero" fill="none">
        <path d="M15 4.409c-.392-.21-.8-.39-1.221-.536a4.821 4.821 0 0 0-1.35-.209c-1.634-.032-3.215.536-4.73 1.141-.613.215-1.203.487-1.763.815a10.564 10.564 0 0 0-2.234 2.084 9.766 9.766 0 0 0-2.095 3.117 7.093 7.093 0 0 0-.337 2.299c-.043 1.569.27 3.128.916 4.559A7.093 7.093 0 0 0 5.4 21.027c.843.384 1.727.67 2.636.852 1.642.44 3.326.703 5.025.782a4.971 4.971 0 0 0 1.73-.236c.429-.15.814-.396 1.243-.536.428-.139 1.04-.262 1.553-.428a7.763 7.763 0 0 0 2.925-2.063 3.3 3.3 0 0 0 .98-1.414c.064-.456.096-.916.097-1.377.158-.666.366-1.32.622-1.955a5.796 5.796 0 0 0 .139-2.191 9.514 9.514 0 0 0-2.223-5.165C18.782 5.726 16.8 5.357 15 4.41z" fill="#FEBB31"/>
        <circle fill="#FFF" cx="12.107" cy="13.152" r="2.55"/>
        <ellipse fill="#FFF" cx="12.107" cy="14.277" rx="4.168" ry="3.654"/>
        <path d="M3.434 5.229c.069-.443.297-.845.643-1.13a1.918 1.918 0 0 1 1.457-.113c.677.14 1.343.33 1.993.568.088.028.171.07.246.123.232.229.31.572.198.878a3.107 3.107 0 0 1-1.944 2.02c-.536.209-2.116.74-2.679.38-.562-.359-.064-2.153.086-2.726zM20.454 5.229a1.832 1.832 0 0 0-.633-1.13 1.918 1.918 0 0 0-1.457-.113c-.677.14-1.343.33-1.993.568a.884.884 0 0 0-.246.123.836.836 0 0 0-.198.878 3.107 3.107 0 0 0 1.944 2.02c.536.209 2.117.74 2.679.38.563-.359.054-2.153-.096-2.726z" fill="#BB8008"/>
        <path d="M10.768 16.49a1.87 1.87 0 0 1-1.195-.43 2.062 2.062 0 0 1-.375-2.678.67.67 0 1 1 1.11.755.74.74 0 0 0 .128.895.498.498 0 0 0 .535.054.755.755 0 0 0 .252-.348c.103-.303.163-.619.177-.938a.67.67 0 0 1 1.334.134c-.026.443-.116.88-.268 1.296a2.036 2.036 0 0 1-.755.975c-.281.183-.608.281-.943.284z" fill="#4E4E4E"/>
        <path d="M13.425 16.49a1.741 1.741 0 0 1-.959-.28 2.009 2.009 0 0 1-.76-.974 4.586 4.586 0 0 1-.268-1.297.67.67 0 0 1 1.333-.134c.015.32.074.635.177.938a.755.755 0 0 0 .252.348.498.498 0 0 0 .536-.053.74.74 0 0 0 .128-.895.68.68 0 1 1 1.136-.75c.56.861.4 2.004-.375 2.678a1.859 1.859 0 0 1-1.2.418z" fill="#4E4E4E"/>
        <rect fill="#4E4E4E" transform="rotate(22.48 8.043 8.966)" x="5.951" y="7.734" width="4.184" height="2.464" rx="1.157"/>
        <rect fill="#4E4E4E" transform="rotate(157.52 15.877 8.964)" x="13.785" y="7.732" width="4.184" height="2.464" rx="1.157"/>
        <circle fill="#4E4E4E" cx="7.575" cy="11.834" r="1"/>
        <circle fill="#4E4E4E" cx="16.795" cy="11.834" r="1"/>
        <path d="M12 6.482a.67.67 0 0 1-.67-.67c0-3.61-1.371-4.548-1.382-4.558A.675.675 0 0 1 9.74.338a.648.648 0 0 1 .895-.23c.209.117 2.036 1.312 2.036 5.704a.664.664 0 0 1-.67.67zM3.214 8.459a.67.67 0 0 1-.67-.67c0-1.409.161-3.84 1.26-4.366 1.098-.525 3.39-.24 4.821.927a.672.672 0 0 1-.89 1.007c-1.028-.852-2.753-1.04-3.374-.745-.247.226-.493 1.736-.493 3.156a.67.67 0 0 1-.654.69zM20.652 8.459a.67.67 0 0 1-.67-.67c0-1.42-.252-2.93-.536-3.171-.589-.279-2.314-.091-3.348.76a.67.67 0 1 1-.852-1.028c1.41-1.168 3.702-1.452 4.822-.927 1.12.525 1.259 2.957 1.259 4.366 0 .37-.3.67-.67.67h-.005zM1.57 11.716a.67.67 0 0 1-.654-.536 2.604 2.604 0 0 1 .771-2.448.67.67 0 0 1 .906.986c-.32.301-.461.748-.37 1.178a.675.675 0 0 1-.535.804.664.664 0 0 1-.118.016zM1.886 16.51a.686.686 0 0 1-.44-.16 3.021 3.021 0 0 1-.508-3.996.67.67 0 0 1 1.103.76 1.704 1.704 0 0 0 .284 2.24.67.67 0 0 1-.44 1.173v-.016zM3.991 20.93a1.96 1.96 0 0 1-1.312-.573 3.364 3.364 0 0 1-.954-3.29.664.664 0 0 1 .809-.46c.358.095.574.46.482.82-.175.71.041 1.459.568 1.966.108.116.25.195.407.225a.67.67 0 0 1 0 1.34v-.028zM6.991 22.559a2.882 2.882 0 0 1-2.079-.895.673.673 0 0 1 .98-.921c.316.33.762.502 1.217.471a.67.67 0 0 1 .102 1.334l-.22.01zM22.002 11.716a.664.664 0 0 1-.145 0 .675.675 0 0 1-.509-.803 1.259 1.259 0 0 0-.37-1.18.67.67 0 0 1 .906-.985c.673.626.966 1.56.771 2.46a.67.67 0 0 1-.653.508zM21.686 16.51a.67.67 0 0 1-.44-1.173 1.704 1.704 0 0 0 .284-2.239.67.67 0 0 1 1.104-.76 3.021 3.021 0 0 1-.536 3.996.686.686 0 0 1-.412.177zM19.58 20.93a.67.67 0 0 1 0-1.339.745.745 0 0 0 .408-.225 2.046 2.046 0 0 0 .567-1.966.67.67 0 0 1 1.297-.343 3.364 3.364 0 0 1-.96 3.3 1.96 1.96 0 0 1-1.312.573zM16.607 22.559h-.214a.67.67 0 0 1 .102-1.334c.445.018.877-.158 1.184-.482a.67.67 0 0 1 .975.921 2.882 2.882 0 0 1-2.047.895zM11.941 23.571a8.24 8.24 0 0 1-3.525-.637.67.67 0 0 1 .643-1.173c1.071.584 4.393.675 5.646 0a.67.67 0 1 1 .638 1.178 7.795 7.795 0 0 1-3.402.632z" fill="#4E4E4E"/>
        <path d="M9.273 4.73a.664.664 0 0 1-.535-1.071 1.693 1.693 0 0 1 1.767-.621.67.67 0 1 1-.326 1.296.396.396 0 0 0-.375.129.659.659 0 0 1-.53.267zM14.379 4.527a.664.664 0 0 1-.584-.343.348.348 0 0 0-.343-.155.67.67 0 1 1-.263-1.313 1.677 1.677 0 0 1 1.774.809.67.67 0 0 1-.584 1.002zM10.843 12.97l.107.337c.159.496.62.832 1.141.83.52.003.98-.334 1.136-.83l.107-.337a1.195 1.195 0 0 0-1.136-1.56h-.22a1.195 1.195 0 0 0-1.135 1.56z" fill="#4E4E4E"/>
    </g>
</svg>
