<svg xmlns="http://www.w3.org/2000/svg" width="24" height="24" viewBox="0 0 24 24">
    <defs>
        <filter id="02dfxtshra">
            <feColorMatrix in="SourceGraphic" values="0 0 0 0 0.000000 0 0 0 0 0.692708 0 0 0 0 0.425563 0 0 0 1.000000 0"/>
        </filter>
    </defs>
    <g fill="none" fill-rule="evenodd">
        <g>
            <g>
                <g>
                    <g>
                        <g>
                            <path d="M0 0H24V24H0z" transform="translate(-336 -327) translate(100 157) translate(0 82) translate(32 32) translate(204 56)"/>
                            <g fill-rule="nonzero" transform="translate(-336 -327) translate(100 157) translate(0 82) translate(32 32) translate(204 56) translate(0 1)">
                                <circle cx="10.91" cy="11.12" r="7.14" fill="#FDE96F"/>
                                <g fill="#00BB73" filter="url(#02dfxtshra)">
                                    <g>
                                        <path d="M4.49 21.84c-.24 0-.47-.09-.64-.27-.23-.23-.31-.57-.23-.88l.92-3.27c.14-.48.63-.76 1.11-.62.48.14.76.63.62 1.11l-.49 1.74 2.62-.71c.48-.13.97.15 1.1.63.13.48-.15.97-.63 1.1l-4.15 1.12c-.07.04-.15.05-.23.05z"/>
                                        <path d="M12 20.42c-.5 0-.9-.4-.9-.9s.4-.9.9-.9c5.36 0 9.71-3.74 9.71-8.33S17.36 1.96 12 1.96c-5.36 0-9.72 3.74-9.72 8.33 0 2.56 1.35 4.94 3.7 6.54.41.28.52.84.24 1.25-.28.41-.84.52-1.25.24C2.12 16.39.48 13.46.48 10.29.49 4.71 5.65.16 12 .16S23.51 4.7 23.51 10.29c0 5.59-5.16 10.13-11.51 10.13z"/>
                                    </g>
                                    <g>
                                        <path d="M9.54 1.96H1.73c-.5 0-.9-.4-.9-.9s.4-.9.9-.9h7.81c.5 0 .9.4.9.9s-.4.9-.9.9zM16.12 1.96h-3.13c-.5 0-.9-.4-.9-.9s.4-.9.9-.9h3.13c.5 0 .9.4.9.9s-.4.9-.9.9zM14.55 4.97H6.27c-.5 0-.9-.4-.9-.9s.4-.9.9-.9h8.28c.5 0 .9.4.9.9s-.4.9-.9.9z" transform="translate(3 9)"/>
                                    </g>
                                </g>
                            </g>
                        </g>
                    </g>
                </g>
            </g>
        </g>
    </g>
</svg>
