<svg xmlns="http://www.w3.org/2000/svg" width="24" height="24" viewBox="0 0 24 24">
    <g fill="none" fill-rule="evenodd">
        <path d="M0 0H24V24H0z" transform="translate(-44 -814) translate(0 806) translate(16) translate(28 8)"/>
        <g fill-rule="nonzero" transform="translate(-44 -814) translate(0 806) translate(16) translate(28 8) translate(0 1)">
            <path fill="#FDE96F" d="M14.93 8.03s7.2-1.59 7.56 1.31c.36 2.9-2.51 9.56-8.64 9.56-5.25.59-6.76-6.4-5.77-5.85h3.85l-.29-4.07 3.29-.95z"/>
            <circle cx="12.87" cy="8.44" r="4.75" fill="#FDE96F"/>
            <g fill="#00BB73">
                <path d="M6.64 8.9c-.46 0-.85-.35-.9-.82-.3-3.29 1.66-6.22 4.65-6.96 1.76-.44 3.66-.11 5.08.87 1.95 1.35 3 3.76 2.67 6.13-.07.49-.52.84-1.01.77-.49-.07-.84-.52-.77-1.01.23-1.68-.54-3.46-1.92-4.41-1-.69-2.36-.92-3.62-.6-2.15.53-3.51 2.61-3.29 5.05.05.49-.32.93-.81.98h-.08z"/>
                <path d="M14.91 8.19c-.48 0-.87-.37-.9-.85-.12-2.2-1.69-2.18-1.87-2.18-.49.03-.92-.36-.94-.86-.02-.5.36-.92.86-.94.98-.06 3.57.57 3.74 3.88.03.5-.35.92-.85.95h-.04z"/>
                <path d="M12.46 14.68c-.18 0-.36 0-.54-.01C6.6 14.49 1 12.96.48 9.98c-.13-.75.04-1.43.48-1.97.94-1.13 2.81-1.19 3.02-1.19.52.04.91.4.92.9.01.5-.39.9-.89.91-.4.01-1.33.15-1.66.54-.07.08-.14.22-.09.51.24 1.39 4.2 3.01 9.71 3.21 5.5.16 9.64-2.09 9.79-3.37.03-.22-.98-.73-2.1-.89-.49-.07-.83-.53-.76-1.02.07-.49.53-.83 1.02-.76 1.8.26 3.83 1.18 3.63 2.89-.32 2.65-5.53 4.94-11.09 4.94z"/>
                <path d="M11.74 21.07C1.24 21.07.47 9.99.47 9.88c-.03-.5.35-.92.85-.95.49-.05.92.35.95.84.02.39.68 9.5 9.47 9.5 9.11 0 9.98-9.33 10.01-9.73.04-.49.47-.87.97-.82.5.04.86.47.83.97-.01.11-1.02 11.38-11.81 11.38z"/>
            </g>
        </g>
    </g>
</svg>
