<svg width="30" height="30" viewBox="0 0 30 30" xmlns="http://www.w3.org/2000/svg">
    <g transform="translate(2.679 3.75)" fill-rule="nonzero" fill="none">
        <path d="M13.473 4.543a7.998 7.998 0 0 0-3.53.632 4.12 4.12 0 0 0-2.314 2.63 3.52 3.52 0 0 1-.375 1.227 2.32 2.32 0 0 1-1.56.734l-2.142.391c-.847.155-1.79.37-2.256 1.072-.142.24-.244.502-.3.776a5.245 5.245 0 0 0 .445 3.568 6.466 6.466 0 0 0 3.38 2.93c1.431.527 2.95.773 4.474.724a18.075 18.075 0 0 0 7.151-1.452 6.696 6.696 0 0 0 1.608-.921 8.33 8.33 0 0 0 1.028-1.072c.465-.5.888-1.037 1.264-1.607 1.152-1.886 1.233-4.323.793-6.429-.418-2.014-1.746-2.067-3.466-2.56a15.895 15.895 0 0 0-4.2-.643z" fill="#FFF"/>
        <path d="M13.757 4.136s-5.234 2.909-2.614 7.5c2.62 4.59 9.643 1.934 9.643 1.934s1.907-9.563-7.029-9.434z" fill="#FFF0DD"/>
        <rect fill="#4E4E4E" transform="rotate(157.52 14.029 8.698)" x="11.827" y="7.401" width="4.404" height="2.593" rx="1.157"/>
        <circle fill="#4E4E4E" cx="14.057" cy="11.834" r="1"/>
        <path d="M6.504 9.954a.675.675 0 0 1-.61-.97c1.461-2.888 3.438-4.66 5.892-5.277 4.12-1.04 7.998 1.607 8.164 1.73a.672.672 0 0 1-.766 1.104c-.038-.027-3.557-2.427-7.082-1.532-2.047.536-3.75 2.057-5.01 4.58a.67.67 0 0 1-.588.365z" fill="#4E4E4E"/>
        <path d="M1.693 11.454a.67.67 0 0 1-.172-1.318l6.852-1.773a.67.67 0 1 1 .338 1.28l-6.852 1.79a.59.59 0 0 1-.166.02zM8.384 19.575c-.482 0-.927 0-1.329-.037-2.266-.124-3.99-.88-5.121-2.25C.166 15.15.536 12.32.536 12.214a.675.675 0 0 1 1.198-.317c.108.14.155.318.13.494 0 .043-.289 2.379 1.098 4.05.884 1.072 2.283 1.66 4.158 1.763 2.85.15 8.121-.091 11.357-3.424.894-.926 1.778-2.325 1.607-3.214a.67.67 0 1 1 1.312-.268c.38 1.897-1.553 4.013-1.95 4.42-3.134 3.225-7.859 3.857-11.062 3.857z" fill="#4E4E4E"/>
        <path d="M2.679 12.45s1.548-1.221 3.01-.637c1.463.583-.637 4.055-2.352 2.801-1.001-.723-.658-2.164-.658-2.164z" fill="#D78010"/>
        <path d="M8.54 17.754a.67.67 0 0 1-.097-1.334 2.968 2.968 0 0 0 1.736-.965c.265-.396.35-.887.235-1.35a.675.675 0 0 1 .536-.782.67.67 0 0 1 .777.536 3.016 3.016 0 0 1-.472 2.379 4.334 4.334 0 0 1-2.635 1.505l-.08.01z" fill="#4E4E4E"/>
        <path d="M22.371 5.957a2.871 2.871 0 0 1 1.318 2.93c-.289 1.506-1.778 2.68-1.65 4.222.084.58.308 1.133.654 1.607.52.734.992 1.5 1.414 2.293.43.807.52 1.751.252 2.625-.161.41-.416.777-.745 1.071a3.777 3.777 0 0 1-4.355.408 4.329 4.329 0 0 1-2.004-3.97c.124-1.838 1.324-3.44 1.608-5.26.07-.984.07-1.97 0-2.953 0-.83.064-2.325.717-2.951.654-.627 2.047-.461 2.791-.022z" fill="#9E5D1E"/>
        <path d="M21.188 22.296a4.436 4.436 0 0 1-2.25-.605 4.998 4.998 0 0 1-2.33-4.586 9.643 9.643 0 0 1 .862-3.016c.33-.736.569-1.51.712-2.303.067-.614.078-1.233.032-1.848 0-.333-.032-.665-.032-.997 0-1.714.3-2.84.922-3.434.996-.959 2.742-.643 3.605-.123a3.509 3.509 0 0 1 1.607 3.632 6.375 6.375 0 0 1-.9 2.041c-.38.729-.766 1.345-.712 1.993.077.47.26.918.535 1.307.145.225.295.445.445.67a11.41 11.41 0 0 1 1.028 1.703c.51.968.608 2.099.274 3.14a3.509 3.509 0 0 1-.879 1.334 4.286 4.286 0 0 1-2.92 1.092zm-.349-16.071a1.163 1.163 0 0 0-.803.246c-.156.15-.536.686-.536 2.47 0 .31 0 .621.027.938.055.703.04 1.41-.043 2.11-.164.9-.44 1.777-.82 2.61a8.571 8.571 0 0 0-.766 2.597 3.637 3.637 0 0 0 1.698 3.343c1.134.658 2.56.53 3.558-.321.253-.224.449-.505.573-.82a2.871 2.871 0 0 0-.23-2.105 10.768 10.768 0 0 0-.922-1.51 32.41 32.41 0 0 1-.471-.708 4.286 4.286 0 0 1-.756-1.912c-.09-1.072.45-1.983.922-2.786a5.357 5.357 0 0 0 .739-1.607 2.196 2.196 0 0 0-1.002-2.234 2.496 2.496 0 0 0-1.168-.311zM10.409 6.862a.67.67 0 1 1 0-1.339.536.536 0 0 0 .455-.359.836.836 0 0 0-.08-.851c-.214-.236-.841-.247-1.398-.258-1.007 0-2.529-.042-2.738-1.687-.098-.6.124-1.21.584-1.607a3.273 3.273 0 0 1 2.813-.434.671.671 0 0 1-.402 1.28c-.524-.16-1.091-.1-1.57.166a.391.391 0 0 0-.123.407c.048.391.22.493 1.425.536.83 0 1.768.032 2.373.702a2.17 2.17 0 0 1 .316 2.282 1.821 1.821 0 0 1-1.655 1.157v.005z" fill="#4E4E4E"/>
    </g>
</svg>
