<svg xmlns="http://www.w3.org/2000/svg" width="30" height="30" viewBox="0 0 30 30">
    <g fill="none" fill-rule="evenodd">
        <g>
            <g>
                <path fill="#FFF" d="M8.571 6.964H21.43c1.775 0 3.214 1.44 3.214 3.215V26.25H5.357V10.179c0-1.776 1.44-3.215 3.214-3.215z" transform="translate(-69.000000, -140.000000) translate(69.000000, 140.000000)"/>
                <g stroke-linecap="round" stroke-linejoin="round">
                    <path stroke="#4E4E4E" stroke-width="1.339" d="M17.454 22.468H.504V5.528c0-1.205.969-2.187 2.175-2.201H17.79c1.214.003 2.197.988 2.197 2.202v16.939h-2.534M.504 7.366L10.125 12.686M19.988 7.366L10.366 12.686M8.239 15.879L12.048 15.879" transform="translate(-69.000000, -140.000000) translate(69.000000, 140.000000) translate(4.821429, 3.750000)"/>
                    <path fill="#00CD7E" fill-rule="nonzero" stroke="#4E4E4E" stroke-width="1.339" d="M17.18 0.525L3.311 0.525 3.311 8.823 10.13 12.686 17.18 8.823z" transform="translate(-69.000000, -140.000000) translate(69.000000, 140.000000) translate(4.821429, 3.750000)"/>
                    <path stroke="#FFF" stroke-width="1.071" d="M5.952 3.675L10.779 3.675M5.952 5.898L14.657 5.898M5.952 8.116L14.657 8.116" transform="translate(-69.000000, -140.000000) translate(69.000000, 140.000000) translate(4.821429, 3.750000)"/>
                </g>
            </g>
        </g>
    </g>
</svg>
