<svg width="30" height="30" viewBox="0 0 30 30" xmlns="http://www.w3.org/2000/svg">
    <g fill-rule="nonzero" fill="none">
        <path d="M15.07 4.077c3.492 2.475 2.759 5.512 2.442 6.284-.316.771-.664 2.089.804 3.487 0-1.816.488-2.898 2.025-3.873a2.914 2.914 0 0 0-.348 2.545c.386 1.125 2.512 2.678 2.512 5.935-.005 6.563-5.448 7.468-7.146 7.468h-.488A8.09 8.09 0 0 1 7.5 18.177c0-3.75 2.384-6.31 5.17-8.17 3.032-2.02 2.962-4.468 2.405-5.93m-.005-1.34a1.329 1.329 0 0 0-.82.28 1.345 1.345 0 0 0-.434 1.537c.354.916.568 2.678-1.896 4.339-3.825 2.55-5.765 5.673-5.765 9.284a9.407 9.407 0 0 0 9.177 9.085c2.936 0 8.486-1.837 8.486-8.807A8.973 8.973 0 0 0 21.76 12.9a5.812 5.812 0 0 1-.536-.814 1.607 1.607 0 0 1 .204-1.318v-.027a1.318 1.318 0 0 0-1.072-2.116c-.221-.001-.44.05-.637.15l-.14.08c-.166.107-.326.22-.476.332.123-1.816-.536-4.248-3.279-6.203a1.334 1.334 0 0 0-.777-.247h.022z" fill="#4E4E4E"/>
        <path d="M10.96 4.821a2.143 2.143 0 0 1 1.608 2.54c-.21 1.21-2.352 1.976-1.988 3.166-1.001-.782-1.039-1.543-.766-2.025.402-.713 1.195-1.265 1.436-2.191a1.575 1.575 0 0 0-.29-1.49m0-1.339a1.345 1.345 0 0 0-1.006 2.229.364.364 0 0 1 0 .268 2.571 2.571 0 0 1-.59.889 6.3 6.3 0 0 0-.718.975c-.535.921-.535 2.453 1.115 3.75.234.183.522.283.82.284a1.345 1.345 0 0 0 1.323-1.548c.166-.19.345-.37.535-.536a4.045 4.045 0 0 0 1.447-2.186 3.471 3.471 0 0 0-2.604-4.066 1.323 1.323 0 0 0-.321-.043v-.016z" fill="#4E4E4E"/>
        <path d="M15.359 25.923c1.698 0 7.141-.905 7.141-7.468 0-3.214-2.143-4.821-2.513-5.935-.277-.86-.14-1.8.37-2.545-1.537.975-2.025 2.057-2.025 3.873-1.468-1.398-1.12-2.721-.803-3.487.316-.766 1.071-3.81-2.443-6.284.535 1.462.626 3.91-2.406 5.93-2.801 1.86-5.18 4.457-5.18 8.17 0 3.712 3.37 7.746 7.859 7.746z" fill="#FF4A00"/>
        <path d="M10.96 4.821a2.143 2.143 0 0 1 1.608 2.54c-.21 1.21-2.352 1.976-1.988 3.166-1.001-.782-1.039-1.543-.766-2.025.402-.713 1.195-1.265 1.436-2.191a1.575 1.575 0 0 0-.29-1.49z" fill="#FF4A00"/>
        <path d="M14.095 12.209c-2.915 3.664.809 8.571 3.316 7.853 1.43-.423 1.987-2.582 1.393-3.353 1.221.734 1.987 2.55 1.639 4.645-.348 2.094-2.523 4.57-5.084 4.57-2.56 0-4.929-2.197-5.282-4.399-1.115-7.06 4.018-9.316 4.018-9.316z" fill="#F90"/>
        <path d="M12.102 19.537c-.263 1.886-.348 5.165 3.257 6.386 1.768-.627 3.359-2.544 3.305-4.468A3.129 3.129 0 0 1 15 22.993c-2.427-.68-2.898-3.456-2.898-3.456z" fill="#FFF18B"/>
    </g>
</svg>
