<svg xmlns="http://www.w3.org/2000/svg" width="24" height="24" viewBox="0 0 24 24">
    <g fill="none" fill-rule="evenodd">
        <g transform="translate(-245 -814) translate(0 806) translate(217) translate(28 8)">
            <circle cx="6.87" cy="11.47" r="1.28" fill="currentColor"/>
            <circle cx="12.24" cy="11.47" r="1.28" fill="currentColor"/>
            <circle cx="17.62" cy="11.47" r="1.28" fill="currentColor"/>
            <path d="M0 0H24V24H0z"/>
            <g>
                <g fill="currentColor" fill-rule="nonzero">
                    <path d="M4.49 21.84c-.24 0-.47-.09-.64-.27-.23-.23-.31-.57-.23-.88l.92-3.27c.14-.48.63-.76 1.11-.62.48.14.76.63.62 1.11l-.49 1.74 2.62-.71c.48-.13.97.15 1.1.64.13.48-.16.97-.64 1.1L4.71 21.8c-.06.03-.14.04-.22.04z" transform="translate(0 1)"/>
                    <path d="M12 20.42c-.5 0-.9-.4-.9-.9s.4-.9.9-.9c5.36 0 9.71-3.74 9.71-8.33S17.36 1.96 12 1.96c-5.36 0-9.72 3.74-9.72 8.33 0 2.56 1.35 4.94 3.7 6.54.41.28.52.84.24 1.25-.28.41-.84.52-1.25.24C2.12 16.39.48 13.46.48 10.29.49 4.71 5.65.16 12 .16S23.51 4.7 23.51 10.29c0 5.59-5.16 10.13-11.51 10.13z" transform="translate(0 1)"/>
                </g>
            </g>
        </g>
    </g>
</svg>
