<svg width="30" height="30" viewBox="0 0 30 30" xmlns="http://www.w3.org/2000/svg">
    <g transform="translate(2.143 2.143)" fill="none" fill-rule="evenodd">
        <path d="m12.975 1.655 1.184 2.213a9.348 9.348 0 0 0-2.604 0l1.302-2.432.118.22zM20.893 12.857a7.983 7.983 0 0 1-.605 3.07 8.004 8.004 0 0 1-7.43 4.966 8.004 8.004 0 0 1-8.037-8.036v-.6a8.036 8.036 0 0 0 15.997 0c.075.198.075.397.075.6z" fill="#FFDD6A"/>
        <path d="M21.415 11.75a8.597 8.597 0 0 1-17.115 0 8.597 8.597 0 0 1 17.115 0z" fill="#FFCA08"/>
        <path d="m24.059 12.74-2.213-1.185c.122.864.122 1.74 0 2.604l2.433-1.302-.22-.118zM1.655 12.74l2.213-1.185a9.348 9.348 0 0 0 0 2.604l-2.432-1.302.22-.118zM5.02 20.86l2.405-.728a9.386 9.386 0 0 1-1.843-1.843l-.803 2.647.24-.075zM20.86 5.02l-.728 2.405a9.386 9.386 0 0 0-1.843-1.843l2.647-.803-.075.24zM20.86 20.695l-.728-2.406a9.386 9.386 0 0 1-1.843 1.843l2.647.804-.075-.241zM5.02 4.854l2.405.728a9.386 9.386 0 0 0-1.843 1.843L4.78 4.779l.24.075zM12.975 24.059l1.184-2.213a9.348 9.348 0 0 1-2.604 0l1.302 2.433.118-.22z" fill="#FFDD6A"/>
        <path d="m12.857 1.436.118.22 1.184 2.212a9.348 9.348 0 0 0-2.604 0l1.302-2.432m8.079 3.343-.075.24-.729 2.406a9.386 9.386 0 0 0-1.843-1.843l2.647-.803m-16.157 0 .24.075 2.406.728a9.386 9.386 0 0 0-1.843 1.843L4.78 4.779m8.078.042a8.004 8.004 0 0 1 3.07.606A8.036 8.036 0 0 1 20.27 9.77a8.073 8.073 0 0 1 0 6.134 8.036 8.036 0 0 1-4.344 4.35 8.084 8.084 0 0 1-6.14 0 8.036 8.036 0 0 1-4.344-4.344 8.084 8.084 0 0 1 0-6.14 8.164 8.164 0 0 1 1.74-2.603 8.036 8.036 0 0 1 5.674-2.347m8.99 6.734 2.212 1.184.22.118-2.433 1.302a9.348 9.348 0 0 0 0-2.604m-17.978 0a9.348 9.348 0 0 0 0 2.604l-2.432-1.302.22-.118 2.212-1.184m1.714 6.734a9.386 9.386 0 0 0 1.843 1.843l-2.405.729-.241.075.803-2.647m14.55 0 .729 2.406.075.24-2.647-.803a9.386 9.386 0 0 0 1.843-1.843m-5.973 3.557-1.184 2.213-.118.22-1.302-2.433c.864.122 1.74.122 2.604 0M12.857.096a1.34 1.34 0 0 0-1.178.708l-1.308 2.41a1.35 1.35 0 0 0-.155.638 9.107 9.107 0 0 0-1.843.766 1.312 1.312 0 0 0-.562-.332l-2.406-.729-.235-.075a1.382 1.382 0 0 0-.391-.059 1.35 1.35 0 0 0-1.28 1.73l.787 2.658c.061.213.178.407.337.562a9.359 9.359 0 0 0-.766 1.843 1.371 1.371 0 0 0-.627.155l-2.207 1.19-.22.118a1.334 1.334 0 0 0 0 2.357l2.438 1.307c.193.101.408.155.627.155a9.252 9.252 0 0 0 .766 1.843 1.28 1.28 0 0 0-.348.563l-.804 2.64a1.35 1.35 0 0 0 1.28 1.731c.133 0 .265-.02.392-.059l.235-.075 2.422-.712a1.28 1.28 0 0 0 .562-.338 9.359 9.359 0 0 0 1.843.766c-.003.224.05.445.155.643l1.308 2.41a1.34 1.34 0 0 0 1.178.708 1.34 1.34 0 0 0 1.179-.707l.118-.22 1.162-2.191c.12-.204.184-.438.182-.675a9.043 9.043 0 0 0 1.843-.766c.155.16.349.276.563.337l2.64.804a1.323 1.323 0 0 0 1.334-.337c.35-.349.48-.862.338-1.334l-.075-.236-.712-2.39a1.28 1.28 0 0 0-.338-.562 9.359 9.359 0 0 0 .766-1.843c.224 0 .444-.052.643-.155l2.41-1.307a1.334 1.334 0 0 0 0-2.357l-.219-.118-2.191-1.19a1.371 1.371 0 0 0-.627-.155 9.359 9.359 0 0 0-.766-1.843 1.28 1.28 0 0 0 .322-.562l.728-2.406.075-.235a1.35 1.35 0 0 0-1.28-1.73c-.133 0-.264.02-.391.058l-2.657.788a1.28 1.28 0 0 0-.563.337 9.043 9.043 0 0 0-1.843-.766 1.366 1.366 0 0 0-.155-.643l-1.19-2.19-.117-.22a1.34 1.34 0 0 0-1.179-.708z" fill="#4E4E4E" fill-rule="nonzero"/>
        <rect fill="#4E4E4E" fill-rule="nonzero" transform="rotate(22.48 8.935 10.04)" x="6.843" y="8.808" width="4.184" height="2.464" rx="1.157"/>
        <rect fill="#4E4E4E" fill-rule="nonzero" transform="rotate(157.557 16.88 10.039)" x="14.798" y="8.812" width="4.165" height="2.453" rx="1.157"/>
        <circle fill="#4E4E4E" fill-rule="nonzero" cx="8.475" cy="12.905" r="1"/>
        <circle fill="#4E4E4E" fill-rule="nonzero" cx="17.695" cy="12.905" r="1"/>
        <path d="M9.713 15.702h0a6.584 6.584 0 0 0 6.289 0h0" stroke="#4E4E4E" stroke-width="1.339" stroke-linecap="round" stroke-linejoin="round"/>
    </g>
</svg>
