<svg width="30" height="30" viewBox="0 0 30 30" xmlns="http://www.w3.org/2000/svg">
    <g fill-rule="nonzero" fill="none">
        <path fill="#FFD54B" d="m13.082 24.402 1.522-7.463-7.26-2.33 7.26-9.01 7.355.701-6.702 6.29 7.355 1.547z"/>
        <path fill="#FCBA00" d="m14.604 5.598 7.355.702-6.702 6.29zM15.257 12.59l7.355 1.547-6.39 6.884z"/>
        <path d="m14.604 5.598 7.36.702-6.707 6.29 7.355 1.547-9.53 10.265 1.522-7.463-7.26-2.33 7.26-9.01m0-1.34a1.35 1.35 0 0 0-1.072.498L6.3 13.767A1.345 1.345 0 0 0 6.064 15c.131.428.47.76.9.884l6.113 1.966-1.291 6.284a1.34 1.34 0 0 0 .701 1.457 1.335 1.335 0 0 0 1.591-.279l9.493-10.258a1.35 1.35 0 0 0 .295-1.318 1.334 1.334 0 0 0-.98-.879l-4.822-1.023 4.822-4.532a1.34 1.34 0 0 0-.793-2.31l-7.36-.706-.13-.027z" fill="#4E4E4E"/>
    </g>
</svg>
