<svg width="16" height="16" viewBox="0 0 16 16" xmlns="http://www.w3.org/2000/svg">
    <path d="M11.267 2C13.64 2 15 3.36 15 5.733v4.341c0 2.372-1.36 3.733-3.733 3.733H5.065c-2.372 0-3.732-1.361-3.732-3.733V5.733C1.333 3.36 2.693 2 5.065 2h6.202zm0 1.264H5.065c-1.684 0-2.468.784-2.468 2.469v4.341c0 1.684.784 2.469 2.468 2.469h6.202c1.685 0 2.469-.785 2.469-2.469V5.733c0-1.685-.784-2.469-2.469-2.469zm.075 2.148c.167.02.314.105.415.237.106.13.154.301.134.468a.611.611 0 0 1-.239.418L9.715 8.083c-.41.339-.96.526-1.55.526-.586 0-1.138-.186-1.556-.527l-1.94-1.55a.635.635 0 0 1-.233-.421.614.614 0 0 1 .134-.465.635.635 0 0 1 .885-.099l1.94 1.55c.409.328 1.126.328 1.534 0l1.942-1.55a.633.633 0 0 1 .471-.135z" fill="#4E4E4E" fill-rule="evenodd"/>
</svg>
