<svg width="16" height="16" viewBox="0 0 16 16" xmlns="http://www.w3.org/2000/svg">
    <g fill="#FFF" fill-rule="nonzero">
        <path d="M8.068 4.667c-2.46 0-4.65 1.46-6.554 4.294l-.124.187a.333.333 0 0 0 0 .371l.124.186C3.418 12.54 5.608 14 8.068 14s4.65-1.46 6.553-4.295l.125-.186a.333.333 0 0 0 0-.372l-.125-.186c-1.904-2.834-4.093-4.294-6.553-4.294zm.177 1.336c1.773.067 3.423 1.134 4.963 3.262l.048.068-.048.068c-1.592 2.2-3.3 3.266-5.14 3.266l-.178-.004c-1.772-.066-3.422-1.133-4.962-3.262l-.05-.068.05-.068C4.519 7.065 6.228 6 8.068 6l.177.003z"/>
        <path d="M8 6c.444 0 .667-.222.667-.667V2.667C8.667 2.222 8.444 2 8 2c-.444 0-.667.222-.667.667v2.666c0 .445.223.667.667.667zM11.569 7.064c.314.314.629.314.943 0l1.885-1.885c.315-.315.315-.629 0-.943-.314-.315-.628-.315-.942 0L11.569 6.12c-.314.315-.314.629 0 .943zM4.397 7.064c.315-.314.315-.628 0-.943L2.512 4.236c-.314-.315-.629-.315-.943 0-.314.314-.314.628 0 .943l1.886 1.885c.314.314.628.314.942 0zM8 7.333a2 2 0 1 0 0 4 2 2 0 0 0 0-4zm0 1.334A.667.667 0 1 1 8 10a.667.667 0 0 1 0-1.333z"/>
    </g>
</svg>
