<svg xmlns="http://www.w3.org/2000/svg" width="24" height="24" viewBox="0 0 24 24">
    <g fill="none" fill-rule="evenodd">
        <g transform="translate(-280 -619) translate(100 555) translate(32 64) translate(148)">
            <path d="M0 0H24V24H0z"/>
            <g fill="currentColor" fill-rule="nonzero">
                <path d="M11 19.94c-4.93 0-8.94-4.01-8.94-8.94S6.07 2.06 11 2.06s8.94 4.01 8.94 8.94-4.01 8.94-8.94 8.94zm0-16.08c-3.94 0-7.14 3.2-7.14 7.14 0 3.94 3.2 7.14 7.14 7.14 3.94 0 7.14-3.2 7.14-7.14 0-3.94-3.2-7.14-7.14-7.14z" transform="translate(1 1)"/>
                <path d="M5.16 11.9H.98c-.5 0-.9-.4-.9-.9s.4-.9.9-.9h4.18c.5 0 .9.4.9.9s-.41.9-.9.9zM11 6.06c-.5 0-.9-.4-.9-.9V.98c0-.5.4-.9.9-.9s.9.4.9.9v4.18c0 .49-.4.9-.9.9zM21.02 11.9h-4.18c-.5 0-.9-.4-.9-.9s.4-.9.9-.9h4.18c.5 0 .9.4.9.9s-.4.9-.9.9zM11 21.92c-.5 0-.9-.4-.9-.9v-4.18c0-.5.4-.9.9-.9s.9.4.9.9v4.18c0 .5-.4.9-.9.9z" transform="translate(1 1)"/>
            </g>
        </g>
    </g>
</svg>
