<svg xmlns="http://www.w3.org/2000/svg" width="24" height="24" viewBox="0 0 24 24">
    <g fill="none" fill-rule="evenodd">
        <g transform="translate(-560 -621) translate(100 555) translate(32 64) translate(428 2)">
            <g fill="currentColor" fill-rule="nonzero">
                <path d="M1.7 13.3c-.26 0-.51-.1-.71-.29-.39-.39-.39-1.02 0-1.41L11.6.99c.39-.39 1.02-.39 1.41 0 .39.39.39 1.02 0 1.41L2.4 13.01c-.19.2-.45.29-.7.29z" transform="translate(5 5)"/>
                <path d="M12.3 13.3c-.26 0-.51-.1-.71-.29L.99 2.4C.6 2.01.6 1.38.99.99 1.38.6 2.01.6 2.4.99L13.01 11.6c.39.39.39 1.02 0 1.41-.2.2-.45.29-.71.29z" transform="translate(5 5)"/>
            </g>
        </g>
    </g>
</svg>
