<svg xmlns="http://www.w3.org/2000/svg" width="24" height="24" viewBox="0 0 24 24">
    <g fill="none" fill-rule="evenodd">
        <g fill="#4E4E4E">
            <g>
                <g>
                    <path d="M5 4c-.552 0-1 .448-1 1v14c0 .552.448 1 1 1h14c.552 0 1-.448 1-1V5c0-.552-.448-1-1-1H5zm0-2h14c1.657 0 3 1.343 3 3v14c0 1.657-1.343 3-3 3H5c-1.657 0-3-1.343-3-3V5c0-1.657 1.343-3 3-3z" transform="translate(-16 -1901) translate(0 1889) translate(16 12)"/>
                </g>
            </g>
        </g>
    </g>
</svg>
