<svg xmlns="http://www.w3.org/2000/svg" width="24" height="24" viewBox="0 0 24 24">
    <g fill="none" fill-rule="evenodd">
        <g transform="translate(-336 -619) translate(100 555) translate(32 64) translate(204)">
            <path d="M0 0H24V24H0z"/>
            <g fill="currentColor" fill-rule="nonzero">
                <path d="M14.77 20.9H5.23C2.4 20.9.1 18.6.1 15.77V6.23C.1 3.4 2.4 1.1 5.23 1.1H10c.5 0 .9.4.9.9s-.4.9-.9.9H5.23C3.39 2.9 1.9 4.39 1.9 6.23v9.55c0 1.83 1.49 3.33 3.33 3.33h9.55c1.83 0 3.33-1.49 3.33-3.33V11c0-.5.4-.9.9-.9s.9.4.9.9v4.77c-.01 2.83-2.31 5.13-5.14 5.13z" transform="translate(2 1)"/>
                <g>
                    <path d="M1.55 13.45c-.24 0-.47-.09-.64-.26-.21-.21-.3-.5-.25-.79l.7-4.06c.03-.18.12-.35.25-.48l6.44-6.44c1.28-1.28 3.36-1.28 4.64 0 1.28 1.28 1.28 3.36 0 4.64L6.25 12.5c-.13.13-.3.22-.48.25l-4.06.7h-.16zm1.53-4.52l-.43 2.52 2.52-.43 6.24-6.24c.58-.58.58-1.51 0-2.09-.58-.58-1.51-.58-2.09 0L3.08 8.93z" transform="translate(2 1) translate(7)"/>
                    <path d="M11.47 6.9c-.23 0-.46-.09-.64-.26L7.47 3.28c-.35-.35-.35-.92 0-1.27s.92-.35 1.27 0l3.36 3.36c.35.35.35.92 0 1.27-.17.17-.4.26-.63.26z" transform="translate(2 1) translate(7)"/>
                </g>
            </g>
        </g>
    </g>
</svg>
