<svg xmlns="http://www.w3.org/2000/svg" width="24" height="24" viewBox="0 0 24 24">
    <g fill="none" fill-rule="evenodd">
        <g>
            <g transform="translate(-298 -229) translate(298 229)"> 
                <g fill="currentColor" fill-rule="nonzero">
                    <path d="M12 14.93c-.28 0-.54-.13-.71-.35-.48-.62-4.69-6.14-4.69-8.86 0-2.98 2.42-5.4 5.4-5.4 2.98 0 5.4 2.42 5.4 5.4 0 2.71-4.21 8.24-4.69 8.86-.17.22-.43.35-.71.35zm0-12.8c-1.99 0-3.6 1.62-3.6 3.6 0 1.37 1.99 4.57 3.6 6.8 1.61-2.23 3.6-5.43 3.6-6.8 0-1.99-1.61-3.6-3.6-3.6z" transform="translate(0 2)"/>
                    <path d="M12 8.52c-1.44 0-2.61-1.17-2.61-2.61S10.56 3.3 12 3.3s2.61 1.17 2.61 2.61S13.44 8.52 12 8.52zm0-3.42c-.45 0-.81.36-.81.81 0 .45.36.81.81.81.45 0 .81-.36.81-.81 0-.45-.36-.81-.81-.81zM10.29 19.68H1.61c-.32 0-.61-.17-.77-.44-.16-.27-.17-.61-.01-.89l3.85-7c.16-.29.46-.47.79-.47h1.34c.5 0 .9.4.9.9s-.4.9-.9.9h-.82l-2.86 5.2h7.16c.5 0 .9.4.9.9s-.4.9-.9.9zM22.39 19.68h-8.68c-.5 0-.9-.4-.9-.9s.4-.9.9-.9h7.16l-2.86-5.2h-.81c-.5 0-.9-.4-.9-.9s.4-.9.9-.9h1.34c.33 0 .63.18.79.47l3.85 7c.15.28.15.62-.01.89-.17.27-.46.44-.78.44z" transform="translate(0 2)"/>
                </g>
            </g>
        </g>
    </g>
</svg>
