<svg xmlns="http://www.w3.org/2000/svg" width="24" height="24" viewBox="0 0 24 24">
    <defs>
        <filter id="kfe3ze0x5a">
            <feColorMatrix in="SourceGraphic" values="0 0 0 0 1.000000 0 0 0 0 1.000000 0 0 0 0 1.000000 0 0 0 1.000000 0"/>
        </filter>
    </defs>
    <g fill="currentColor" fill-rule="evenodd">
        <g>
            <g>
                <g>
                    <g filter="url(#kfe3ze0x5a)" transform="translate(-5 -891) translate(0 875) translate(0 12) translate(5 4)">
                        <g fill="#FFF" fill-rule="nonzero">
                            <g transform="translate(1 2) translate(6 7)">
                                <path d="M5.08 5.74c-1.07 0-2.05-.61-2.69-1.67-.26-.43-.12-.98.3-1.24.43-.26.98-.12 1.24.3.31.51.73.8 1.15.8.43 0 .85-.29 1.16-.8.26-.42.81-.56 1.24-.3.42.26.56.81.3 1.24-.64 1.06-1.62 1.67-2.7 1.67z"/>
                                <circle cx=".99" cy="1.12" r="1"/>
                                <circle cx="9.01" cy="1.12" r="1"/>
                            </g>
                            <path d="M11.09 19.33c-.15 0-.3-.04-.43-.11C3.99 15.61.61 11.6.61 7.31.61 3.46 3.35.67 7.13.67c1.99 0 3.23.91 3.95 2.01.72-1.11 1.96-2.01 3.95-2.01 3.78 0 6.52 2.79 6.52 6.64 0 4.29-3.38 8.3-10.04 11.92-.13.07-.28.1-.42.1zM7.14 2.47c-2.78 0-4.72 1.99-4.72 4.84 0 3.49 2.92 6.89 8.67 10.1 5.75-3.21 8.67-6.61 8.67-10.1 0-2.85-1.94-4.84-4.72-4.84-2.87 0-3.04 2.84-3.05 3.16-.02.49-.41.87-.9.87-.49 0-.89-.39-.9-.88-.01-.31-.18-3.15-3.05-3.15z" transform="translate(1 2)"/>
                        </g>
                    </g>
                </g>
            </g>
        </g>
    </g>
</svg>
