<svg xmlns="http://www.w3.org/2000/svg" width="24" height="24" viewBox="0 0 24 24">
    <g fill="none" fill-rule="evenodd">
        <g transform="translate(-224 -619) translate(100 555) translate(32 64) translate(92)">
            <path d="M0 0H24V24H0z"/>
            <path fill="currentColor" fill-rule="nonzero" d="M6.15 21.9c-.19 0-.37-.06-.53-.17-.27-.19-.41-.52-.36-.85l.8-6-4.18-4.38c-.23-.24-.31-.58-.2-.9.11-.32.37-.55.69-.61L8.33 7.9l2.88-5.33c.16-.29.46-.47.79-.47s.63.18.79.47l2.88 5.33 5.96 1.09c.33.06.59.29.69.61.1.32.02.66-.2.9l-4.18 4.38.8 6c.04.33-.1.65-.36.85-.27.19-.62.23-.92.08L12 19.2l-5.46 2.62c-.12.05-.26.08-.39.08zM4.34 10.46l3.33 3.49c.19.2.28.47.24.74l-.64 4.78 4.35-2.08c.25-.12.53-.12.78 0l4.35 2.08-.64-4.78c-.04-.27.05-.54.24-.74l3.33-3.49-4.74-.87c-.27-.05-.5-.22-.63-.46L12 4.89 9.71 9.13c-.13.24-.36.41-.63.46l-4.74.87z"/>
        </g>
    </g>
</svg>
