<svg xmlns="http://www.w3.org/2000/svg" width="24" height="24" viewBox="0 0 24 24">
    <g fill="none" fill-rule="evenodd">
        <g transform="translate(-300 -816) translate(0 790) translate(269 12) translate(31 12) translate(0 2)">
            <g fill="currentColor" fill-rule="nonzero">
                <path d="M19.01 19.75H.99c-.5 0-.9-.4-.9-.9V3.18C.09 1.56 1.41.24 3.03.24h13.95c1.62 0 2.94 1.32 2.94 2.94v15.67c-.01.5-.41.9-.91.9zm-17.12-1.8h16.22V3.18c0-.63-.51-1.13-1.14-1.13H3.02c-.63 0-1.14.51-1.14 1.13v14.77h.01z" transform="translate(2 2)"/>
                <path d="M9.89 10.7c-.15 0-.3-.04-.43-.11L.56 5.67c-.44-.24-.6-.79-.36-1.22.24-.44.79-.59 1.22-.35l8.9 4.92c.44.24.59.79.35 1.22-.16.3-.46.46-.78.46z" transform="translate(2 2)"/>
                <path d="M10.11 10.7c-.32 0-.62-.17-.79-.46-.24-.44-.08-.98.35-1.22l8.9-4.92c.44-.24.98-.08 1.22.35.24.44.08.98-.35 1.22l-8.9 4.92c-.13.08-.28.11-.43.11zM11.67 13.66H8.15c-.5 0-.9-.4-.9-.9s.4-.9.9-.9h3.52c.5 0 .9.4.9.9s-.41.9-.9.9z" transform="translate(2 2)"/>
            </g>
        </g>
    </g>
</svg>
