<svg xmlns="http://www.w3.org/2000/svg" xmlns:xlink="http://www.w3.org/1999/xlink" width="15" height="16" viewBox="0 0 15 16">
    <defs>
        <radialGradient id="ufacub0qxc" cx="50.001%" cy="50.001%" r="50.865%" fx="50.001%" fy="50.001%" gradientTransform="matrix(.85374 0 0 1 .073 0)">
            <stop offset="0%" stop-color="#FFEC8C"/>
            <stop offset="9%" stop-color="#FFEC8C" stop-opacity=".97"/>
            <stop offset="22%" stop-color="#FFEC8B" stop-opacity=".88"/>
            <stop offset="38%" stop-color="#FFEB89" stop-opacity=".74"/>
            <stop offset="57%" stop-color="#FFEB87" stop-opacity=".55"/>
            <stop offset="78%" stop-color="#FFEB84" stop-opacity=".3"/>
            <stop offset="100%" stop-color="#FFEA80" stop-opacity="0"/>
        </radialGradient>
        <radialGradient id="jglslvlc1d" cx="48.946%" cy="48.177%" r="62.774%" fx="48.946%" fy="48.177%" gradientTransform="matrix(1 0 0 .42628 0 .276)">
            <stop offset="0%" stop-color="#FFEC8C"/>
            <stop offset="100%" stop-color="#FFD605" stop-opacity="0"/>
        </radialGradient>
        <radialGradient id="xavyspviee" cx="50%" cy="43.852%" r="84.893%" fx="50%" fy="43.852%" gradientTransform="scale(1 .3941) rotate(30.571 -.733 .776)">
            <stop offset="0%" stop-color="#FFF9D8"/>
            <stop offset="100%" stop-color="#FFF" stop-opacity="0"/>
        </radialGradient>
        <path id="8qic0ilsua" d="M0.89 0.38H320.89V599.38H0.89z"/>
    </defs>
    <g fill="none" fill-rule="evenodd">
        <g>
            <path d="M0 0H320V811H0z" transform="translate(-217 -15)"/>
            <g>
                <g transform="translate(-217 -15) translate(-1 -9) translate(.61 .12)">
                    <mask id="rdw5ish3zb">
                        <use xlink:href="#8qic0ilsua"/>
                    </mask>
                    <path fill="#FEBB31" fill-rule="nonzero" d="M0.89 -115H320.66999999999996V696.41H0.89z" mask="url(#rdw5ish3zb)"/>
                    <path fill="url(#ufacub0qxc)" fill-rule="nonzero" d="M459.034 80.47c-6.643 30.595-26.192 61.756-56.844 68.213-9.768 2.057-20.148 1.484-29.48 5.071-14.822 5.702-23.743 20.388-33.863 32.639-14.216 17.25-34.208 31.577-56.564 32.007-12.372.24-24.53-3.776-36.903-3.56-23.248.403-43.377 15.31-65.199 23.342-29.252 10.767-66.325 6.991-85.796-17.374-14.02-17.575-18.065-43.9-37.77-54.68-18.827-10.376-43.735-1.262-62.848-11.092-13.09-6.717-20.467-20.732-30.906-31.102-12.204-12.021-28.481-19.02-45.604-19.607l-41.41 5.859-3.986 472.284 416.024-12.057 118.577-193.721 53.399-6.27-.827-289.952z" mask="url(#rdw5ish3zb)" opacity=".552" transform="rotate(-23 165.86 331.47)"/>
                    <path fill="url(#jglslvlc1d)" fill-rule="nonzero" d="M-11.95 -223H333.94V588.41H-11.95z" mask="url(#rdw5ish3zb)" opacity=".6"/>
                    <path fill="url(#xavyspviee)" fill-rule="nonzero" d="M0.11 -126H319.89V685.41H0.11z" mask="url(#rdw5ish3zb)" opacity=".651"/>
                    <path d="M1130.78 -104.96L1130.78 586.38 -789 586.38 -789 -104.96" mask="url(#rdw5ish3zb)"/>
                </g>
            </g>
            <g transform="translate(-217 -15)">
                <g fill="#000">
                    <path d="M0 0H320V44H0z"/>
                </g>
                <rect width="99" height="28" x="205" y="8" rx="14"/>
                <g fill="#FFD605">
                    <path d="M13.538 10.124c-.61 1.892-1.943 3.283-3.557 4.056-1.502.718-3.25.9-4.882.451-.997-.274-1.951-.784-2.781-1.55-3.5-3.225.148-8.026.148-8.026s.377.956 1.985 1.724C6.437 5.226 5.753 1.263 4.656 0c5.82.136 6.298 5.704 5.682 7.172 1.883-.614 2.019-2.151 1.984-3.688 1.636 2.09 1.9 4.52 1.216 6.64" transform="translate(217 9) translate(0 6)"/>
                </g>
            </g>
        </g>
    </g>
</svg>
