<svg width="24" height="24" viewBox="0 0 24 24" xmlns="http://www.w3.org/2000/svg">
    <path d="M9.766 3a.931.931 0 1 1 0 1.862H6.04a.87.87 0 0 0-.869.869v2.11a.931.931 0 1 1-1.862 0v-2.11A2.732 2.732 0 0 1 6.041 3h3.725zM20.69 7.841a.931.931 0 0 1-1.862 0v-2.11a.87.87 0 0 0-.87-.869h-3.724a.931.931 0 1 1 0-1.862h3.725a2.732 2.732 0 0 1 2.73 2.731v2.11zM3.31 15.538a.931.931 0 0 1 1.862 0v2.11c0 .48.39.87.87.87h3.724a.931.931 0 1 1 0 1.861H6.04a2.732 2.732 0 0 1-2.73-2.73v-2.111zm10.924 4.841a.931.931 0 1 1 0-1.862h3.725a.87.87 0 0 0 .869-.869v-2.11a.931.931 0 0 1 1.862 0v2.11a2.732 2.732 0 0 1-2.731 2.731h-3.725zm5.835-7.758H3.931A.955.955 0 0 1 3 11.69c0-.497.434-.931.931-.931h16.138c.497 0 .931.434.931.93a.955.955 0 0 1-.931.932z" fill="#AEAEAE" stroke="#AEAEAE" stroke-width=".4" fill-rule="evenodd"/>
</svg>
