<svg xmlns="http://www.w3.org/2000/svg" width="24" height="24" viewBox="0 0 24 24">
    <g fill="none" fill-rule="evenodd">
        <path fill="currentColor" d="M12 2.5c-5.247 0-9.5 4.253-9.5 9.5s4.253 9.5 9.5 9.5 9.5-4.253 9.5-9.5c0-2.52-1-4.936-2.782-6.718C16.936 3.501 14.52 2.5 12 2.5zm2.825 11.475c.113.113.176.266.176.425 0 .16-.063.312-.176.425-.235.233-.615.233-.85 0L12 12.85l-1.975 1.975c-.235.233-.615.233-.85 0-.113-.113-.176-.266-.176-.425 0-.16.063-.312.176-.425L11.15 12l-1.975-1.975c-.235-.235-.235-.615 0-.85s.615-.235.85 0L12 11.15l1.975-1.975c.235-.235.615-.235.85 0s.235.615 0 .85L12.85 12l1.975 1.975z" transform="translate(-616 -621) translate(100 555) translate(32 64) translate(484 2)"/>
    </g>
</svg>
