<svg width="24" height="24" xmlns="http://www.w3.org/2000/svg" xmlns:xlink="http://www.w3.org/1999/xlink">
    <defs>
        <path d="M9 0a.828.828 0 0 1 .403.106l.021.012A.78.78 0 0 1 9.58.24l4.909 4.909.015.015.04.046-.055-.061a.818.818 0 0 1 .206.348l.006.022a.83.83 0 0 1 .027.208v9.818A2.455 2.455 0 0 1 12.273 18H2.455A2.455 2.455 0 0 1 0 15.545V2.455A2.455 2.455 0 0 1 2.455 0H9zm-.819 1.636H2.455a.818.818 0 0 0-.819.819v13.09c0 .452.367.819.819.819h9.818a.818.818 0 0 0 .818-.819l-.001-9H9a.818.818 0 0 1-.812-.715l-.006-.103-.001-4.091zm1.637 9a.818.818 0 0 1 0 1.637H4.91a.818.818 0 0 1 0-1.637zm0-7.843v2.116h2.115L9.818 2.793z" id="a"/>
    </defs>
    <use fill="#FFF" fill-rule="nonzero" xlink:href="#a" transform="translate(5 3)"/>
</svg>
