<svg xmlns="http://www.w3.org/2000/svg" width="24" height="24" viewBox="0 0 24 24">
    <g fill="none" fill-rule="evenodd">
        <g transform="translate(-224 -917) translate(100 853) translate(32 64) translate(92)">
            <g fill="currentColor" fill-rule="nonzero">
                <path d="M9 17.5c-.55 0-1-.45-1-1v-15c0-.55.45-1 1-1s1 .45 1 1v15c0 .55-.45 1-1 1z" transform="translate(3 3)"/>
                <path d="M16.5 10h-15c-.55 0-1-.45-1-1s.45-1 1-1h15c.55 0 1 .45 1 1s-.45 1-1 1z" transform="translate(3 3)"/>
            </g>
        </g>
    </g>
</svg>
