<svg xmlns="http://www.w3.org/2000/svg" width="24" height="24" viewBox="0 0 24 24">
    <g fill="none" fill-rule="evenodd">
        <g transform="translate(-24 -249) translate(0 237) translate(24 12)">
            <g fill="currentColor" fill-rule="nonzero">
                <path d="M19.01 19.77H.99c-.5 0-.9-.4-.9-.9V3.17c0-.5.4-.9.9-.9h18.02c.5 0 .9.4.9.9v15.7c0 .5-.4.9-.9.9zm-17.12-1.8h16.22V4.07H1.89v13.9z" transform="translate(2 2)"/>
                <g>
                    <path d="M3.65 1.46L4.4 3.14 6.23 3.33 4.86 4.56 5.24 6.37 3.65 5.44 2.05 6.37 2.44 4.56 1.07 3.33 2.9 3.14z" transform="translate(2 2) translate(3 6)"/>
                    <path d="M5.24 6.87c-.09 0-.17-.02-.25-.07l-1.35-.78-1.34.78c-.17.1-.38.09-.54-.03-.16-.12-.24-.32-.19-.51l.33-1.52L.73 3.7c-.15-.13-.2-.34-.14-.53s.23-.32.42-.34l1.55-.16.63-1.42c.16-.36.75-.36.91 0l.63 1.42 1.55.16c.2.02.36.15.42.34.06.19.01.39-.14.53L5.4 4.74l.33 1.52c.04.19-.03.39-.19.51-.09.07-.19.1-.3.1zm-3-3.16l.53.48c.13.12.19.3.15.48l-.15.7.62-.36c.16-.09.35-.09.5 0l.62.36-.15-.7c-.04-.17.02-.36.15-.48l.53-.48-.71-.07c-.18-.02-.33-.13-.41-.29l-.29-.66-.29.66c-.07.16-.23.28-.41.29l-.69.07z" transform="translate(2 2) translate(3 6)"/>
                </g>
                <path d="M15.59 9.46h-4c-.5 0-.9-.4-.9-.9s.4-.9.9-.9h4c.5 0 .9.4.9.9s-.41.9-.9.9zM15.59 12.7h-4c-.5 0-.9-.4-.9-.9s.4-.9.9-.9h4c.5 0 .9.4.9.9s-.41.9-.9.9zM15.73 15.94H4.27c-.5 0-.9-.4-.9-.9s.4-.9.9-.9h11.45c.5 0 .9.4.9.9s-.4.9-.89.9zM6.65 4.8c-.5 0-.9-.4-.9-.9V1.13c0-.5.4-.9.9-.9s.9.4.9.9V3.9c0 .49-.41.9-.9.9z" transform="translate(2 2)"/>
            </g>
        </g>
    </g>
</svg>
