<svg xmlns="http://www.w3.org/2000/svg" xmlns:xlink="http://www.w3.org/1999/xlink" width="24" height="24" viewBox="0 0 24 24">
    <defs>
        <path id="6g44h1df6a" d="M0 0.369L22.366 0.369 22.366 20 0 20z"/>
    </defs>
    <g fill="none" fill-rule="evenodd">
        <path fill="currentColor" d="M8.102 8.823L10.641 8.823 10.641 6.284 8.102 6.284zM8.102 12.685L10.641 12.685 10.641 10.146 8.102 10.146zM8.102 16.546L10.641 16.546 10.641 14.007 8.102 14.007zM12.416 8.823L14.956 8.823 14.956 6.284 12.416 6.284zM12.416 12.685L14.956 12.685 14.956 10.146 12.416 10.146z" transform="translate(-24 -249) translate(0 237) translate(24 12) translate(1 2)"/>
        <g transform="translate(-24 -249) translate(0 237) translate(24 12) translate(1 2) translate(0 .632)">
            <mask id="eybph27f4b" fill="#fff">
                <use xlink:href="#6g44h1df6a"/>
            </mask>
            <path fill="currentColor" d="M5.037 4.019h.439c.143.31.45.526.813.526h9.788c.362 0 .67-.216.814-.526h.438v13.824h-2.373v-4.468h-2.54v4.468h-7.38V4.019zm2.152-1.275h7.988v-.575H7.189v.575zM21.466 18.2h-2.337V3.119c0-.497-.403-.901-.9-.901h-1.252v-.95c0-.496-.403-.9-.9-.9H6.289c-.497 0-.9.404-.9.9v.95H4.138c-.497 0-.9.404-.9.9V18.2H.9c-.497 0-.9.403-.9.9s.403.9.9.9h20.566c.497 0 .9-.403.9-.9s-.403-.9-.9-.9z" mask="url(#eybph27f4b)"/>
        </g>
    </g>
</svg>
