<svg xmlns="http://www.w3.org/2000/svg" width="24" height="24" viewBox="0 0 24 24">
    <g fill="none" fill-rule="evenodd">
        <g transform="translate(-326 -60) translate(326 60)">
            <path d="M0 0H24V24H0z"/>
            <path fill="currentColor" fill-rule="nonzero" d="M20.24 6.61H9.48c-.55 0-1-.45-1-1s.45-1 1-1h10.77c.55 0 1 .45 1 1s-.46 1-1.01 1zM6.26 6.61H4.09c-.55 0-1-.45-1-1s.45-1 1-1h2.17c.55 0 1 .45 1 1s-.44 1-1 1zM6.26 10.87H4.09c-.55 0-1-.45-1-1s.45-1 1-1h2.17c.55 0 1 .45 1 1s-.44 1-1 1zM6.26 15.13H4.09c-.55 0-1-.45-1-1s.45-1 1-1h2.17c.55 0 1 .45 1 1s-.44 1-1 1zM6.26 19.39H4.09c-.55 0-1-.45-1-1s.45-1 1-1h2.17c.55 0 1 .45 1 1s-.44 1-1 1zM20.24 10.87H9.48c-.55 0-1-.45-1-1s.45-1 1-1h10.77c.55 0 1 .45 1 1s-.46 1-1.01 1zM20.24 15.13H9.48c-.55 0-1-.45-1-1s.45-1 1-1h10.77c.55 0 1 .45 1 1s-.46 1-1.01 1zM20.24 19.39H9.48c-.55 0-1-.45-1-1s.45-1 1-1h10.77c.55 0 1 .45 1 1s-.46 1-1.01 1z"/>
        </g>
    </g>
</svg>
