<svg xmlns="http://www.w3.org/2000/svg" width="24" height="24" viewBox="0 0 24 24">
    <defs>
        <filter id="d4dlpkqyoa">
            <feColorMatrix in="SourceGraphic" />
        </filter>
    </defs>
    <g fill="none" fill-rule="evenodd" stroke-linecap="round" stroke-linejoin="round">
        <g>
            <g filter="url(#d4dlpkqyoa)" transform="translate(-366 -60) translate(366 60)">
                <g stroke="transparent" stroke-width="1.778" transform="translate(2 2)">
                    <circle stroke="currentColor" cx="9.778" cy="9.778" r="2.667"/>
                    <path stroke="currentColor" d="M16.356 12.444c-.243.549-.126 1.19.293 1.618l.053.054c.334.333.522.785.522 1.257 0 .472-.188.925-.522 1.258-.333.334-.786.522-1.258.522-.471 0-.924-.188-1.257-.522l-.054-.053c-.428-.42-1.069-.536-1.617-.294-.538.23-.887.758-.89 1.343v.15c0 .983-.795 1.779-1.777 1.779-.982 0-1.778-.796-1.778-1.778v-.08c-.014-.602-.395-1.135-.96-1.342-.548-.243-1.19-.126-1.618.293l-.053.053c-.333.334-.786.522-1.258.522s-.924-.188-1.258-.522c-.333-.333-.521-.786-.521-1.258 0-.471.188-.924.521-1.257l.054-.054c.419-.428.535-1.069.293-1.617-.23-.538-.758-.887-1.342-.89h-.151C.796 11.627 0 10.832 0 9.85 0 8.867.796 8.07 1.778 8.07h.08c.602-.014 1.134-.395 1.342-.96.242-.548.126-1.19-.293-1.618l-.054-.053c-.333-.333-.521-.786-.521-1.258s.188-.924.521-1.258c.334-.333.786-.521 1.258-.521s.924.188 1.258.521l.053.054c.429.419 1.07.535 1.618.293h.071c.537-.23.887-.758.889-1.342v-.151C8 .796 8.796 0 9.778 0s1.778.796 1.778 1.778v.08c.002.584.351 1.112.888 1.342.549.242 1.19.126 1.618-.293l.054-.054c.333-.333.785-.521 1.257-.521.472 0 .925.188 1.258.521.334.334.522.786.522 1.258s-.188.924-.522 1.258l-.053.053c-.42.429-.536 1.07-.294 1.618v.071c.23.537.758.887 1.343.889h.15c.983 0 1.779.796 1.779 1.778s-.796 1.778-1.778 1.778h-.08c-.585.002-1.112.351-1.342.888z"/>
                </g>
            </g>
        </g>
    </g>
</svg>
