<svg width="24" height="24" viewBox="0 0 24 24" xmlns="http://www.w3.org/2000/svg">
    <g fill="none" fill-rule="evenodd">
        <path d="m13.75 1.88 1.58 1.36c.16.14.56.28.77.28h1.7c1.48 0 2.68 1.2 2.68 2.68v1.7c0 .21.15.61.29.77l1.36 1.58c.84.98.84 2.51 0 3.49l-1.36 1.58c-.14.16-.29.56-.29.77v1.7c0 1.48-1.2 2.68-2.68 2.68h-1.7c-.21 0-.61.15-.77.28l-1.58 1.36c-.49.43-1.12.64-1.75.64-.63 0-1.26-.21-1.75-.63l-1.58-1.36c-.16-.14-.56-.28-.77-.28H6.18A2.68 2.68 0 0 1 3.5 17.8v-1.71c0-.21-.14-.6-.28-.76l-1.35-1.59c-.82-.97-.82-2.5 0-3.47l1.35-1.59c.14-.16.28-.55.28-.76V6.2c0-1.48 1.2-2.68 2.68-2.68h1.73c.21 0 .61-.15.77-.28l1.58-1.36c.98-.84 2.51-.84 3.49 0z" fill="#00CD7E"/>
        <path d="m10.26 14.95-2.42-2.42a.754.754 0 0 1 0-1.06c.29-.29.77-.29 1.06 0l1.89 1.89 4.3-4.3c.29-.29.77-.29 1.06 0 .29.29.29.77 0 1.06l-4.83 4.83a.75.75 0 0 1-1.06 0z" fill="#FFF" fill-rule="nonzero"/>
    </g>
</svg>
