<svg width="16" height="16" viewBox="0 0 16 16" xmlns="http://www.w3.org/2000/svg">
    <g fill="none" fill-rule="evenodd">
        <path d="M15 2.287a1 1 0 0 1 1 1v9.428a1 1 0 0 1-1 1H1a1 1 0 0 1-1-1V3.287a1 1 0 0 1 1-1h14zM6.857 9.144H3.43l-.148.006a1.714 1.714 0 0 0-1.567 1.708v1.143h6.857v-1.143l-.006-.148a1.714 1.714 0 0 0-1.708-1.566zm7.429 1.714H9.714v1.143h4.572v-1.143zm0-2.286H9.714v1.143h4.572V8.572zM5.143 4.001a2.286 2.286 0 1 0 0 4.571 2.286 2.286 0 0 0 0-4.571z" fill="#4E4E4E"/>
    </g>
</svg>
