<svg xmlns="http://www.w3.org/2000/svg" width="24" height="24" viewBox="0 0 24 24">
    <g fill="none" fill-rule="evenodd">
        <g fill="currentColor">
            <path d="M14.66 18.323c-.26 0-.51-.1-.71-.29l-5.66-5.66c-.18-.19-.29-.44-.29-.71 0-.27.11-.52.29-.71l5.66-5.66c.39-.39 1.02-.39 1.41 0 .39.39.39 1.02 0 1.41l-4.94 4.96 4.95 4.95c.39.39.39 1.02 0 1.41-.2.2-.46.3-.71.3z" transform="translate(-300 -1745) translate(100 1681) translate(200 64) rotate(-90 11.831 11.661)"/>
        </g>
    </g>
</svg>
