<svg xmlns="http://www.w3.org/2000/svg" width="24" height="24" viewBox="0 0 24 24">
    <g fill="none" fill-rule="evenodd">
        <g transform="translate(-24 -297) translate(0 285) translate(24 12)">
            <g fill="currentColor" fill-rule="nonzero">
                <g>
                    <path d="M19.01 17.4h-2.34c-.5 0-.9-.4-.9-.9s.4-.9.9-.9h1.44V3.34c0-.63-.51-1.13-1.14-1.13-.5 0-.9-.4-.9-.9s.4-.9.9-.9c1.62 0 2.94 1.32 2.94 2.94V16.5c0 .5-.4.9-.9.9z" transform="translate(2 2) translate(0 3)"/>
                    <path d="M16.67 17.4H.99c-.5 0-.9-.4-.9-.9V3.34C.09 1.72 1.41.4 3.03.4c.5 0 .9.4.9.9s-.4.9-.9.9c-.63 0-1.14.51-1.14 1.13V15.6h14.78c.5 0 .9.4.9.9s-.4.9-.9.9z" transform="translate(2 2) translate(0 3)"/>
                    <path d="M9.89 10.86c-.15 0-.3-.04-.43-.11L.56 5.83c-.44-.24-.59-.79-.35-1.22.24-.43.79-.59 1.22-.35l8.9 4.92c.44.24.59.79.35 1.22-.17.3-.47.46-.79.46z" transform="translate(2 2) translate(0 3)"/>
                    <path d="M10.11 10.86c-.32 0-.62-.17-.79-.46-.24-.44-.08-.98.35-1.22l8.9-4.92c.44-.24.98-.08 1.22.35.24.44.08.98-.35 1.22l-8.9 4.92c-.13.08-.28.11-.43.11zM11.67 13.82H8.15c-.5 0-.9-.4-.9-.9s.4-.9.9-.9h3.52c.5 0 .9.4.9.9s-.41.9-.9.9z" transform="translate(2 2) translate(0 3)"/>
                </g>
                <path d="M16.11 10.61c-.5 0-.9-.4-.9-.9V1.95H4.79v7.76c0 .5-.4.9-.9.9s-.9-.4-.9-.9V1.05c0-.5.4-.9.9-.9h12.22c.5 0 .9.4.9.9v8.66c0 .5-.41.9-.9.9z" transform="translate(2 2)"/>
            </g>
        </g>
    </g>
</svg>
