<svg width="24" height="24" viewBox="0 0 24 24" xmlns="http://www.w3.org/2000/svg">
    <g fill="#AEAEAE" fill-rule="evenodd">
        <path d="M6.292 18.183c-.7-.241-1.234-.733-1.467-1.375-.242-.641-.158-1.35.225-1.983l.958-1.592c.2-.333.384-1 .384-1.391V9.433c0-3.1 2.525-5.625 5.625-5.625s5.625 2.525 5.625 5.625v2.409c0 .383.183 1.058.383 1.4l.95 1.583c.358.6.425 1.325.183 1.983a2.267 2.267 0 0 1-1.425 1.375 17.973 17.973 0 0 1-5.716.925c-1.942 0-3.884-.308-5.725-.925zm1.35-8.75v2.409c0 .608-.25 1.508-.559 2.033l-.958 1.592c-.183.308-.233.633-.125.908.1.283.35.5.692.617a16.666 16.666 0 0 0 10.658 0c.3-.1.533-.325.642-.625.108-.3.083-.625-.084-.9l-.958-1.592c-.317-.542-.558-1.433-.558-2.042v-2.4a4.374 4.374 0 1 0-8.75 0z" stroke="#AEAEAE" stroke-width=".5" stroke-dasharray="0,0"/>
        <path d="M13.391 5.258a4.873 4.873 0 0 0-2.733 0 .614.614 0 0 1-.642-.175.618.618 0 0 1-.116-.65 2.27 2.27 0 0 1 2.125-1.45c.95 0 1.783.567 2.125 1.45a.635.635 0 0 1-.117.65.644.644 0 0 1-.642.175z" stroke="#AEAEAE" stroke-width=".6" fill-rule="nonzero" stroke-dasharray="0,0"/>
        <path d="M9.808 20.092a3.137 3.137 0 0 1-.917-2.209h1.25c0 .492.2.975.55 1.325.35.35.834.55 1.325.55a1.878 1.878 0 0 0 1.875-1.875h1.25c0 1.725-1.4 3.125-3.125 3.125a3.137 3.137 0 0 1-2.208-.916z" fill-rule="nonzero"/>
    </g>
</svg>
