<svg width="24" height="24" viewBox="0 0 24 24" xmlns="http://www.w3.org/2000/svg">
    <g fill="#00CD7E" fill-rule="nonzero">
        <path fill="none" d="M0 0h24v24H0z"/>
        <path d="M2.275 9.118c2.082 4.11 5.416 6.216 9.867 6.216 4.463 0 7.715-2.12 9.601-6.252a1 1 0 0 0-1.82-.83c-1.563 3.423-4.105 5.082-7.781 5.082-3.688 0-6.337-1.673-8.083-5.12a1 1 0 1 0-1.785.904h.001z"/>
        <path d="M12.334 13.5c.666 0 1 .333 1 1v4c0 .667-.334 1-1 1-.667 0-1-.333-1-1v-4c0-.667.333-1 1-1zM17.712 11.712c.472-.471.943-.471 1.414 0l2.829 2.829c.471.471.471.942 0 1.414-.472.471-.943.471-1.414 0l-2.829-2.829c-.471-.471-.471-.942 0-1.414zM6.121 11.712c.472.472.472.943 0 1.414l-2.828 2.829c-.472.471-.943.471-1.414 0-.472-.472-.472-.943 0-1.414l2.828-2.829c.472-.471.943-.471 1.414 0z"/>
    </g>
</svg>
