<svg width="24" height="24" viewBox="0 0 24 24" xmlns="http://www.w3.org/2000/svg">
    <g fill="#00CD7E" fill-rule="nonzero">
        <path d="M12.102 7c-3.69 0-6.974 2.19-9.83 6.442l-.187.28a.5.5 0 0 0 0 .557l.187.279C5.128 18.81 8.412 21 12.102 21c3.69 0 6.974-2.19 9.83-6.442l.187-.28a.5.5 0 0 0 0-.557l-.187-.279C19.076 9.19 15.792 7 12.102 7zm.266 2.005c2.659.1 5.134 1.7 7.444 4.893l.073.102-.073.102c-2.387 3.3-4.95 4.898-7.71 4.898l-.266-.005c-2.66-.1-5.134-1.7-7.444-4.893L4.318 14l.074-.102C6.779 10.598 9.342 9 12.102 9l.266.005z"/>
        <path d="M12 9c.667 0 1-.333 1-1V4c0-.667-.333-1-1-1s-1 .333-1 1v4c0 .667.333 1 1 1zM17.354 10.596c.471.472.942.472 1.414 0l2.828-2.828c.472-.472.472-.943 0-1.414-.471-.472-.943-.472-1.414 0l-2.828 2.828c-.472.471-.472.943 0 1.414zM6.596 10.596c.472-.471.472-.943 0-1.414L3.768 6.354c-.472-.472-.943-.472-1.414 0-.472.471-.472.942 0 1.414l2.828 2.828c.471.472.943.472 1.414 0zM12 11a3 3 0 1 0 0 6 3 3 0 0 0 0-6zm0 2a1 1 0 1 1 0 2 1 1 0 0 1 0-2z"/>
    </g>
</svg>
