<svg xmlns="http://www.w3.org/2000/svg" xmlns:xlink="http://www.w3.org/1999/xlink" width="24" height="24" viewBox="0 0 24 24">
    <g fill="none" fill-rule="evenodd">
        <g>
            <g>
                <g transform="translate(-356 -242) translate(346 232) translate(10 10)">
                    <path fill="currentColor" fill-rule="nonzero" d="M18.32 22.91c-.276 0-.537-.125-.71-.34-.15-.185-.22-.422-.194-.66.027-.236.147-.453.334-.6l2.13-1.72-2.16-1.89c-.36-.331-.39-.89-.066-1.258.324-.367.882-.408 1.256-.092l3 2.59c.207.167.328.419.328.685 0 .266-.12.518-.328.685l-3 2.4c-.168.132-.376.202-.59.2zM17.77 13.52h-5.46c-.497 0-.9-.403-.9-.9s.403-.9.9-.9h5.46c1.441 0 2.61-1.169 2.61-2.61 0-1.441-1.169-2.61-2.61-2.61h-3.15c-.497 0-.9-.403-.9-.9s.403-.9.9-.9h3.15c2.436 0 4.41 1.974 4.41 4.41s-1.974 4.41-4.41 4.41z"/>
                    <path fill="currentColor" fill-rule="nonzero" d="M21.28 20.51H6.22c-1.784.021-3.403-1.04-4.097-2.683-.693-1.644-.323-3.544.937-4.807.217-.255.559-.369.886-.294.327.075.585.325.67.65.085.324-.018.669-.266.894-.72.751-.924 1.86-.517 2.817.407.958 1.346 1.58 2.387 1.583h15.06c.497 0 .9.403.9.9s-.403.9-.9.9v.04z"/>
                    <path fill="currentColor" fill-rule="nonzero" d="M7.46 15.02c-.278 0-.54-.13-.71-.35-.46-.59-4.44-5.81-4.44-8.39 0-2.844 2.306-5.15 5.15-5.15 2.844 0 5.15 2.306 5.15 5.15 0 2.58-4 7.8-4.44 8.39-.17.22-.432.35-.71.35zm0-12.08c-1.846 0-3.344 1.494-3.35 3.34 0 1.28 1.84 4.24 3.35 6.33 1.51-2.09 3.35-5 3.35-6.33-.006-1.846-1.504-3.34-3.35-3.34z"/>
                    <circle cx="7.46" cy="6.46" r="1.61" fill="currentColor" fill-rule="nonzero"/>
                </g>
            </g>
        </g>
    </g>
</svg>
