<svg xmlns="http://www.w3.org/2000/svg" width="24" height="24" viewBox="0 0 24 24">
    <g fill="none" fill-rule="evenodd">
        <g transform="translate(-336 -975) translate(100 853) translate(32 122) translate(204)">
            <path fill="currentColor" fill-rule="nonzero" d="M8.7 21.45c-1.96 0-3.92-.75-5.42-2.24C.4 16.33.3 11.7 2.99 8.7c.03-.04.06-.08.1-.11l5.77-5.77c.35-.35.92-.35 1.27 0s.35.92 0 1.27L4.56 9.65c-2.28 2.28-2.28 6 0 8.29 2.2 2.2 5.71 2.28 8.01.26.02-.02.04-.05.06-.07l7.49-7.45c1.37-1.37 1.37-3.61 0-4.98-1.38-1.38-3.61-1.38-4.99 0-.04.04-.08.08-.13.11l-6.39 6.32c-.44.44-.44 1.23.04 1.71.47.47 1.28.47 1.75 0l4.74-4.74c.35-.35.92-.35 1.27 0s.35.92 0 1.27l-4.74 4.74c-1.14 1.14-3.15 1.15-4.29 0-1.18-1.18-1.18-3.11 0-4.3l.15-.13 6.33-6.27c.04-.04.09-.08.14-.11.99-.93 2.27-1.43 3.64-1.43 1.42 0 2.76.55 3.77 1.56 1.01 1.01 1.56 2.34 1.56 3.77 0 1.43-.55 2.76-1.56 3.77l-7.17 7.13c-.03.05-.07.09-.11.13-1.51 1.47-3.47 2.22-5.43 2.22z"/>
        </g>
    </g>
</svg>
