<svg xmlns="http://www.w3.org/2000/svg" width="24" height="24" viewBox="0 0 24 24">
    <g fill="none" fill-rule="evenodd">
        <g transform="translate(-188 -1745) translate(100 1681) translate(88 64)">
            <path fill="currentColor" fill-rule="nonzero" d="M1.17 13.66c-.26 0-.51-.1-.71-.29-.39-.39-.39-1.02 0-1.41L5.41 7 .46 2.05C.07 1.66.07 1.03.46.64.85.25 1.48.25 1.87.64L7.53 6.3c.19.19.29.44.29.71 0 .27-.11.52-.29.71l-5.66 5.66c-.19.18-.44.28-.7.28z" transform="translate(8 5)"/>
        </g>
    </g>
</svg>
