<svg xmlns="http://www.w3.org/2000/svg" width="24" height="24" viewBox="0 0 24 24">
    <g fill="none" fill-rule="evenodd">
        <g transform="translate(-132 -1925) translate(100 1861) translate(32 64)">
            <g fill="currentColor" fill-rule="nonzero" transform="translate(2 2)">
                <path d="M10 19.27C4.89 19.27.73 15.11.73 10 .73 4.89 4.89.73 10 .73c.5 0 .9.4.9.9s-.4.9-.9.9c-4.12 0-7.47 3.35-7.47 7.47 0 4.12 3.35 7.47 7.47 7.47 4.12 0 7.47-3.35 7.47-7.47 0-.5.4-.9.9-.9s.9.4.9.9c0 5.11-4.16 9.27-9.27 9.27z"/>
                <path d="M10.01 12.55c-.24 0-.47-.1-.64-.26l-2.9-2.9c-.35-.35-.35-.92 0-1.27s.92-.35 1.27 0L10 10.38l4.57-4.57c.35-.35.92-.35 1.27 0s.35.92 0 1.27l-5.21 5.21c-.15.16-.38.26-.62.26z"/>
                <circle cx="17.86" cy="3.8" r="1.03"/>
            </g>
        </g>
    </g>
</svg>
