<svg xmlns="http://www.w3.org/2000/svg" width="24" height="24" viewBox="0 0 24 24">
    <g fill="none" fill-rule="evenodd">
        <g transform="translate(-280 -1453) translate(100 1389) translate(32 64) translate(148)">
            <g fill="currentColor" fill-rule="nonzero">
                <path d="M1.15 19.9c-.16 0-.31-.04-.45-.12-.28-.16-.45-.46-.45-.78v-5.48c0-.5.4-.9.9-.9s.9.4.9.9v3.92l13-7.45-13-7.45V10c0 .5-.4.9-.9.9s-.9-.4-.9-.9V1C.25.68.42.38.7.22c.28-.16.62-.16.9 0l15.71 9c.28.16.45.46.45.78s-.17.62-.45.78l-15.71 9c-.15.08-.3.12-.45.12z" transform="translate(3 2)"/>
                <path d="M15.39 10.9H1.15c-.5 0-.9-.4-.9-.9s.4-.9.9-.9h14.24c.5 0 .9.4.9.9s-.4.9-.9.9z" transform="translate(3 2)"/>
            </g>
        </g>
    </g>
</svg>
