<svg xmlns="http://www.w3.org/2000/svg" width="24" height="24" viewBox="0 0 24 24">
    <g fill="none" fill-rule="evenodd">
        <g fill="currentColor">
            <path d="M12 22C6.477 22 2 17.523 2 12S6.477 2 12 2s10 4.477 10 10-4.477 10-10 10zm0-1.818c4.519 0 8.182-3.663 8.182-8.182S16.519 3.818 12 3.818 3.818 7.481 3.818 12 7.481 20.182 12 20.182z" transform="translate(-350 -466) translate(24 452) translate(326 14)"/>
            <path d="M12.006 15.527c.687 0 1.258.572 1.258 1.259 0 .67-.555 1.258-1.258 1.258-.702 0-1.241-.588-1.241-1.258 0-.687.555-1.259 1.241-1.259zM12.22 6c2.091 0 3.48 1.16 3.48 2.696 0 1.536-1.389 2.648-1.83 2.99-.899.704-.915 1.194-.915 2.044 0 .31-.163.67-.964.67-.67 0-.899-.245-.899-1.095 0-1.406.621-2.076 1.095-2.484.54-.458 1.454-.964 1.454-1.847 0-.751-.653-1.111-1.47-1.111-1.667 0-1.307 1.258-2.19 1.258-.44 0-.98-.294-.98-.931C9 7.307 10.013 6 12.219 6z" transform="translate(-350 -466) translate(24 452) translate(326 14)"/>
        </g>
    </g>
</svg>
