<svg width="30" height="30" viewBox="0 0 30 30" xmlns="http://www.w3.org/2000/svg">
    <g transform="translate(3.214 3.214)" fill-rule="nonzero" fill="none">
        <path d="M20.727 1.57a.91.91 0 0 1 .91.91v2.738l-4.376 4.377h2.1c.137.008.275.008.412 0a3.91 3.91 0 0 0 .584-.145c.184-.056.363-.126.536-.209l.075-.032c.168-.082.329-.177.482-.284l.064-.048c.158-.113.307-.239.445-.375v.535c0 .06 0 .124-.027.183s0 .214-.048.321c-.048.107-.038.155-.059.236-.021.08-.037.166-.064.246-.027.08-.065.177-.097.268a3.32 3.32 0 0 1-.075.198c-.026.065-.09.193-.134.29-.042.096-.048.101-.075.15a9.733 9.733 0 0 1-.187.31l-.06.107a4.568 4.568 0 0 1-.24.322l-.048.064c-.091.113-.188.22-.29.327v.032a5.073 5.073 0 0 1-3.52 1.516h-.117 2.464a3.9 3.9 0 0 0 .975-.14c.184-.054.363-.122.536-.203l.075-.037c.168-.082.329-.177.482-.284l.064-.048c.158-.113.307-.239.445-.375v.535c0 .065 0 .124-.027.183-.027.058 0 .214-.048.32-.048.108-.038.156-.059.237-.021.08-.037.166-.064.246-.027.08-.065.182-.097.268-.032.086-.048.134-.075.198-.026.064-.09.198-.134.295l-.075.144a5.97 5.97 0 0 1-.187.311c-.064.102-.038.075-.06.107a3.59 3.59 0 0 1-.24.322l-.048.064c-.091.113-.188.22-.29.327v.032c-.112.112-.225.22-.343.321a5.11 5.11 0 0 1-3.176 1.206h2.346c.138.008.275.008.413 0a3.9 3.9 0 0 0 .562-.156c.184-.054.363-.122.536-.203l.075-.038c.167-.08.329-.173.482-.278l.064-.054c.158-.113.307-.238.445-.375v.536c0 .064 0 .123-.027.187-.027.065 0 .215-.048.316-.048.102-.043.161-.059.241-.016.08-.037.167-.064.247-.027.08-.065.177-.097.262-.032.086-.048.134-.075.199-.04.1-.087.199-.139.294 0 .049-.043.102-.07.15a9.733 9.733 0 0 1-.187.311l-.06.102a3.59 3.59 0 0 1-.24.321l-.048.07c-.091.112-.188.22-.29.321v.032a5.079 5.079 0 0 1-3.52 1.527h-.267a4.998 4.998 0 0 1-3.525-1.457h-.091v.257c.017.622.321 1.2.825 1.564a3.814 3.814 0 0 1-3.44-1.82h-.273v.256c.017.622.322 1.2.825 1.564a3.814 3.814 0 0 1-3.439-1.82h-.273v.256c.017.622.321 1.2.825 1.564-1.607 0-3-.82-3.504-1.96a2.92 2.92 0 0 1-1.87-1.838.487.487 0 0 1-.165-.37v-.589h9.305a2.373 2.373 0 0 0 2.325-2.85 2.405 2.405 0 0 0-.654-1.194 2.368 2.368 0 0 0-1.676-.697h-.177a1.827 1.827 0 0 1-1.827 1.827v-1.827H8.18v1.372A1.42 1.42 0 0 0 9.595 15.3a.407.407 0 0 1 .412.407.413.413 0 0 1-.412.413c-1.234 0-2.234-1-2.234-2.234v-1.372H2.679V11.03a1.34 1.34 0 0 1 .139-2.651 1.436 1.436 0 0 1-.14-.606 1.457 1.457 0 0 1 2.738-.696h.188c.388 0 .772.076 1.13.225l2.909 1.227c-.019-.13-.03-.26-.032-.392a2.92 2.92 0 1 1 5.71.858l.858-.857V3.75a.916.916 0 1 1 1.826 0V6.3l1.822-1.821V2.48a.916.916 0 0 1 .916-.91M20.727.23c-1.07.001-1.991.753-2.207 1.8a2.25 2.25 0 0 0-3.697 1.72v.798A4.254 4.254 0 0 0 8.54 6.605L7.243 6.07a4.34 4.34 0 0 0-1.184-.311 2.796 2.796 0 0 0-4.725 1.795A2.679 2.679 0 0 0 .23 9.696c0 .844.397 1.637 1.072 2.143v.643c0 .74.6 1.34 1.34 1.34H6v.032c0 .727.222 1.438.638 2.035h-3.96c-.74 0-1.339.6-1.339 1.34v.589c-.004.383.112.758.332 1.071a4.286 4.286 0 0 0 2.079 2.213 5.18 5.18 0 0 0 4.452 2.24c.334 0 .656-.122.905-.344.64.23 1.314.346 1.993.343a1.35 1.35 0 0 0 .895-.343c.639.23 1.313.346 1.993.343.444 0 .86-.22 1.108-.59.548.151 1.114.227 1.683.226h.289a6.429 6.429 0 0 0 3.986-1.548h.032c.15-.129.289-.258.412-.386l.054-.054c.134-.139.246-.268.348-.396l.075-.097c.075-.09.182-.235.29-.39l.074-.124c.086-.14.166-.268.241-.402l.075-.16v-.065c.054-.112.107-.22.156-.332.048-.112.053-.134.075-.203v-.108c.037-.09.07-.182.102-.278.032-.097.042-.166.064-.247V18.07c0-.086.043-.166.059-.247.016-.08.037-.23.053-.343V17.186c0-.215.032-.434.032-.654a1.329 1.329 0 0 0-.67-1.157v-.037c.054-.108.108-.22.156-.327.048-.107.054-.134.075-.204V14.7c.038-.091.07-.182.102-.279.032-.096.043-.166.064-.251v-.118c0-.08.043-.16.06-.241.015-.08.037-.23.053-.348v-.268c.021-.194.032-.39.032-.584v-.07c0-.48-.255-.923-.67-1.162v-.033c.054-.107.107-.22.156-.332.048-.112.053-.134.075-.198v-.108c.037-.09.07-.187.101-.278.032-.09.043-.166.065-.251v-.118c0-.08.042-.161.059-.247.016-.085.037-.225.053-.343V9.182c0-.22.032-.44.032-.653a1.334 1.334 0 0 0-1.859-1.233l1.104-1.103c.25-.252.391-.593.391-.948V2.48a2.25 2.25 0 0 0-2.25-2.25h.402zm-9.413 15.145c.566-.269 1.04-.7 1.361-1.238a.862.862 0 0 1 .129.15c.075.112.128.238.155.37.005.07.005.14 0 .21a1.04 1.04 0 0 1-1.034 1.033h-.595a1.393 1.393 0 0 0 0-.214c0-.112-.01-.223-.032-.332l.016.021z" fill="#4E4E4E"/>
        <path d="M3.943 12.514a2.373 2.373 0 1 1 0 4.747 2.373 2.373 0 0 1 0-4.747m0-1.339a3.713 3.713 0 1 0-.01 7.425 3.713 3.713 0 0 0 .01-7.425z" fill="#4E4E4E"/>
        <path d="M19.821 2.48v2.01L18 6.31V3.75a.91.91 0 0 0-.91-.916.916.916 0 0 0-.927.916v4.377L13.795 10.5l1.275 1.286 6.567-6.568V2.48a.91.91 0 0 0-.91-.91.916.916 0 0 0-.906.91z" fill="#FFD54B"/>
        <path d="M22.002 12.514a3.75 3.75 0 0 1-2.641 1.099h-2.465a5.11 5.11 0 0 0 5.106-5.111 3.75 3.75 0 0 1-2.641 1.071H12.15L6.718 7.296a2.92 2.92 0 0 0-4.056 2.679v2.529h9.306a2.373 2.373 0 1 1 0 4.746h-9.29a2.92 2.92 0 0 0 2.92 2.92h7.66a4.998 4.998 0 0 0 3.526 1.457h.129a5.11 5.11 0 0 0 5.105-5.11 3.75 3.75 0 0 1-2.641 1.07h-2.464a5.11 5.11 0 0 0 5.089-5.073z" fill="#FF0413"/>
        <path d="M11.968 11.421h-9.29v1.072h9.29a2.373 2.373 0 1 1 0 4.746h-9.29v.59c0 .278.226.503.504.503h8.786a3.466 3.466 0 0 0 3.466-3.466 3.466 3.466 0 0 0-3.466-3.445z" fill="#FF7F87"/>
        <path d="M17.014 13.602a5.105 5.105 0 0 0 4.988-5.1 3.75 3.75 0 0 1-2.229 1.071c0 2.577-2.148 4.029-2.759 4.029zM17.014 21.632a5.105 5.105 0 0 0 4.988-5.105 3.696 3.696 0 0 1-2.229 1.071c0 2.582-2.148 4.034-2.759 4.034zM17.014 17.62a5.11 5.11 0 0 0 4.988-5.106 3.75 3.75 0 0 1-2.229 1.072c0 2.577-2.148 4.034-2.759 4.034z" fill="#EDEBEB"/>
        <circle fill="#63C37D" cx="3.943" cy="14.887" r="2.373"/>
        <circle fill="#FF7F87" cx="12.514" cy="8.137" r="2.92"/>
        <circle fill="#FFF" cx="11.604" cy="8.137" r="2.009"/>
        <circle fill="#373737" cx="11.057" cy="8.137" r="1"/>
        <path d="M7.377 19.082v1.355c.017.622.321 1.2.825 1.565-2.052 0-3.713-1.307-3.713-2.92" fill="#FF0413"/>
        <path d="M10.264 19.082v1.355c.017.622.322 1.2.825 1.565-2.052 0-3.712-1.307-3.712-2.92" fill="#FF0413"/>
        <path d="M13.152 19.082v1.355c.017.622.321 1.2.825 1.565-2.052 0-3.713-1.307-3.713-2.92" fill="#FF0413"/>
        <circle fill="#A1DBB1" cx="3.391" cy="14.341" r="1"/>
        <path d="M9.595 16.12c-1.234 0-2.234-1-2.234-2.234V11.42a1.414 1.414 0 0 0-1.415-1.414.413.413 0 0 1 0-.82 2.234 2.234 0 0 1 2.234 2.234v2.465A1.42 1.42 0 0 0 9.595 15.3a.407.407 0 0 1 .412.407.413.413 0 0 1-.412.413z" fill="#FFD54B"/>
        <path d="M9.959 14.341v-1.827h1.827a1.827 1.827 0 0 1-1.827 1.827z" fill="#EDEBEB"/>
        <path d="M5.448 8.379a1.43 1.43 0 0 0 .134-.606 1.463 1.463 0 1 0-2.92 0c.002.21.05.416.14.606a1.34 1.34 0 0 0 .123 2.678c.5 0 .96-.273 1.2-.712a1.35 1.35 0 1 0 1.323-1.966z" fill="#FFD54B"/>
        <circle fill="#FFE693" cx="4.125" cy="7.773" r="1"/>
    </g>
</svg>
