<svg xmlns="http://www.w3.org/2000/svg" width="36" height="36" viewBox="0 0 36 36">
    <g fill="none" fill-rule="evenodd">
        <g>
            <g>
                <g>
                    <g transform="translate(-183 -425) translate(-93 138) translate(276 287) translate(5 3)">
                        <path fill="#00CD7E" fill-rule="nonzero" stroke="#FFF" stroke-width="2.1" d="M13.5-1.05c4.017 0 7.658 1.672 10.294 4.375 2.628 2.695 4.256 6.416 4.256 10.52 0 7.946-13.945 18.013-13.945 18.013s-.215.155-.606.422c-.39-.267-.605-.422-.605-.422S-1.05 21.775-1.05 13.83c0-4.103 1.628-7.82 4.255-10.51C5.84.618 9.482-1.05 13.5-1.05zm0 9.655c-1.208 0-2.302.505-3.094 1.316-.801.821-1.296 1.956-1.296 3.206 0 1.251.495 2.385 1.296 3.206.792.812 1.886 1.317 3.094 1.317s2.302-.505 3.094-1.317c.801-.82 1.296-1.955 1.296-3.206 0-1.25-.495-2.385-1.296-3.206-.792-.811-1.886-1.316-3.094-1.316z"/>
                        <circle cx="13" cy="14" r="8" fill="#FFF"/>
                        <path fill="#00CD7E" fill-rule="nonzero" d="M13.5 0C6.05 0 0 6.197 0 13.83S13.5 31 13.5 31 27 21.478 27 13.845C27 6.212 20.95 0 13.5 0zm0 18.7c-3.002 0-5.44-2.498-5.44-5.573s2.438-5.572 5.44-5.572c3.002 0 5.44 2.497 5.44 5.572S16.502 18.7 13.5 18.7z"/>
                    </g>
                </g>
            </g>
        </g>
    </g>
</svg>
