<svg width="356" height="140" viewBox="0 0 356 140" xmlns="http://www.w3.org/2000/svg" xmlns:xlink="http://www.w3.org/1999/xlink">
    <defs>
        <path id="a" d="M.582.195h99.43v59.02H.582z"/>
    </defs>
    <g fill="none" fill-rule="evenodd">
        <g fill="#000">
            <path d="M22.501 116.189h5.632l.215-1.234h-5.63l-.217 1.234zm5.292 1.934h-5.63l-.217 1.234h5.631l.216-1.234zm-.78 3.813.804-.448h-6.245l-.206 1.177 5.977-.224-.33-.505zm-7.411-5.747.216-1.234h-5.632l-.215 1.234h5.63zm-.34 1.934h-5.631l-.217 1.234h5.632l.217-1.234zm.9-5.13.193-1.094H9.593l.394-2.243h10.76l.266-1.514h2.9l-.266 1.514h10.761l-.393 2.243H23.253l-.191 1.094h8.446l-1.49 8.495h-.39c.853 1.177 1.474 2.242 1.898 3.168l-2.154 1.317a27.63 27.63 0 0 0-.748-1.458l-2.078.084-.31 1.767h5.52l-.418 2.382h-5.52l-.486 2.776c-.296 1.682-1.395 2.551-3.263 2.551h-3.01l-.124-2.635c.928.113 1.81.168 2.646.168.558 0 .914-.28 1.003-.785l.363-2.075h-8.948c1.162.841 2.13 1.683 2.93 2.523l-2.333 2.02c-.757-1.093-1.921-2.244-3.46-3.477l1.273-1.066h-6.05l.419-2.382h16.587l.285-1.626c-4.858.196-9.877.364-15.036.533l-.154-2.3c3.383-.056 6.715-.14 9.991-.224l.221-1.261h-8.446l1.49-8.495h8.446zM70.979 111.787l-2.852 1.317a22.451 22.451 0 0 0-1.892-3.672l2.785-1.261c.7 1.092 1.353 2.299 1.959 3.616zm1.122 4.57-8.517 1.514a26.019 26.019 0 0 0-.08 3.308c.037 1.065.089 2.047.21 2.944 1.907-1.654 3.64-3.589 5.2-5.804l2.277 1.318c-2.082 2.972-4.387 5.467-6.944 7.485.099.393.202.758.337 1.094.674 1.57 1.394 2.383 2.17 2.41.578-.111 1.386-1.542 2.436-4.344l2.306 1.625c-.78 1.598-1.575 2.945-2.318 4.01-.952 1.289-1.9 1.934-2.821 1.934-1.338 0-2.514-.926-3.538-2.719-.412-.674-.747-1.458-1.019-2.3a31.12 31.12 0 0 1-6.39 3.056l-1.179-2.495c2.484-.813 4.795-1.906 6.908-3.308a35.477 35.477 0 0 1-.408-2.916c-.15-1.373-.176-2.972-.085-4.766l-3.397.617.073-2.803 3.537-.617c.194-2.215.514-4.682.987-7.373H64.8c-.442 2.522-.784 4.793-.976 6.84l8.318-1.485-.041 2.774zm-15.782 5.579c-1.064.504-2.128 1.01-3.21 1.458l-1.347 7.682c-.34 1.934-1.487 2.915-3.383 2.915h-2.397l-.168-2.859c.705.111 1.388.195 2.028.195.614 0 1.007-.336 1.125-1.008l.998-5.692a67.262 67.262 0 0 1-3.258 1.094l-.263-3.112c1.359-.28 2.711-.673 4.072-1.122l.983-5.607h-3.485l.496-2.831h3.485l.831-4.739h2.927l-.83 4.739h2.9l-.497 2.831h-2.9l-.781 4.458a50.386 50.386 0 0 0 3.21-1.458l-.536 3.056zM105.036 115.376l-.546 3.112h2.37l.545-3.112h-2.37zm-1.53 8.719h2.37l.532-3.029h-2.37l-.531 3.029zm-1.062 6.055h2.37l.615-3.504h-2.37l-.615 3.504zm-7.693-15.587a16.73 16.73 0 0 0 1.238-1.655l1.384 1.178c-.459.7-.957 1.318-1.473 1.878.386.505.747.982 1.055 1.459l-1.706 1.457a11.4 11.4 0 0 0-.943-1.457 12.483 12.483 0 0 1-2.487 1.457l-.46-1.822a12.45 12.45 0 0 0 1.832-1.066c-.415-.504-.888-.98-1.357-1.486l1.601-1.345c.48.449.899.925 1.316 1.402zm-1.003-4.29a18.186 18.186 0 0 0-.362-1.598l2.988-.505c.115.617.188 1.318.244 2.103h5.214l-.433 2.468H88.464l.432-2.468h4.852zm4.058 3.56h2.397l-.82 4.682c2.008-3.027 3.673-6.476 5.03-10.4l2.358.7c-.525 1.402-1.029 2.691-1.58 3.926h2.592a45.337 45.337 0 0 0-.553-3.841l2.72-.73c.292 1.682.467 3.224.565 4.57h2.565l-.462 2.636h-2.565l-.545 3.112h2.09l-.452 2.578h-2.09l-.532 3.029h2.09l-.447 2.55h-2.09l-.616 3.505h3.012l-.466 2.663h-8.03l-.22 1.262h-2.649l2.644-15.083a24.137 24.137 0 0 1-1.622 2.102l-1.003-1.121-.226 1.29h-4.098c-.228.505-.45.981-.64 1.43h5.407l-1.593 9.083c-.265 1.514-1.262 2.27-2.935 2.27h-2.034l-.22-2.242 1.88.084c.502 0 .826-.252.903-.7l1.068-6.084h-3.596a63.043 63.043 0 0 1-1.44 2.804 63.834 63.834 0 0 0 1.704-.337 41.424 41.424 0 0 0-.306-1.598l1.804-.589c.344 1.374.571 2.944.713 4.682l-1.84.477c-.043-.393-.057-.785-.11-1.122-1.397.337-2.984.645-4.74.953l-.09-1.71c.328-.28.98-1.458 1.935-3.56H89.14l-1.559 8.887h-2.565l1.981-11.298h4.74c.19-.449.412-.925.612-1.43h-4.488l1.303-7.43h2.51l-.91 5.187h6.132l.91-5.187zM150.149 129.842l-2.767 1.15c-.295-4.038-.81-7.626-1.517-10.738l2.716-.87c.74 3.253 1.268 6.757 1.568 10.458zm-14.523 4.12-.16-2.746c1.096.112 2.169.196 3.173.196.669 0 1.066-.365 1.19-1.065l2.502-14.27h2.816l-2.625 14.97c-.34 1.934-1.46 2.916-3.355 2.916h-3.541zm.095-14.213-2.233-1.57c2.608-3.112 4.639-6.42 6.088-9.925l2.63.59c-.37.84-.77 1.682-1.163 2.494h11.626l-.335 1.907a49.513 49.513 0 0 1-2.464 4.99l-2.646-.812c.725-.954 1.363-2.047 1.97-3.281h-9.645c-1.196 2.046-2.473 3.926-3.828 5.607zm3.897.673c-1.65 3.841-3.494 7.205-5.506 10.092l-2.56-.98c1.903-2.58 3.759-5.86 5.573-9.84l2.493.728zm-13.024 1.934-.426-3.14c3.428-3.167 6.2-6.896 8.346-11.186l2.478 1.29a39.07 39.07 0 0 1-3.934 6.224l-3.265 18.615h-2.899l2.537-14.466a68.089 68.089 0 0 1-2.837 2.663zM186.24 124.851h-3.791c.188 1.15.67 2.215 1.396 3.169 1.009-.981 1.808-2.047 2.395-3.169zm-7.192 0 .423-2.41h9.813l-.399 2.27a15.683 15.683 0 0 1-3.338 5.047c1.005.785 2.215 1.513 3.669 2.13l-1.906 2.44c-1.58-.842-2.902-1.739-3.955-2.72-1.526 1.066-3.3 1.962-5.267 2.691l-1.08-2.27c1.786-.645 3.368-1.402 4.725-2.3a10.1 10.1 0 0 1-1.765-4.878h-.92zm6.568-12.335-.339 1.934h-10.9l.338-1.934h10.901zm-.48 3.056-.335 1.906h-11.012l.334-1.906h11.013zm-9.534 7.149.245-1.402h-4.627l-.246 1.402h4.628zm-.635 3.616.27-1.541h-4.627l-.27 1.541h4.627zm13.442-8.606h-2.845l1.142-6.505h-12.657l-1.155 6.589h-2.816l1.539-8.775h18.316l-1.524 8.69zm-14.021 11.914.216-1.233h-4.629l-.3 1.71a107.56 107.56 0 0 0 4.713-.477zm17.002-10.793-.432 2.467H178.69l-2.26 12.897h-2.843l.397-2.271c-2.233.336-5.382.644-9.478.953l.07-2.467 2.306-.112 1.578-9h-2.314l.433-2.467h24.811zM218.994 118.544c-1.056 4.429-2.711 7.99-4.968 10.681l-1.61-2.103c1.923-2.383 3.34-5.69 4.193-9.925l1.308-7.457c4.42-.084 8.411-.589 11.97-1.485l.951 2.522c-3.26.786-6.8 1.262-10.677 1.43l-.625 3.56h11.598l-.487 2.777h-4.293l-2.005 11.438h-2.76l2.005-11.438h-4.6zm-4.98-6.252-2.23 1.906c-.732-1.234-1.867-2.551-3.395-4.01l2.28-1.878c1.359 1.319 2.465 2.636 3.345 3.982zm-.166 2.691-.398 2.27c-1.082 1.403-2.299 2.777-3.66 4.178h3.318l-.335 1.907c-.776 2.046-1.574 3.728-2.396 5.075l.355.363c.699.786 1.376 1.374 2.042 1.711.676.28 1.7.476 3.085.532 1.389.029 3 .056 4.785.056 2.23 0 5.148-.112 8.746-.28l-1.198 2.86h-7.61c-1.785 0-3.53-.056-5.222-.113-1.774-.055-3.046-.28-3.874-.645-1.007-.448-1.86-1.148-2.581-2.13a.604.604 0 0 0-.535-.28c-.502 0-1.578 1.206-3.209 3.672l-1.747-1.962c1.714-2.467 3.201-3.954 4.507-4.402.768-1.205 1.419-2.523 2-3.925h-3.96l.384-2.187c1.537-1.457 2.805-2.803 3.862-4.065h-3.93l.462-2.635h7.11zM263.849 125.58l-2.628 1.627c-.706-1.851-1.742-3.897-3.076-6.14l2.629-1.486c1.386 2.27 2.404 4.262 3.075 6zm3.8 5.355c-.624 1.962-2.133 2.944-4.531 2.944-.557 0-1.552-.056-2.982-.168l-.23-2.663c1.212.084 2.29.14 3.21.14 1.003 0 1.687-.56 2.046-1.654.404-1.346 1.299-5.972 2.746-13.906h-6.747a28.768 28.768 0 0 1-3.473 4.541l-1.348-2.326c2.301-2.636 4.1-5.888 5.441-9.729l2.808.365a43.193 43.193 0 0 1-1.811 4.29h8.474c-1.72 9.812-2.921 15.867-3.604 18.166zm-14.883-10.513.86-4.906H249.5l-.86 4.906h4.126zm-1.388 7.906.93-5.299h-4.126l-.929 5.3h4.125zm2.071 4.093h-2.788l.246-1.402h-4.126l-.389 2.215h-2.788l3.59-20.466h2.676a29.454 29.454 0 0 0 1.898-4.625l2.858.392a30.661 30.661 0 0 1-1.968 4.233h4.237l-3.446 19.653zM311.848 110.077l-.503 2.86h-4.209l-3.142 17.914c-.349 1.991-1.473 3-3.313 3h-4.711l-.145-2.832c1.486.112 2.925.169 4.291.169.558 0 .929-.365 1.057-1.094l3.008-17.158h-7.109l.502-2.86h14.274zm-16.711 11.831c-1.26.505-2.52 1.009-3.796 1.458l-1.348 7.681c-.334 1.906-1.476 2.86-3.428 2.86h-2.871l-.173-2.831c.872.112 1.726.167 2.507.167.642 0 1.034-.336 1.143-.953l1.033-5.887c-1.323.392-2.646.785-3.994 1.15l-.232-2.804c1.559-.309 3.133-.701 4.717-1.15l1.003-5.719h-4.07l.496-2.831h4.07l.826-4.71h2.955l-.825 4.71h3.317l-.496 2.831h-3.318l-.82 4.682a78.692 78.692 0 0 0 3.815-1.57l-.511 2.916zM327.666 112.909l.492-2.804h21.494l-.492 2.804h-9.284l-2.94 16.764h10.984l-.495 2.832h-24.951l.496-2.832h11.012l2.94-16.764z"/>
        </g>
        <path d="M17.996 68.578a.791.791 0 0 0 .498-.056c.303-.122.496-.417.656-.672.135-.206.335-.524.682-1.005.075-.096.163-.195.263-.304.28-.307.628-.686.93-1.23a.846.846 0 0 0 .05-.712c-.356-.937-.761-1.688-1.199-2.23-.488-.609-.777-.917-1.142-1.095-.251-.17-.538-.248-1.04-.316l-.373-.051c-.549-.077-.858-.077-1.165.033-.37.084-.717.304-1.352.755-.638.451-1.22 1.029-1.778 1.77a.847.847 0 0 0-.144.697c.076.332.123.636.167.905.033.206.08.346.117.524.016.187.048.386.128.603.39 1.079.584 1.572.965 1.785a.966.966 0 0 0 .535.22c.55.037.875-.323 1.113-.7a.97.97 0 0 0 .41-.226c.169-.171.306-.23.409-.206.11.014.195.142.237.217.058.11.133.171.207.239l.033.128c.072.293.21.828.793.927M62.05 49.423c-.048-.213-.004-.339.1-.603.159-.4.457-1.144-.262-1.997-.738-.873-1.515-.641-1.976-.496-.188.056-.365.11-.57.12l-1.81.053c-.596.02-.917.147-1.175.248a1.504 1.504 0 0 1-.624.138c-.4.018-.603-.003-.805-.021-.249-.021-.496-.045-1.003-.024-.214 0-.349-.02-.502-.053-.038-.01-.075-.01-.112-.017-.403-.18-1.096-.418-1.82.297-.73.725-.516 1.436-.38 1.84.003.033 0 .061.006.092.014.121.03.269.03.465 0 .21-.035.372-.063.508-.012.058-.016.114-.026.173-.144.425-.295 1.085.368 1.76.721.737 1.42.604 1.878.518.202-.038.377-.07.59-.057.517.04.778.02 1.039 0 .2-.014.39-.035.786 0a3.97 3.97 0 0 0 1.12-.063c.209-.032.36-.06.702-.037.08.007.121.014.186.021.142.028.25.068.382.136.249.128.589.306 1.21.353.2.011.39.084.593.159.224.082.538.199.89.199.376 0 .797-.136 1.19-.59.003 0 .003 0 .003-.002.835-.973.542-1.735.307-2.35-.081-.21-.177-.454-.251-.77M49.275 85.487a1.22 1.22 0 0 0-.819-.154c-.486.065-.975.13-1.459.198-.24-.325-.48-.652-.716-.975.025-.634.046-1.265.072-1.899.016-.435-.277-.858-.677-1.024a.932.932 0 0 0-.456-.131c-.62.01-1.036.444-1.101 1.045l-.16 1.492c-.029.262-.057.524-.084.789-.04.36.116.69.356.951.404.454.812.908 1.214 1.36.203.224.42.404.682.52.049.017.086.036.135.045.072.021.123.073.207.075.242.007.524-.06.763-.096l1.75-.239c.556-.074.942-.771.796-1.293a1.078 1.078 0 0 0-.503-.664M15.474 72.937l-.202-.142-.67-1.64-.25-2.006a.827.827 0 0 0-.935-.73c-.005 0-.007.003-.012.005-.053-.007-.107-.021-.162-.017a.839.839 0 0 0-.747.92l.22 2.189a.858.858 0 0 0 .091.299l.996 1.95c.077.15.196.274.345.356l.465.255 1.273.884c.144.1.312.152.475.152a.836.836 0 0 0 .686-.365.775.775 0 0 0 .13-.414.825.825 0 0 0-.384-.973l-1.319-.723zM25.759 75.203l2.294-.068a.819.819 0 0 0 .398-.114l2.001-1.181a.838.838 0 0 0-.847-1.448l-1.817 1.073-1.973.064-2.213-.218a.84.84 0 0 0-.163 1.672l2.32.22zM55.997 60.34l.244.138.296-.147c1.073-.15 1.915-1.039 1.915-2.161 0-1.041-.728-1.874-1.69-2.114l-.52-.283-.55.287c-.363.096-.698.253-.96.505l-.057.028-.014.033a2.23 2.23 0 0 0-.619 1.49l-.023.054.021.04c.021 1.117.87 2.004 1.957 2.13M56.894 84.313c-.023-.028-.027-.058-.053-.084-.386-.388-1.1-.498-1.513-.06-.109.112-.216.226-.323.34-.144.057-.288.113-.43.167.007 0 .007-.003.014-.003l-.024.007-.023.01c-.042.016-.093.03-.135.042-.29.082-.577.175-.863.274-.347-.253-.682-.517-1.024-.772l-.417-.625c-.31-.465-.912-.76-1.447-.444-.023.016-.044.044-.07.063-.284.066-.549.236-.686.473-.314.551-.14 1.11.33 1.485.245.194.498.376.743.566l.023.037c.165.243.347.435.598.585.246.15.498.299.744.449.1.06.208.133.317.196.037.028.072.059.112.08.04.028.079.016.118.035.05.023.096.053.147.067.058.02.123.017.184.024.058.005.118.026.177.02.144 0 .286-.008.423-.013.589-.024 1.464.077 1.906-.36.179-.178.349-.367.521-.555.174-.065.349-.133.521-.2.526-.204.712-.995.445-1.455a1.143 1.143 0 0 0-.315-.349" fill="#000"/>
        <path d="M54.575 84.676c-.317.08-.275.082-.168.054.051-.012.105-.035.158-.05a.018.018 0 0 0 .01-.004M61.087 80.6c-.205-.627-.41-1.251-.612-1.878-.088-.271-.219-.503-.468-.66-.225-.142-.558-.212-.819-.14-.435.124-.805.55-.814 1.017-.133.288-.149.625.002.943.15.313.298.629.447.942l-.952.323-1.042-.25c-.542-.131-1.187.128-1.336.715-.002.007 0 .014-.002.024-.14.182-.25.407-.247.624.005.274.084.56.284.758.219.22.456.302.759.348.279.04.556.085.835.124.384.061.787.183 1.164.04.598-.227 1.17-.554 1.747-.835.051-.026.105-.051.154-.077.123-.04.244-.082.365-.122.328-.114.568-.28.717-.603.144-.318.13-.636-.021-.952l-.16-.341M17.853 72.531l.43.828.361 1.237a.838.838 0 0 0 1.038.568c.07-.02.128-.063.189-.1.07-.017.144-.019.211-.052a.842.842 0 0 0 .354-1.134l-.596-1.15-.249-.845-.395-1.637-.075-.6a.84.84 0 0 0-.933-.73c-.035.004-.063.023-.093.032-.023.003-.046-.004-.072.003a.837.837 0 0 0-.612 1.012l.137.575.217 1.71a.871.871 0 0 0 .088.283M37.62 78.313c-.002-.032.007-.063 0-.095-.088-.452-.512-.737-.98-.665l-4.439.861-2.03.204-3.154.64c-2.069.143-3.63-.096-4.777-.48l-1.72-.836c-.002 0-.002 0-.005-.003l-1.142-1.09-.077-.119a.839.839 0 0 0-1.124-.339.776.776 0 0 0-.2.166c-.026.019-.06.012-.081.035-.05.054-.038.129-.073.192a.772.772 0 0 0-.06.16c-.089.291-.072.61.163.834l.226.213c.228.297.607.687 1.16 1.108l.154.148a.83.83 0 0 0 .212.15l.298.142c.374.227.814.437 1.312.634l.412.198 2.043.655c.077.026.158.04.24.04l2.327.028.993-.199c.99-.072 2.04-.194 3.232-.446l1.971-.382 2.362-.238 2.14-.437a.839.839 0 0 0 .655-.99c-.007-.032-.028-.056-.038-.089M16.758 45.107c.842-.01 1.696.018 2.538-.014.72-.028 1.35-.28 2.05-.382.913-.13 2.036.276 2.981.328.984.054 1.969.12 2.925.388 1.033.285 2.24 1.148 3.344.683.763-.323 1.089-1.062.868-1.836a.165.165 0 0 0-.068-.084l.629-.786c.102.082.295.005.263-.164-.2-1.01-.184-1.76-1.013-2.453-.798-.669-1.756-1.546-2.745-1.901-1.07-.388-2.202-.346-3.305-.145-1.638.3-3.239.676-4.886.938-2.145.334-3.355-.098-5.035-1.336-.806-.594-1.687-.958-2.418-1.665-.612-.59-1.173-1.274-1.734-1.91-.977-1.097-1.722-2.353-2.699-3.452-.73-.823-1.345-1.792-2.49-2.047-2.213-.493-3.057 1.71-3.457 3.408-.664 2.81-.14 5.033 1.098 7.558.421.868.705 1.633 1.51 2.208.928.664 1.778 1.705 2.841 2.121 1.373.538 2.827.393 4.242.636.547.096 1.026.302 1.592.288.998-.021 1.943-.37 2.969-.381" fill="#000"/>
        <g transform="translate(17.177 -.084)">
            <mask id="b" fill="#fff">
                <use xlink:href="#a"/>
            </mask>
            <path d="M90.516 29.882c1.022-.833 1.892-1.862 2.904-2.706.822-.685 1.152-1.069 1.55-2.03.57-1.38 1.729-2.483 2.357-3.877 1.904-4.24 3.858-10.253 1.818-14.783-.44-.98-.873-2.175-1.543-3.017-.684-.86-1.738-1.54-2.578-2.228-.77-.634-1.48-.685-2.437-.793-1.144-.129-2.115-.475-3.23-.042-1.882.727-3.825 2.642-4.702 4.46a30.006 30.006 0 0 0-1.34 3.316c-.424 1.281-.284 2.642-.7 3.947-.429 1.347-.361 2.762-.755 4.128-.423 1.49-.633 2.95-1.391 4.31-.586 1.05-.945 2.187-1.447 3.279-.738 1.597-1.825 2.886-3.167 4.01-1.238 1.04-2.497 1.563-3.963 2.185-.94.4-1.734.886-2.78.968-.629.047-1.176.01-1.79.208-1.457.473-2.795.863-4.326 1.085-1.342.195-3.006.07-4.24.697-.658.332-1.207.845-1.868 1.181-.589.3-1.15.562-1.708.924-1.012.664-1.768 1.277-2.43 2.315-.516.803-.804 1.673-.983 2.559a12.542 12.542 0 0 0-.892-.777 12.634 12.634 0 0 1-.532-.432c-.352-.311-.726-.566-1.099-.819-.184-.124-.367-.245-.544-.376-.21-.155-.403-.33-.594-.498-.32-.286-.637-.562-.99-.777-.604-.367-1.195-.699-1.781-.989a24.217 24.217 0 0 0-1.852-.854c-.254-.1-.493-.233-.728-.362-.356-.192-.724-.393-1.138-.515-.498-.147-.98-.154-1.392-.145-.253-.002-.493.003-.668-.035-.302-.06-.586-.152-.854-.234-.4-.123-.774-.233-1.124-.273-.816-.089-1.114-.038-1.484.056-.007.002-.019.002-.026.005a.82.82 0 0 0-.505-.216c-.84-.04-.875-.03-1.48.043l-.62.072c-.366.04-.766.138-1.2.248-.015.005-.036.01-.053.014-.244.037-.488.075-.754.129-.072.014-.148.051-.223.07a6.864 6.864 0 0 1-.451.044c-.412.026-.88.054-1.362.197-.228.067-.451.19-.68.294a3.56 3.56 0 0 0-.274-.053 4.424 4.424 0 0 0-1.38-.162c-.244.005-.495.019-.744.035-.35-.042-.724-.075-1.124.024-.582.142-1.159.26-1.729.374-.577.12-.993.145-1.438.082l-.337-.038c-.396-.04-.71-.072-1-.266a2.79 2.79 0 0 1-.434-.377 6.461 6.461 0 0 1-.302-.475l-.165-.269c-.22-.353-.352-.746-.459-1.356a4.892 4.892 0 0 0-.22-.753c.008-.028.013-.056.022-.087.059-.208.117-.411.156-.62.1-.523.221-.918.435-1.271.03-.045.059-.075.091-.122.284-.428.552-.828 1.068-1.144.135-.082.266-.154.4-.231.182-.033.37-.061.568-.084l.787-.115c.111-.019.218-.03.326-.047.097.028.186.05.283.08l.461.14a.838.838 0 0 0 1.024-.592c.012-.044.005-.086.01-.128.016-.038.043-.068.055-.11a.842.842 0 0 0-.589-1.03c-.386-.107-.765-.1-1.135-.062-.36-.087-.738-.145-1.14-.087-.426.059-.826.234-1.224.442a3.224 3.224 0 0 0-.908.36c-.598.363-.947.933-1.226 1.392l-.193.306c-.026.038-.033.075-.056.11-.072.1-.147.201-.226.3-.328.409-.702.874-.826 1.5-.079.424.003.805.107 1.156-.065.33-.11.674-.042 1.05.114.648.463 1.174.77 1.637l.198.304c.154.248.38.555.657.86.207.28.444.546.777.766.58.388 1.26.806 2.013.907a6.403 6.403 0 0 0 1.889-.04c-.221.155-.41.33-.577.515-.116.09-.24.17-.358.264-.18.143-.359.288-.545.423-.18.134-.372.262-.568.389-.374.247-.756.5-1.1.806a3.253 3.253 0 0 0-.57.686c-.326.177-.67.378-.966.69-.319.33-.535.722-.728 1.066-.126.231-.252.465-.417.669-.153.187-.326.362-.498.545-.086.088-.163.194-.247.285a3.59 3.59 0 0 0-.642.68c-.058.087-.093.178-.14.267l-.206.29c-.275.37-.552.748-.792 1.158-.207.35-.374.734-.542 1.127-.104.245-.207.493-.328.737-.167.33-.349.6-.512.85-.219.333-.414.64-.551.96a2.383 2.383 0 0 0-.175.818c-.17.356-.346.744-.488 1.244a22.33 22.33 0 0 0-.3 1.259l-.177.769c-.01.044 0 .084-.005.129l-1.515.544-.144.033-3.928 1.558-1.631.881-.149.05-.421.189-1.566.608-1.05.57-.765.344a.84.84 0 0 0-.405 1.116c.007.012.02.016.026.028.009.023.009.05.02.073.152.282.44.442.736.442.132 0 .27-.036.395-.103l.691-.377 2.602-1.176.472-.183.044-.025 1.883-.601 1.915-.89 1.699-.913.055-.02 1.89-.415a.789.789 0 0 0 .274-.115l.636-.419 1.089-.37 1.915-.764c.43-.17.64-.66.47-1.087-.014-.04-.044-.068-.065-.1-.007-.029-.003-.057-.012-.085a.83.83 0 0 0-1.068-.505l-1.85.687c.088-.184.186-.362.244-.566.138-.498.138-.956.135-1.326 0-.028.003-.051.003-.077.081-.164.158-.323.225-.482.08-.182.228-.38.4-.612.229-.309.473-.643.685-1.064a29.06 29.06 0 0 1 .921-1.682c.214-.36.333-.744.438-1.08a5.24 5.24 0 0 1 .183-.508c.047-.068.098-.135.145-.201.118-.173.265-.313.402-.465.063-.05.119-.1.184-.152.258-.208.55-.442.784-.737.417-.505.824-.978 1.252-1.424.28-.293.482-.622.663-.912.224-.124.459-.244.668-.43.491-.433.987-.805 1.478-1.17.34-.248.593-.554.821-.823.04-.045.072-.084.112-.126.156-.12.314-.253.477-.354.312-.189.647-.322.977-.456.26-.105.517-.21.759-.33a22.634 22.634 0 0 1 1.74-.76c.18-.07.354-.107.535-.158.261.299.452.734.577 1.398.059.318.08.603.06.86a5.977 5.977 0 0 1-.243.64c-.275.603-.58.988-.957 1.208a3.297 3.297 0 0 1-.854.318 3.353 3.353 0 0 1-1.096-.1.839.839 0 0 0-1.024.591c-.007.028 0 .054-.004.08-.01.023-.028.044-.035.07a.842.842 0 0 0 .59 1.027c.303.08.618.121.943.121.396 0 .805-.065 1.213-.184.407-.08.798-.202 1.144-.403.696-.402 1.26-1.073 1.68-1.992.089-.194.11-.414.161-.625.221-.594.365-1.258.235-1.955a5.947 5.947 0 0 0-.568-1.611c.114-.037.23-.075.34-.115.24-.093.465-.163.696-.226.074-.012.158-.012.232-.026a16.3 16.3 0 0 0 .736-.176c.405-.06.789-.112 1.119-.15.6-.067.726-.039.933.005.203.045.43.094.891.115.068.005.13-.019.196-.03.398-.026.633-.078.821-.124.198-.05.314-.078.9-.017.254.03.524.12.815.21.317.099.654.202 1.015.277.342.068.693.065 1.005.065.347.003.651-.002.914.08.247.07.522.22.815.38a8.5 8.5 0 0 0 .914.448c.563.222 1.129.5 1.722.797.545.269 1.094.578 1.652.917.272.168.507.383.756.6.226.204.459.408.708.593.195.145.398.28.602.418.312.213.631.426.929.685.19.171.395.33.6.494.291.227.584.458.852.734.226.239.412.517.605.8.123.175.256.353.388.53.114.686.303 1.369.617 2.03.1.211.414.04.317-.168-.019-.037-.028-.08-.047-.117l.233-.413c.06.072.125.14.181.217a3.515 3.515 0 0 0 1.003 2.016c.107.105.217.185.326.271.228.372.46.749.663 1.148a.83.83 0 0 0 1.12.375.825.825 0 0 0 .44-.655c.844.042 1.721-.17 2.589-.529.935-.388 1.692-.753 2.292-1.576.96-1.319 2.078-2.458 3.27-3.576 2.128-2 4.727-3.536 7.429-4.663 1.357-.568 2.767-.903 4.149-1.391.512-.18 1.033-.335 1.52-.573.886-.44 1.682-.571 2.652-.8 1.075-.257 2.07-.732 3.092-1.156 1.236-.512 2.588-.582 3.744-1.246 1.068-.613 2.283-1.12 3.24-1.899" fill="#000" mask="url(#b)"/>
        </g>
        <path fill="#000" d="M277.775 62.701h-8.444l-.345 1.967h-11.455l-.617 3.506h11.456l-.028.152-13.068 9.207-1.63 9.282 13.066-9.186-1.61 9.188h8.447l1.61-9.188 9.838 9.212 1.63-9.28-9.837-9.235.028-.152h11.456l.611-3.506h-11.45zM257.224 53.11l-7.149 4.637 1.176-6.691h6.331l.617-3.506h-6.334l1.282-7.313h-8.444l-1.285 7.313h-6.331l-.617 3.506h6.334l-2.26 12.879-7.148 4.64-1.624 9.26 7.137-4.576-1.05 5.99-7.309 4.747-.495 2.82H244.975l3.45-19.656 7.135-4.577zM126.96 40.238h-8.444l-1.284 7.313H110.9l-.616 3.505h6.334l-2.211 12.594-7.146 4.637-1.624 9.261 7.134-4.576-1.098 6.272-7.295 4.672-.51 2.9h6.476-.002 8.447l3.5-19.944 7.138-4.576 1.66-9.474-7.147 4.637 1.124-6.403h6.332l.616-3.505h-6.333zM132.246 45.168h15.307l-5.978 34.074-7.29 4.657-.512 2.918H148.693h-.003L156 45.168h10.03l.612-3.505h-33.78zM176.391 45.168h20.586l-6.692 38.141H167.59l-.617 3.508h54.896l.617-3.508h-22.697l6.69-38.14h20.584l.616-3.506h-50.672zM293.08 41.663h-31.67l-1.65 9.394h2.767l4.936-5.889h18.49l2.868 5.89h2.767l1.65-9.395-.166.035zM354.401 51.056l.615-3.505H331.79l1.45-8.272h-8.445l-1.452 8.272H300.12l-.614 3.505h23.225l-1.557 8.873H301.94l-.614 3.506h46.915l.612-3.506H329.62l1.556-8.873z"/>
        <path fill="#000" d="M275.837 48.884h-7.563l-4.768 5.678h-4.202l-.968 5.512-.021.134h8.025zM330.203 83.336H312.9l1.901-10.819h17.3l-1.898 10.819zm3.248-15.445h-26.94l-.357 2.047h-.002l-2.35 13.398-.614 3.505h35.499l.004-.025.477-2.71.135-.77 2.709-15.445h-8.56zM286.053 54.562h-.004l-1.634-3.34h-7.567l4.382 8.988h8.027l.026-.136.007-.035.745-4.25.214-1.227z"/>
        <path stroke="#000" stroke-width=".792" d="M0 100.083h356.791M0 139.856h356.791"/>
    </g>
</svg>
