<svg width="30" height="30" viewBox="0 0 30 30" xmlns="http://www.w3.org/2000/svg">
    <g fill="none" fill-rule="evenodd">
        <path d="M21.916 21.809A9.937 9.937 0 1 1 13.221 5.12a9.932 9.932 0 0 0 8.695 16.688zM20.24 5.137l.338.536.07.113.112.07.536.337-.536.337-.113.075-.07.107-.337.536-.337-.535-.08-.124-.108-.075-.535-.337.535-.338.107-.07.075-.112.338-.536.005.016zm3.804 9.702.536.847.117.177.177.117.847.536-.847.536-.177.118-.117.176-.536.847-.536-.847-.112-.182-.183-.112-.846-.536.846-.536.183-.117.112-.177.536-.847zM18.107 9.83l.89 1.372.187.29.295.192 1.366.89-1.366.889-.295.192-.188.29-.889 1.371-.89-1.387-.192-.29-.29-.193-1.37-.889 1.37-.89.29-.187.193-.294.89-1.372v.016z" fill="#FFE693"/>
        <path d="M23.791 21.809A9.937 9.937 0 1 1 15.096 5.12a9.937 9.937 0 0 0 8.695 16.688zM21.58 5.137l.337.536.07.113.112.07.536.337-.536.337-.134.06-.07.106-.337.536-.337-.536-.07-.107-.113-.075-.535-.337.535-.338.113-.07.07-.112.337-.536.022.016zm3.808 9.702.536.847.118.177.182.117.847.536-.847.536-.182.118-.118.176-.536.847-.535-.847-.118-.182-.177-.112-.846-.536.846-.536.177-.117.118-.177.535-.847zm-5.94-5.009.91 1.372.188.29.289.192 1.371.89-1.371.889-.29.192-.187.274-.91 1.387-.89-1.387-.187-.29-.29-.193-1.371-.889 1.371-.89.29-.187.187-.294.89-1.372v.016z" fill="#FFC800"/>
        <path d="M13.221 5.121a9.932 9.932 0 0 0 8.695 16.688A9.937 9.937 0 1 1 13.221 5.12m7.018 0 .338.536.07.113.112.07.536.337-.536.337-.113.075-.07.107-.337.536-.337-.536-.08-.107-.108-.075-.535-.337.535-.338.107-.07.075-.112.338-.536M18.09 9.814l.89 1.372.187.289.294.193 1.367.89-1.367.888-.294.193-.188.29-.873 1.387-.89-1.387-.192-.29-.29-.193-1.37-.889 1.37-.89.29-.187.193-.294.89-1.372m5.935 5.025.536.847.117.177.177.117.847.536-.847.536-.177.118-.117.176-.536.847-.536-.847-.112-.182-.183-.112-.846-.536.846-.536.183-.117.112-.177.536-.847M13.757 3.782H13.527C7.33 4.262 2.699 9.675 3.179 15.871c.481 6.195 5.893 10.828 12.089 10.347a11.18 11.18 0 0 0 8.148-3.482 1.34 1.34 0 0 0-.964-2.266 1.302 1.302 0 0 0-.204 0 8.282 8.282 0 0 1-1.312.101A8.571 8.571 0 0 1 14.7 6.054a1.34 1.34 0 0 0-.91-2.288l-.033.016zm6.482 0c-.454 0-.878.23-1.125.61l-.252.43-.39.257a1.34 1.34 0 0 0 0 2.244l.396.257.252.391c.25.374.67.6 1.12.6a1.345 1.345 0 0 0 1.119-.605l.257-.391.391-.257a1.34 1.34 0 0 0 0-2.245l-.39-.252-.258-.39a1.34 1.34 0 0 0-1.12-.611v-.038zm-2.143 4.693a1.34 1.34 0 0 0-1.114.632l-.91 1.366-.033.054-.053.032-1.372.89a1.34 1.34 0 0 0 0 2.25l1.372.889.053.032.032.053.911 1.398a1.34 1.34 0 0 0 2.245 0l.894-1.371.033-.054.053-.032 1.372-.889a1.35 1.35 0 0 0 0-2.25l-1.372-.89-.053-.031-.033-.054-.889-1.393c-.248-.38-.67-.61-1.125-.61l-.01-.022zm5.947 5.025a1.345 1.345 0 0 0-1.12.605l-.536.793-.787.536a1.34 1.34 0 0 0 0 2.25l.787.509.536.787a1.34 1.34 0 0 0 2.245 0l.536-.787.787-.536a1.345 1.345 0 0 0 0-2.245l-.787-.535-.536-.788a1.34 1.34 0 0 0-1.125-.61v.021z" fill="#4E4E4E" fill-rule="nonzero"/>
        <path d="M13.221 5.121c-2.417 3.605-2.902 7.372-1.456 11.3 1.447 3.929 4.83 5.724 10.151 5.388l-.322.338-4.122 1.405-8.763-5.975-.673-5.26s-.65-1.394.837-3.746c.992-1.567 2.442-2.717 4.348-3.45z" fill="#FFC800"/>
    </g>
</svg>
