<svg width="30" height="30" viewBox="0 0 30 30" xmlns="http://www.w3.org/2000/svg">
    <g fill-rule="nonzero" fill="none">
        <path d="M22.5 13.323a2.84 2.84 0 1 1-1.393 5.314 8.325 8.325 0 0 1-4.537 4.067h6.696c0 .814-.659 1.475-1.473 1.478H6.145a1.484 1.484 0 0 1-1.479-1.478h6.075a8.336 8.336 0 0 1-5.432-7.817v-1.189h15.777a2.845 2.845 0 0 1 1.403-.375m0 4.232a1.393 1.393 0 1 0-.498-2.678v.884c0 .101 0 .203-.037.305-.038.102-.033.209-.054.316-.021.107-.054.29-.086.44l-.096.364c0 .026 0 .053-.027.075.24.193.539.298.847.3m0-5.572c-.596 0-1.184.129-1.725.375H5.309c-.74 0-1.34.6-1.34 1.34v1.189a9.713 9.713 0 0 0 2.497 6.477h-1.8c-.74 0-1.34.6-1.34 1.339a2.823 2.823 0 0 0 2.819 2.818h15.648a2.818 2.818 0 0 0 2.812-2.818c0-.74-.6-1.34-1.339-1.34h-2.421a9.53 9.53 0 0 0 .851-1.098c.265.056.534.085.804.086a4.179 4.179 0 0 0 0-8.357l.038-.01zM16.495 7.5c-.338-.836-.445-1.221-.091-1.655a.621.621 0 1 0-.965-.783c-.846 1.072-.428 2.074-.096 2.904.332.83.445 1.227.096 1.66a.584.584 0 0 0-.134.456.621.621 0 0 0 1.099.305c.84-1.039.428-2.067.09-2.887zM13.929 5.834a.627.627 0 0 0-.091-.873.659.659 0 0 0-.392-.14.621.621 0 0 0-.482.23c-.846 1.072-.428 2.08-.09 2.904.337.825.439 1.227.09 1.656a.59.59 0 0 0-.134.455.621.621 0 0 0 1.099.305c.84-1.044.428-2.073.09-2.903-.337-.83-.444-1.2-.09-1.634zM11.454 5.834a.621.621 0 0 0-.097-.873.616.616 0 0 0-.868.091c-.846 1.071-.428 2.078-.096 2.903.332.825.445 1.227.096 1.661a.59.59 0 0 0-.139.45.632.632 0 0 0 .621.557.622.622 0 0 0 .477-.23c.847-1.045.429-2.073.097-2.904-.332-.83-.445-1.221-.091-1.655z" fill="#4E4E4E"/>
        <path d="M16.559 22.704h6.707c0 .814-.659 1.475-1.473 1.478H6.145a1.484 1.484 0 0 1-1.479-1.478H16.56z" fill="#FFB54A"/>
        <path d="M22.43 13.698H5.288v1.19a8.336 8.336 0 0 0 5.453 7.816h5.818a8.32 8.32 0 0 0 4.543-4.077h1.328a2.464 2.464 0 0 0 0-4.929zm0 4.195H21.43l.128-.354.113-.359c.032-.123.064-.24.09-.364.028-.123.07-.295.092-.44.021-.144.037-.208.053-.315.016-.107 0-.204.038-.306v-1.339h.44a1.73 1.73 0 1 1 0 3.46l.047.017z" fill="#EA9000"/>
        <path d="M10.018 21.321a.322.322 0 0 1-.155-.042 7.436 7.436 0 0 1-3.622-5.93.305.305 0 0 1 .605-.038 6.836 6.836 0 0 0 3.333 5.443.305.305 0 0 1-.161.567z" fill="#FFB54A"/>
        <path d="M22.5 19.002a2.84 2.84 0 1 1 .01-5.679 2.84 2.84 0 0 1-.01 5.679zm0-4.227a1.393 1.393 0 1 0 0 2.786 1.393 1.393 0 0 0 0-2.786z" fill="#EA9000"/>
    </g>
</svg>
