<svg xmlns="http://www.w3.org/2000/svg" width="30" height="30" viewBox="0 0 30 30">
    <g fill="none" fill-rule="evenodd">
        <g>
            <g>
                <path fill="#FFF" d="M24.557 4.971L5.37 11.616 5.159 12.597 2.679 12.597 2.679 17.311 5.164 17.311 5.37 18.733 8.431 19.502 8.431 25.036 10.473 25.036 10.473 23.594 13.457 21.171 24.557 23.054 26.641 18.688 26.25 9.284z" transform="translate(-69.000000, -94.000000) translate(69.000000, 94.000000)"/>
                <g stroke="#4E4E4E" stroke-linecap="round" stroke-linejoin="round" stroke-width="1.339" transform="translate(-69.000000, -94.000000) translate(69.000000, 94.000000) translate(2.678571, 5.357143)">
                    <path d="M7.791 14.688L7.791 19.286 5.709 19.286 5.709 14.23zM.309 7.57H2.69V12.127H.309z"/>
                    <path fill="#F04E4E" fill-rule="nonzero" d="M2.695 6.547L2.695 13.572 5.709 14.23 7.791 14.688 9.283 15.017 9.283 4.284z"/>
                    <path d="M21.312.144L20.911.283 9.283 4.284 9.283 15.012 21.065 17.583 21.312 17.64M7.791 17.655s2.808-.128 2.865-2.34"/>
                    <ellipse cx="21.23" cy="8.897" rx="2.525" ry="8.753"/>
                    <path d="M20.453 7.601L21.636 7.601 21.636 10.193 20.453 10.193"/>
                </g>
            </g>
        </g>
    </g>
</svg>
