<svg width="30" height="30" viewBox="0 0 30 30" xmlns="http://www.w3.org/2000/svg">
    <g fill-rule="nonzero" fill="none">
        <path d="M15 25.875C8.994 25.875 4.125 21.006 4.125 15S8.994 4.125 15 4.125 25.875 8.994 25.875 15 21.006 25.875 15 25.875z" fill="#84B3FF"/>
        <path d="M5.598 16.57a.348.348 0 0 1-.343-.306A9.97 9.97 0 0 1 5.175 15C5.181 9.576 9.576 5.18 15 5.175a.359.359 0 0 1 0 .718A9.14 9.14 0 0 0 5.893 15c0 .392.026.784.075 1.173a.348.348 0 0 1-.3.391l-.07.006z" fill="#69A4FE"/>
        <path d="M15 6.927a8.073 8.073 0 1 1 0 16.146 8.073 8.073 0 0 1 0-16.146z" fill="#69A4FE"/>
        <path d="m21.895 11.93-.06-.064c-.15-.15-.739-.595-1.965 0-1.763.836-4.822 2.759-5.16 4.666-.097.56.076 1.135.467 1.548l-1.607 1.634.503.504 1.886-1.891 5.893-5.893a.37.37 0 0 0 .043-.504z" fill="#FFF"/>
        <path d="M8.4 25.355a.89.89 0 0 1-.257-.626.841.841 0 0 1 .257-.622l4.57-4.57a.879.879 0 0 1 1.494.622.857.857 0 0 1-.257.621l-4.564 4.575a.879.879 0 0 1-1.243 0zM16.912 12.273 19.2 9.595l-.321-.316-2.143 2.142a.3.3 0 0 1-.407 0 .29.29 0 0 1 0-.401l2.142-2.143-.385-.391-2.143 2.143a.303.303 0 1 1-.407-.45l2.143-2.143-.317-.316-2.678 2.287a1.575 1.575 0 0 0-.22 1.982l-4.494 4.5.503.504 4.495-4.5c.62.387 1.426.296 1.944-.22z" fill="#FFF"/>
        <path d="m10.81 17.379-4.569 4.585a.879.879 0 0 1-1.248 0 .879.879 0 0 1 0-1.243l4.575-4.57a.879.879 0 0 1 1.243 1.244v-.016z" fill="#FFF"/>
        <path d="M15 4.125a10.875 10.875 0 1 1-4.768 20.636l-.59.594a.879.879 0 0 1-1.5-.626.841.841 0 0 1 .258-.622l.273-.273a10.848 10.848 0 0 1-2.207-2.11l-.225.224a.873.873 0 0 1-1.248 0 .879.879 0 0 1 0-1.243l.477-.471A10.87 10.87 0 0 1 15 4.125m0-1.34A12.209 12.209 0 0 0 3.852 19.983a2.202 2.202 0 0 0-.456 1.345c.003.589.238 1.153.654 1.57.411.426.977.67 1.57.674.199-.002.397-.029.589-.08.22.225.445.44.675.648a2.255 2.255 0 0 0 .568 2.18 2.212 2.212 0 0 0 3.08.06c1.423.56 2.94.843 4.468.835 6.746 0 12.214-5.468 12.214-12.214S21.746 2.786 15 2.786z" fill="#4E4E4E"/>
    </g>
</svg>
