<svg xmlns="http://www.w3.org/2000/svg" width="24" height="24" viewBox="0 0 24 24">
    <defs>
        <filter id="tht84pdg0a">
            <feColorMatrix in="SourceGraphic" values="0 0 0 0 0.000000 0 0 0 0 0.692708 0 0 0 0 0.425563 0 0 0 1.000000 0"/>
        </filter>
        <filter id="o0n6rqkzlb">
            <feColorMatrix in="SourceGraphic" values="0 0 0 0 0.000000 0 0 0 0 0.692708 0 0 0 0 0.425563 0 0 0 1.000000 0"/>
        </filter>
        <filter id="8s1k0u9egc">
            <feColorMatrix in="SourceGraphic" values="0 0 0 0 0.000000 0 0 0 0 0.692708 0 0 0 0 0.425563 0 0 0 1.000000 0"/>
        </filter>
        <filter id="2v7byfeoud">
            <feColorMatrix in="SourceGraphic" values="0 0 0 0 0.000000 0 0 0 0 0.692708 0 0 0 0 0.425563 0 0 0 1.000000 0"/>
        </filter>
    </defs>
    <g fill="none" fill-rule="evenodd">
        <g>
            <g>
                <g>
                    <g>
                        <g>
                            <path d="M0 0H24V24H0z" transform="translate(-392 -327) translate(100 157) translate(0 82) translate(32 32) translate(260 56)"/>
                            <g transform="translate(-392 -327) translate(100 157) translate(0 82) translate(32 32) translate(260 56) translate(1 2)">
                                <path fill="#FDE96F" fill-rule="nonzero" d="M7.22 2.17S6.14-.47 3.88 1.51s-1.2 2.72-.87 3.07c.85.93 4.4-.47 4.21-2.41zM15.28 2.17s1.08-2.64 3.34-.66 1.2 2.72.87 3.07c-.85.93-4.39-.47-4.21-2.41z"/>
                                <ellipse cx="8.49" cy="11.03" fill="#FDE96F" fill-rule="nonzero" rx="2.87" ry="1.42"/>
                                <ellipse cx="13.77" cy="11.03" fill="#FDE96F" fill-rule="nonzero" rx="2.87" ry="1.42"/>
                                <path fill="#FDE96F" fill-rule="nonzero" d="M16.03 11.37c0 2.7-2.19 4.89-4.89 4.89-2.7 0-4.89-2.19-4.89-4.89"/>
                                <path fill="#00B16D" d="M8.64 2.78c-.27 0-.54-.12-.71-.35-.3-.39-.23-.95.15-1.25.09-.07 2.2-1.69 5.61-.35.46.18.69.7.51 1.17-.18.46-.7.69-1.17.51-2.4-.94-3.79.05-3.84.1-.17.11-.36.17-.55.17z"/>
                                <g filter="url(#tht84pdg0a)">
                                    <g>
                                        <path fill="#00BB73" fill-rule="nonzero" d="M1.97 5.19c-.35 0-.67-.2-.82-.54-.31-.71-.48-2.37 1.07-3.56 1.52-1.17 3.1-.32 3.73.29.35.35.35.92.01 1.28-.35.35-.92.36-1.27.01-.17-.16-.76-.63-1.37-.15-.78.6-.56 1.3-.5 1.43.18.46-.04.98-.49 1.17-.13.04-.24.07-.36.07zM18.02 5.19c-.12 0-.24-.02-.36-.07-.45-.2-.66-.73-.46-1.18.05-.12.27-.82-.51-1.42-.62-.47-1.21 0-1.37.16-.37.33-.94.32-1.28-.03-.34-.36-.34-.92.01-1.26.62-.61 2.21-1.46 3.73-.29 1.55 1.19 1.37 2.85 1.06 3.56-.14.33-.47.53-.82.53z" transform="translate(1)"/>
                                    </g>
                                </g>
                                <path fill="#00B16D" d="M11.11 20.14c-3.35 0-6.68-1.4-8.87-3.92C-.13 13.5-.61 9.33 1.04 5.85c.21-.45.75-.64 1.2-.43.45.21.64.75.43 1.2-1.35 2.84-.98 6.22.93 8.41 2.53 2.91 7.06 4.07 10.76 2.76 3.79-1.34 6.2-5.13 5.74-9.01-.1-.8-.3-1.53-.6-2.17-.21-.45-.01-.99.44-1.19.45-.21.98-.01 1.19.44.37.82.62 1.73.74 2.71.56 4.71-2.36 9.3-6.93 10.92-1.23.44-2.54.65-3.83.65z"/>
                                <g filter="url(#o0n6rqkzlb)">
                                    <g fill="#00BB73" fill-rule="nonzero" transform="translate(6 9)">
                                        <ellipse cx="5" cy="1.56" rx="1.66" ry="1.29"/>
                                        <path d="M3.02 4.45C1.67 4.45.65 3.53.53 3.41.17 3.07.15 2.5.49 2.14s.91-.38 1.27-.04c.19.18.82.61 1.4.54.39-.05.75-.33 1.09-.84.27-.41.83-.53 1.25-.26.42.27.53.83.26 1.25-.8 1.22-1.74 1.56-2.39 1.64-.12.01-.23.02-.35.02z"/>
                                        <path d="M6.98 4.45c-.11 0-.22-.01-.34-.02-.65-.08-1.58-.42-2.39-1.64-.27-.42-.16-.97.26-1.25.42-.28.97-.16 1.25.26.34.51.7.79 1.09.84.58.07 1.21-.37 1.4-.54.37-.33.93-.31 1.27.05.34.36.32.93-.04 1.27-.13.1-1.16 1.03-2.5 1.03z"/>
                                        <path d="M5.1 6.71c-1.23 0-1.95-.49-2.33-.89-.81-.87-.77-2-.76-2.12.03-.5.47-.87.96-.84.49.03.87.45.84.95 0 .03-.01.5.28.79.2.21.54.32 1.01.32 1.08 0 1.26-.74 1.27-1.19.01-.49.4-.9.91-.89.49 0 .89.4.89.89 0 .13-.02 1.29-.87 2.15-.38.38-1.07.83-2.2.83z"/>
                                    </g>
                                </g>
                                <g filter="url(#8s1k0u9egc)">
                                    <g>
                                        <path fill="#00BB73" fill-rule="nonzero" d="M2.57 3.58l-1.85-.9C.35 2.49.19 2.04.37 1.66l.19-.4C.74.88 1.2.72 1.58.91l1.84.91c.39.18.54.64.36 1.01l-.19.4c-.19.38-.65.54-1.02.35zM9.43 3.58l1.84-.91c.38-.18.53-.64.35-1.01l-.19-.4c-.18-.38-.64-.54-1.02-.35l-1.84.91c-.38.18-.53.64-.35 1.01l.19.4c.19.38.65.54 1.02.35z" transform="translate(5 4)"/>
                                    </g>
                                </g>
                                <g filter="url(#2v7byfeoud)">
                                    <g fill="#00BB73" fill-rule="nonzero" transform="translate(6 8)">
                                        <circle cx="1.09" cy="1.22" r="1"/>
                                        <circle cx="8.87" cy="1.22" r="1"/>
                                    </g>
                                </g>
                            </g>
                        </g>
                    </g>
                </g>
            </g>
        </g>
    </g>
</svg>
