<svg width="16" height="16" viewBox="0 0 16 16" xmlns="http://www.w3.org/2000/svg">
    <g fill="none" fill-rule="evenodd">
        <path d="M3.333 2.667a.667.667 0 0 0-.666.666v9.334c0 .368.298.666.666.666h9.334a.667.667 0 0 0 .666-.666V3.333a.667.667 0 0 0-.666-.666H3.333z" fill="#EEE"/>
        <path d="M3.333 2.667a.667.667 0 0 0-.666.666v9.334c0 .368.298.666.666.666h9.334a.667.667 0 0 0 .666-.666V3.333a.667.667 0 0 0-.666-.666H3.333zm0-1.334h9.334a2 2 0 0 1 2 2v9.334a2 2 0 0 1-2 2H3.333a2 2 0 0 1-2-2V3.333a2 2 0 0 1 2-2z" fill="#D1D1D1"/>
    </g>
</svg>
