<svg xmlns="http://www.w3.org/2000/svg" width="24" height="25" viewBox="0 0 24 25">
    <g fill="none" fill-rule="evenodd">
        <g transform="translate(-392 -2216) translate(100 2041) translate(32 176) translate(260)">
            <g fill="currentColor" fill-rule="nonzero">
                <path d="M10 1.07c-4.89 0-8.86 3.97-8.86 8.86 0 4.89 8.86 11 8.86 11s8.86-6.1 8.86-10.99c0-4.89-3.97-8.87-8.86-8.87zm0 11.98c-1.97 0-3.57-1.6-3.57-3.57 0-1.97 1.6-3.57 3.57-3.57 1.97 0 3.57 1.6 3.57 3.57 0 1.97-1.6 3.57-3.57 3.57z" transform="translate(2 1)"/>
                <path d="M10 21.57l-.3-.21C9.33 21.1.61 15.04.61 9.93.61 4.75 4.82.54 10 .54c5.18 0 9.39 4.21 9.39 9.39 0 5.11-8.72 11.18-9.09 11.43l-.3.21zm0-19.96c-4.59 0-8.33 3.74-8.33 8.33 0 4.07 6.8 9.23 8.33 10.34 1.53-1.11 8.33-6.27 8.33-10.34 0-4.6-3.74-8.33-8.33-8.33zm0 11.98c-2.26 0-4.11-1.84-4.11-4.11 0-2.27 1.85-4.11 4.11-4.11 2.26 0 4.11 1.84 4.11 4.11 0 2.27-1.85 4.11-4.11 4.11zm0-7.15c-1.68 0-3.04 1.36-3.04 3.04s1.36 3.04 3.04 3.04 3.04-1.36 3.04-3.04S11.68 6.44 10 6.44z" transform="translate(2 1)"/>
            </g>
        </g>
    </g>
</svg>
