<svg width="30" height="30" viewBox="0 0 30 30" xmlns="http://www.w3.org/2000/svg">
    <g fill-rule="nonzero" fill="none">
        <path fill="#FF9E95" d="M25.168 25.125H4.832L6.118 9.488h17.764z"/>
        <path fill="#F96860" d="M25.163 25.125H15V9.493h8.877z"/>
        <path d="M10.05 12.482a1.548 1.548 0 1 1-3.096.01 1.548 1.548 0 0 1 3.096-.01zM23.036 12.482a1.548 1.548 0 1 1-3.097.01 1.548 1.548 0 0 1 3.097-.01z" fill="#FFF"/>
        <path d="M21.498 12.98a.804.804 0 0 1-.803-.803 5.695 5.695 0 1 0-11.39 0 .804.804 0 1 1-1.607 0 7.302 7.302 0 1 1 14.604 0 .804.804 0 0 1-.804.803z" fill="#FF9E95"/>
        <path d="M22.296 12.177a.804.804 0 0 1-1.607 0A5.695 5.695 0 0 0 15 6.487V4.88a7.307 7.307 0 0 1 7.296 7.297z" fill="#F96860"/>
        <path d="M15 4.875a7.318 7.318 0 0 1 6.782 4.613h2.1l1.297 15.637H4.82L6.107 9.488h2.1A7.318 7.318 0 0 1 15 4.875M9.986 9.488h10.028a5.684 5.684 0 0 0-10.028 0M15 3.536a8.572 8.572 0 0 0-7.64 4.612H6.119A1.34 1.34 0 0 0 4.784 9.38L3.498 25.013c-.032.373.095.742.348 1.017.252.272.605.43.975.434H25.18c.374-.002.73-.16.985-.434.254-.275.38-.644.349-1.017L25.227 9.38a1.34 1.34 0 0 0-1.334-1.232h-1.254A8.572 8.572 0 0 0 15 3.536zm-1.655 4.612a4.355 4.355 0 0 1 3.31 0h-3.31z" fill="#4E4E4E"/>
    </g>
</svg>
