<svg width="30" height="30" viewBox="0 0 30 30" xmlns="http://www.w3.org/2000/svg">
    <g fill-rule="nonzero" fill="none">
        <path d="M24.836 22.602a75.102 75.102 0 0 1-19.672 0 34.993 34.993 0 0 1 0-15.204 75.102 75.102 0 0 1 19.672 0 34.993 34.993 0 0 1 0 15.204z" fill="#FF1F09"/>
        <path d="M5.164 22.602a75.102 75.102 0 0 0 19.672 0c.556-2.496.836-5.045.835-7.602H4.33c-.001 2.557.28 5.106.835 7.602z" fill="#BF1116"/>
        <path d="M19.018 14.56a.477.477 0 0 1 0 .88l-5.69 3.572c-.385.247-.696.049-.696-.433v-7.152c0-.482.31-.68.697-.44l5.689 3.574z" fill="#FFF"/>
        <path d="M12.632 18.579c0 .482.31.68.697.433l5.689-3.573a.504.504 0 0 0 .268-.439h-6.654v3.579z" fill="#A6DAE9"/>
        <path d="M15 6.75c3.29.002 6.575.219 9.836.648.555 2.496.835 5.045.835 7.602 0 .61-.016 1.221-.048 1.832v.075c-.032.568-.08 1.136-.14 1.71v.197a26.394 26.394 0 0 1-.219 1.57c0 .112-.026.225-.043.337a33.256 33.256 0 0 1-.37 1.908c-3.266.42-6.557.628-9.851.621a75.814 75.814 0 0 1-9.836-.648 29.44 29.44 0 0 1-.535-3.279c0-.177-.054-.353-.07-.536-.043-.396-.07-.792-.102-1.189 0-.236-.043-.477-.059-.718 0-.423-.027-.851-.032-1.28v-.616c-.01-2.55.257-5.094.798-7.586A75.814 75.814 0 0 1 15 6.75m0-1.34a77.593 77.593 0 0 0-10.012.66 1.334 1.334 0 0 0-1.13 1.039c-.57 2.563-.861 5.18-.869 7.805V15.814c0 .37 0 .756.038 1.141 0 .161 0 .322.037.482.038.161 0 .177 0 .263v.257c0 .316.043.643.08.975l.049.348v.199c.15 1.216.343 2.33.578 3.401.12.55.572.967 1.13 1.04 3.349.442 6.722.666 10.099.67a77.593 77.593 0 0 0 10.013-.66 1.345 1.345 0 0 0 1.135-1.039c.14-.654.268-1.318.38-1.977l.033-.23a.782.782 0 0 1 0-.118c.075-.482.155-1.071.22-1.607v-.209c.069-.664.117-1.243.144-1.779a.46.46 0 0 0 0-.085 35.63 35.63 0 0 0 .048-1.956 36.745 36.745 0 0 0-.862-7.8 1.345 1.345 0 0 0-1.136-1.039A77.593 77.593 0 0 0 15 5.411z" fill="#4E4E4E"/>
    </g>
</svg>
