<svg width="30" height="30" viewBox="0 0 30 30" xmlns="http://www.w3.org/2000/svg">
    <g fill-rule="nonzero" fill="none">
        <path d="M24.718 9.905a.536.536 0 0 0-.38-.171h-11.08a.455.455 0 0 0-.165 0h-2.379l-.46-2.09a.487.487 0 0 0-.349-.369L6.043 6.252a.488.488 0 0 0-.252.943l3.573.948 2.111 9.643c-.632.321-1.768 1.007-1.929 1.902-.076.45.09.909.44 1.205.112.107.176.166 1.425.187a1.355 1.355 0 1 0 1.939 0h3.295l4.205-.032c-.277.253-.435.61-.434.986a1.36 1.36 0 1 0 2.26-1.007h.183a.487.487 0 1 0 0-.975c-4.463.053-11.18.096-12.284.027a.263.263 0 0 1-.07-.22c.07-.375.761-.863 1.366-1.173.063.027.13.04.199.037h11.046a.504.504 0 0 0 .498-.423l1.222-7.971a.536.536 0 0 0-.118-.424zM21.77 22.404a.386.386 0 1 1 .386-.386.38.38 0 0 1-.386.386zm-9.396 0a.386.386 0 1 1 0-.772.386.386 0 0 1 0 .772zm.075-4.699-.434-1.966h1.034l.15 1.966h-.75zm4.157-4.403h1.323l-.048 1.42h-1.248l-.027-1.42zm-1.018 0 .032 1.42h-1.607l-.107-1.42h1.682zm3.311 1.42.048-1.42h1.554l-.145 1.42H18.9zm2.48 0 .14-1.42h1.757c.03.002.06.002.09 0l-.219 1.436-1.768-.017zm-.782-2.433h-1.607l.054-1.553h1.714l-.16 1.553zm-2.63 0h-1.36l-.06-1.575h1.463l-.043 1.575zm-2.4 0H13.8l-.118-1.575h1.854l.032 1.575zm-2.679 1.013.107 1.42h-1.21l-.311-1.42h1.414zm1.206 2.437h1.57l.042 1.966h-1.484l-.128-1.966zm2.587 0h1.19l-.07 1.966H16.73l-.048-1.966zm2.207 0h1.393l-.187 1.966h-1.302l.096-1.966zm4.64-3.385a.477.477 0 0 0-.23-.065h-1.683l.15-1.553h1.988l-.225 1.618zm-10.87-1.64.123 1.554H11.25l-.327-1.554h1.736zm8.427 6.965.193-1.966h1.709l-.306 1.966h-1.596z" fill="#FFF"/>
        <path d="M5.893 6.236h.128l3.863 1.023c.176.048.31.19.348.37l.46 2.089H13.083a.627.627 0 0 1 .14 0h11.115a.504.504 0 0 1 .499.578l-1.222 7.988a.504.504 0 0 1-.498.423H12.06a.466.466 0 0 1-.198-.037c-.606.31-1.297.798-1.366 1.173a.262.262 0 0 0 .07.22c.396 0 1.531.037 3.026.037 2.641 0 6.429-.032 9.257-.064a.488.488 0 0 1 0 .975h-.182a1.355 1.355 0 1 1-2.26 1.007 1.329 1.329 0 0 1 .433-.986l-4.205.032h-3.295a1.355 1.355 0 1 1-1.939 0c-1.248 0-1.313-.08-1.425-.187a1.296 1.296 0 0 1-.45-1.206c.16-.894 1.296-1.58 1.929-1.901L9.343 8.127 5.77 7.179a.488.488 0 0 1 .123-.943m15.712 6.053h1.656c.08.002.16.024.23.065l.252-1.608h-1.977l-.15 1.554m-2.641 0h1.607l.15-1.554h-1.714l-.054 1.554m-2.394 0h1.382L18 10.746h-1.452l.032 1.554m-2.78 0h1.762l-.026-1.586h-1.854l.118 1.554m-2.54 0h1.522l-.123-1.554h-1.736l.338 1.554m10.114 2.453h1.768l.22-1.435a.536.536 0 0 1-.092 0h-1.757l-.139 1.42m-2.48 0h1.462l.14-1.42h-1.554l-.048 1.42m-2.261 0h1.243l.048-1.42h-1.318l.032 1.42m-2.646 0H15.6l-.032-1.42H13.88l.107 1.42m-2.19 0h1.173l-.113-1.404h-1.371l.3 1.42m9.289 2.983h1.607l.306-1.966h-1.71l-.192 1.966m-2.293 0h1.275l.187-1.966h-1.392l-.07 1.966m-2.1 0h1.071l.07-1.966h-1.179l.038 1.966m-2.47 0h1.457l-.043-1.966h-1.57l.156 1.966m-1.773 0h.75l-.15-1.966h-1.034l.434 1.966m9.321 4.699a.386.386 0 1 0 .011-.772.386.386 0 0 0-.01.772m-9.397 0a.386.386 0 1 0 .09-.766.386.386 0 0 0-.09.766M5.893 4.896a1.827 1.827 0 0 0-.466 3.59l2.786.739 1.725 7.886a3.782 3.782 0 0 0-1.73 2.32c-.149.898.17 1.81.846 2.42.178.17.39.3.621.381a2.68 2.68 0 0 0 5.357.177h4.055a2.694 2.694 0 1 0 5.31-.916c.37-.59.37-1.34 0-1.929.292-.287.48-.664.535-1.071l1.222-7.972a1.843 1.843 0 0 0-1.822-2.142h-10.94a1.548 1.548 0 0 0-.267 0h-1.339l-.23-1.04a1.81 1.81 0 0 0-1.313-1.371L6.375 4.955a1.993 1.993 0 0 0-.471-.059h-.011z" fill="#4E4E4E"/>
    </g>
</svg>
