<svg xmlns="http://www.w3.org/2000/svg" width="24" height="24" viewBox="0 0 24 24">
    <g fill="none" fill-rule="evenodd">
        <path d="M0 0H24V24H0z" transform="translate(-145 -814) translate(0 806) translate(117) translate(28 8)"/>
        <g>
            <path fill="#FDE96F" fill-rule="nonzero" d="M11.88 2.8v16.44l6.37 3.13-.35-6.29 4.4-5.4s.79-.46-5.23-1.82c-2.4-.55-5.19-6.06-5.19-6.06z" transform="translate(-145 -814) translate(0 806) translate(117) translate(28 8)"/>
            <g transform="translate(-145 -814) translate(0 806) translate(117) translate(28 8)">
                <g fill="#00BB73" fill-rule="nonzero" transform="translate(7 10)">
                    <circle cx="1.4" cy="1.83" r="1.03"/>
                    <circle cx="8.35" cy="1.83" r="1.03"/>
                </g>
            </g>
            <g fill="#00BB73" fill-rule="nonzero" transform="translate(-145 -814) translate(0 806) translate(117) translate(28 8)">
                <path d="M5.57 23.11c-.19 0-.37-.06-.53-.17-.27-.19-.41-.52-.36-.85l.87-6.51-4.53-4.75c-.23-.24-.31-.58-.2-.9.11-.32.37-.55.69-.61l6.46-1.18 3.12-5.77c.31-.58 1.27-.58 1.58 0l3.12 5.77 6.46 1.18c.33.06.59.29.69.61.1.32.02.66-.2.9l-4.53 4.75.87 6.51c.04.33-.1.65-.36.85-.27.19-.62.23-.92.08l-5.92-2.84-5.92 2.84c-.13.06-.26.09-.39.09zM3.47 10.8l3.68 3.86c.19.2.28.47.24.74l-.71 5.28 4.81-2.3c.25-.12.53-.12.78 0l4.81 2.3-.71-5.28c-.04-.27.05-.54.24-.74l3.68-3.86-5.24-.96c-.27-.05-.5-.22-.63-.46l-2.53-4.69-2.55 4.69c-.13.24-.36.41-.63.46l-5.24.96z"/>
                <path d="M20.88 4.84h-4.62c-.5 0-.9-.4-.9-.9s.4-.9.9-.9h4.62c.5 0 .9.4.9.9s-.41.9-.9.9z"/>
                <path d="M18.57 7.15c-.5 0-.9-.4-.9-.9V1.63c0-.5.4-.9.9-.9s.9.4.9.9v4.62c0 .5-.41.9-.9.9zM11.88 16.31c-1.95 0-2.82-1.18-3.03-1.88-.14-.48.13-.98.61-1.12.47-.14.96.12 1.11.59.04.11.29.61 1.31.61 1.12 0 1.34-.53 1.36-.59.16-.45.65-.73 1.12-.58.46.14.74.59.62 1.06-.19.7-1.04 1.91-3.1 1.91z"/>
            </g>
        </g>
    </g>
</svg>
