<svg width="30" height="30" viewBox="0 0 30 30" xmlns="http://www.w3.org/2000/svg">
    <g fill-rule="nonzero" fill="none">
        <path d="M25.468 14.695a1.988 1.988 0 0 0-.568-1.399c.019.108.03.218.032.327 0 .744-.413 1.427-1.071 1.773-.761-3.375-4.447-5.935-8.882-5.935a10.907 10.907 0 0 0-3.75.643 1.998 1.998 0 0 0-1.565-.761 1.96 1.96 0 0 0-.932.24v1.865a7.12 7.12 0 0 0-2.49 3.327h-.537c-.665 0-1.205.54-1.205 1.205v1.404c0 .666.54 1.205 1.205 1.205h.536a7.093 7.093 0 0 0 2.491 3.327v2.293a1.2 1.2 0 0 0 1.2 1.205h1.425a1.2 1.2 0 0 0 1.2-1.205v-.536c1.723.379 3.511.344 5.218-.102v.66c0 .665.54 1.205 1.205 1.205h1.404c.666 0 1.205-.54 1.205-1.206v-2.635a6.498 6.498 0 0 0 2.406-4.913v-.075a1.998 1.998 0 0 0 1.473-1.912z" fill="#FFADB0"/>
        <path d="M10.248 14.357c-.359.46-.825.691-1.044.536-.22-.155-.108-.686.257-1.147.364-.46.825-.69 1.044-.535.22.155.108.685-.257 1.146z" fill="#103754"/>
        <path d="M12.991 9.643a.654.654 0 0 0 0 .177.664.664 0 0 0 .718.616 9.905 9.905 0 0 1 5.475 1.098.643.643 0 0 0 .321.086.68.68 0 0 0 .59-.349.691.691 0 0 0 .059-.503 10.634 10.634 0 0 0-5.175-1.302 10.854 10.854 0 0 0-1.988.177z" fill="#D46F41"/>
        <path d="M4.532 16.741v.643a1.205 1.205 0 0 0 1.206 1.205h.535a7.093 7.093 0 0 0 2.491 3.327v2.293a1.2 1.2 0 0 0 1.2 1.205h1.393a1.2 1.2 0 0 0 1.2-1.205v-.536c1.723.379 3.511.344 5.218-.102v.66c0 .665.54 1.205 1.205 1.205h1.404c.666 0 1.205-.54 1.205-1.206v-2.635a6.498 6.498 0 0 0 2.406-4.854H4.532z" fill="#FF6D81"/>
        <path d="M20.582 8.271a3.686 3.686 0 1 1-7.371 0 3.686 3.686 0 0 1 7.371 0z" fill="#FEC00F"/>
        <path d="M20.646 8.271a3.75 3.75 0 1 1-7.5 0 3.75 3.75 0 0 1 7.5 0z" fill="#F99B1C"/>
        <path d="M19.709 8.271a2.813 2.813 0 1 1-5.625 0 2.813 2.813 0 0 1 5.625 0z" fill="#FEC00F"/>
        <path d="M16.64 10.275v-.466a2.004 2.004 0 0 1-.836-.214l.144-.574c.252.138.533.211.82.215.284 0 .477-.113.477-.3 0-.188-.161-.306-.536-.429-.536-.177-.89-.423-.89-.9a.905.905 0 0 1 .831-.878v-.466h.493v.433c.247.005.492.06.718.161l-.145.536a1.532 1.532 0 0 0-.707-.172c-.321 0-.423.14-.423.279 0 .14.171.268.594.418.584.209.815.477.815.927a.937.937 0 0 1-.852.926v.504h-.504z" fill="#FFF"/>
        <path d="M17.18 7.94a4.184 4.184 0 0 1-.31-.124v.755c.262.108.375.215.375.375 0 .161-.15.274-.375.295v1.045h.273v-.504a.938.938 0 0 0 .868-.905c-.016-.46-.247-.729-.83-.938zM16.87 6.263v.99h.139c.246 0 .489.059.707.172l.145-.536a1.848 1.848 0 0 0-.718-.193v-.433h-.273z" fill="#FFF"/>
        <path d="M16.896 4.586a3.68 3.68 0 0 1 2.872 5.989c2.105 1.071 3.627 2.791 4.082 4.821a2.004 2.004 0 0 0 1.071-1.773 2.18 2.18 0 0 0-.032-.327 1.998 1.998 0 0 1-.894 3.311V16.891c0 .177 0 .354-.038.536 0 .053 0 .107-.027.16-.025.172-.057.35-.096.536 0 .06-.038.113-.054.166-.048.166-.09.327-.15.488l-.085.193a3.954 3.954 0 0 1-.327.67 3.541 3.541 0 0 1-.21.364c-.063.101-.138.198-.208.294-.07.097-.129.188-.198.279a5.62 5.62 0 0 1-.327.37 2.143 2.143 0 0 1-.145.166c-.169.177-.348.345-.535.503v2.614c0 .666-.54 1.206-1.206 1.206H18.98c-.665 0-1.205-.54-1.205-1.206v-.659a11.175 11.175 0 0 1-5.218.097v.536a1.2 1.2 0 0 1-1.2 1.205H9.948a1.2 1.2 0 0 1-1.2-1.205v-2.288a7.093 7.093 0 0 1-2.49-3.327H5.72c-.665 0-1.205-.54-1.205-1.205V15.98c0-.665.54-1.205 1.205-1.205h.536a7.12 7.12 0 0 1 2.491-3.327V9.584a1.96 1.96 0 0 1 .932-.241c.612 0 1.19.28 1.57.76a10.591 10.591 0 0 1 2.213-.535 3.75 3.75 0 0 1-.242-1.302 3.686 3.686 0 0 1 3.68-3.686m0-1.339a5.03 5.03 0 0 0-5.019 5.025v.241l-.31.064a3.31 3.31 0 0 0-3.456-.192 1.35 1.35 0 0 0-.707 1.184v1.232a8.507 8.507 0 0 0-2.052 2.673 2.545 2.545 0 0 0-2.143 2.512v1.404a2.55 2.55 0 0 0 2.143 2.518 8.491 8.491 0 0 0 2.057 2.646v1.66a2.545 2.545 0 0 0 2.54 2.546h1.403a2.54 2.54 0 0 0 2.347-1.575c.42.042.842.064 1.264.064.55 0 1.1-.037 1.645-.107a2.545 2.545 0 0 0 2.367 1.607h1.404a2.545 2.545 0 0 0 2.545-2.545v-2.02l.155-.155.14-.16.031-.033.038-.042.348-.397.182-.252.054-.075.053-.08c.068-.093.133-.184.193-.273.08-.118.145-.241.215-.36l.042-.08.033-.058.128-.225c.086-.172.15-.338.209-.483v-.08c.032-.064.059-.134.086-.204.08-.208.139-.423.187-.589 0-.08.043-.144.06-.209a6.23 6.23 0 0 0 .122-.632c.016-.065.027-.131.033-.198v-.107a3.332 3.332 0 0 0 .567-5.122 1.35 1.35 0 0 0-.959-.407 1.35 1.35 0 0 0-.97.418 9.295 9.295 0 0 0-2.351-2.287 5.02 5.02 0 0 0-4.629-6.842l.006-.005z" fill="#4E4E4E"/>
    </g>
</svg>
